<svg xmlns="http://www.w3.org/2000/svg" width="32" height="32" viewBox="0 0 32 32" fill="none">
  <path d="M24.0999 2.07202L29.6639 7.87202V29.928H8.87891V30H29.7349V7.94502L24.0999 2.07202Z" fill="#909090"/>
  <path d="M24.0311 2H8.80811V29.928H29.6641V7.873L24.0311 2Z" fill="#F4F4F4"/>
  <path d="M8.65489 3.5H2.26489V10.327H22.3649V3.5H8.65489Z" fill="#7A7B7C"/>
  <path d="M22.472 10.2109H2.39502V3.37891H22.472V10.2109Z" fill="#DD2025"/>
  <path d="M9.05212 4.53392H7.74512V9.33392H8.77312V7.71492L9.00012 7.72792C9.22076 7.72488 9.43938 7.68535 9.64712 7.61092C9.82974 7.54891 9.99758 7.44984 10.1401 7.31992C10.2863 7.19736 10.4011 7.04173 10.4751 6.86592C10.5764 6.57463 10.6122 6.26462 10.5801 5.95792C10.5744 5.73877 10.536 5.52171 10.4661 5.31392C10.4031 5.16373 10.3095 5.02834 10.1912 4.91641C10.0729 4.80448 9.93256 4.71848 9.77912 4.66392C9.64683 4.61493 9.50974 4.58007 9.37012 4.55992C9.26465 4.54274 9.15797 4.53405 9.05112 4.53392M8.86212 6.82792H8.77312V5.34792H8.96612C9.0513 5.34178 9.13677 5.35485 9.21622 5.38618C9.29566 5.41751 9.36706 5.46629 9.42512 5.52892C9.54544 5.68993 9.60971 5.88592 9.60812 6.08692C9.60812 6.33292 9.60812 6.55592 9.38612 6.71292C9.22622 6.80099 9.04415 6.8416 8.86212 6.82792ZM12.5331 4.52092C12.4221 4.52092 12.3141 4.52892 12.2381 4.53192L12.0001 4.53792H11.2201V9.33792H12.1381C12.4889 9.34694 12.8381 9.2875 13.1661 9.16292C13.4302 9.05862 13.664 8.88981 13.8461 8.67192C14.0246 8.45307 14.152 8.1972 14.2191 7.92292C14.298 7.61285 14.3363 7.29385 14.3331 6.97392C14.3527 6.59607 14.3235 6.21728 14.2461 5.84692C14.1721 5.57461 14.0351 5.32352 13.8461 5.11392C13.6979 4.94443 13.5156 4.80813 13.3111 4.71392C13.1359 4.63272 12.9516 4.57295 12.7621 4.53592C12.6868 4.52357 12.6105 4.51788 12.5341 4.51892M12.3521 8.45592H12.2521V5.39192H12.2651C12.4713 5.36808 12.6799 5.40529 12.8651 5.49892C13.0008 5.60725 13.1113 5.74372 13.1891 5.89892C13.2731 6.06225 13.3215 6.24152 13.3311 6.42492C13.3401 6.64492 13.3311 6.82492 13.3311 6.97392C13.3348 7.14555 13.3238 7.31718 13.2981 7.48692C13.2667 7.66098 13.2097 7.82946 13.1291 7.98692C13.0381 8.13376 12.9137 8.25709 12.7661 8.34692C12.6428 8.42692 12.4967 8.46417 12.3501 8.45292M17.4301 4.53792H15.0001V9.33792H16.0281V7.43392H17.3281V6.54192H16.0281V5.42992H17.4281V4.53792" fill="#464648"/>
  <path d="M21.7809 20.255C21.7809 20.255 24.9689 19.677 24.9689 20.766C24.9689 21.855 22.9939 21.412 21.7809 20.255ZM19.4239 20.338C18.9173 20.4496 18.4237 20.6135 17.9509 20.827L18.3509 19.927C18.7509 19.027 19.1659 17.8 19.1659 17.8C19.6421 18.6041 20.1975 19.3586 20.8239 20.052C20.3523 20.1223 19.885 20.2184 19.4239 20.34V20.338ZM18.1619 13.838C18.1619 12.889 18.4689 12.63 18.7079 12.63C18.9469 12.63 19.2159 12.745 19.2249 13.569C19.147 14.3976 18.9735 15.2143 18.7079 16.003C18.343 15.3413 18.1546 14.5967 18.1609 13.841L18.1619 13.838ZM13.5129 24.354C12.5349 23.769 15.5639 21.968 16.1129 21.91C16.1099 21.911 14.5369 24.966 13.5129 24.354ZM25.8999 20.895C25.8899 20.795 25.7999 19.688 23.8299 19.735C23.0088 19.7206 22.1879 19.7785 21.3769 19.908C20.5908 19.1167 19.9141 18.2238 19.3649 17.253C19.7107 16.2523 19.9203 15.2096 19.9879 14.153C19.9589 12.953 19.6719 12.265 18.7519 12.275C17.8319 12.285 17.6979 13.09 17.8189 14.288C17.9374 15.0931 18.1609 15.8791 18.4839 16.626C18.4839 16.626 18.0589 17.949 17.4969 19.265C16.9349 20.581 16.5509 21.271 16.5509 21.271C15.5735 21.5888 14.6535 22.0615 13.8259 22.671C13.0019 23.438 12.6669 24.027 13.1009 24.616C13.4749 25.124 14.7839 25.239 15.9539 23.706C16.5745 22.9134 17.1424 22.081 17.6539 21.214C17.6539 21.214 19.4379 20.725 19.9929 20.591C20.5479 20.457 21.2189 20.351 21.2189 20.351C21.2189 20.351 22.8479 21.99 24.4189 21.932C25.9899 21.874 25.9139 20.993 25.9039 20.897" fill="#DD2025"/>
  <path d="M23.9541 2.0769V7.9499H29.5871L23.9541 2.0769Z" fill="#909090"/>
  <path d="M24.031 2V7.873H29.664L24.031 2Z" fill="#F4F4F4"/>
  <path d="M8.97497 4.45702H7.66797V9.25702H8.69997V7.63902L8.92797 7.65202C9.14861 7.64897 9.36723 7.60944 9.57497 7.53502C9.75759 7.47301 9.92543 7.37394 10.068 7.24402C10.213 7.12112 10.3268 6.96551 10.4 6.79002C10.5012 6.49873 10.5371 6.18872 10.505 5.88202C10.4993 5.66287 10.4608 5.4458 10.391 5.23802C10.328 5.08782 10.2344 4.95243 10.1161 4.84051C9.99778 4.72858 9.85741 4.64258 9.70397 4.58802C9.57108 4.53854 9.4333 4.50335 9.29297 4.48302C9.1875 4.46584 9.08083 4.45715 8.97397 4.45702M8.78497 6.75102H8.69597V5.27102H8.88997C8.97515 5.26487 9.06062 5.27795 9.14007 5.30928C9.21952 5.34061 9.29091 5.38939 9.34897 5.45202C9.46929 5.61303 9.53356 5.80902 9.53197 6.01002C9.53197 6.25602 9.53197 6.47902 9.30997 6.63602C9.15008 6.72409 8.968 6.7637 8.78597 6.75002M12.456 4.44402C12.345 4.44402 12.237 4.45202 12.161 4.45502L11.926 4.46102H11.146V9.26101H12.064C12.4148 9.27004 12.7639 9.2106 13.092 9.08602C13.3561 8.98171 13.5899 8.81291 13.772 8.59502C13.9504 8.37617 14.0778 8.1203 14.145 7.84602C14.2238 7.53594 14.2622 7.21695 14.259 6.89702C14.2785 6.51917 14.2493 6.14038 14.172 5.77002C14.0979 5.4977 13.9609 5.24662 13.772 5.03702C13.6238 4.86753 13.4415 4.73122 13.237 4.63702C13.0618 4.55581 12.8775 4.49605 12.688 4.45902C12.6126 4.44666 12.5363 4.44097 12.46 4.44202M12.278 8.37901H12.178V5.31502H12.191C12.3971 5.29118 12.6058 5.32838 12.791 5.42202C12.9266 5.53034 13.0372 5.66681 13.115 5.82202C13.1989 5.98535 13.2473 6.16462 13.257 6.34802C13.266 6.56802 13.257 6.74802 13.257 6.89702C13.2607 7.06864 13.2496 7.24027 13.224 7.41002C13.1925 7.58408 13.1356 7.75256 13.055 7.91002C12.9639 8.05686 12.8396 8.18019 12.692 8.27002C12.5687 8.35002 12.4225 8.38727 12.276 8.37602M17.353 4.46102H14.923V9.26101H15.951V7.35702H17.251V6.46502H15.951V5.35302H17.351V4.46102" fill="white"/>
</svg>