<?xml version="1.0" encoding="UTF-8"?>
<svg version="1.1" xmlns="http://www.w3.org/2000/svg" width="512" height="512">
<path d="M0 0 C1.22008705 -0.00384115 2.44017411 -0.00768229 3.6972335 -0.01163983 C5.06349176 -0.0108595 6.42974997 -0.0099807 7.79600811 -0.00901413 C9.2378517 -0.01159631 10.67969456 -0.01460905 12.12153643 -0.01801753 C16.09791908 -0.02610813 20.0742837 -0.02787824 24.0506736 -0.028615 C28.33366929 -0.03046198 32.61665555 -0.03800751 36.89964581 -0.04475021 C46.27146374 -0.05834868 55.64327741 -0.06436061 65.01510358 -0.06876087 C70.86358847 -0.07152074 76.71207169 -0.07575762 82.56055546 -0.08026505 C98.74370024 -0.09245969 114.9268437 -0.10275862 131.10999298 -0.10614014 C132.14632887 -0.1063597 133.18266475 -0.10657927 134.25040476 -0.10680549 C135.28926306 -0.10702377 136.32812136 -0.10724204 137.39846021 -0.10746694 C139.50368838 -0.10791041 141.60891654 -0.10835697 143.71414471 -0.10880661 C144.75841732 -0.10902804 145.80268994 -0.10924947 146.87860718 -0.10947761 C163.80448834 -0.11342671 180.73032649 -0.13088326 197.65619103 -0.15416613 C215.02118077 -0.17786084 232.3861489 -0.19034113 249.75115508 -0.19150805 C259.50602668 -0.19242588 269.26084224 -0.19820506 279.01569843 -0.21632767 C287.32139878 -0.23170331 295.62702576 -0.23686416 303.93273763 -0.22858956 C308.1723091 -0.22467403 312.41173271 -0.22565648 316.65128613 -0.23964691 C320.53065798 -0.25233195 324.40977005 -0.25123618 328.28914126 -0.2390562 C329.694278 -0.23708979 331.09943281 -0.24022096 332.50454412 -0.24890056 C334.41168585 -0.25993755 336.31891276 -0.25074414 338.22605896 -0.24050903 C339.28629314 -0.24110612 340.34652732 -0.24170321 341.4388898 -0.24231839 C344.74643555 0.18947521 346.62356106 1.17428548 349.30179119 3.13142776 C351.9934079 7.51894412 351.60825079 12.42858227 351.62063885 17.41975784 C351.63068447 18.34707718 351.64073009 19.27439651 351.65108013 20.22981644 C351.68190571 23.28685781 351.69894566 26.34381163 351.71585369 29.40095901 C351.73456583 31.52374398 351.75413927 33.64652151 351.77453899 35.76929092 C351.82586129 41.35052991 351.86548661 46.93179301 351.9026823 52.51314163 C351.94272124 58.21083416 351.99381412 63.90842636 352.04397869 69.60603714 C352.1407392 80.78109687 352.22514369 91.95621325 352.30179119 103.13142776 C352.89057049 102.10843582 352.89057049 102.10843582 353.49124432 101.06477737 C354.01653728 100.16767044 354.54183025 99.27056351 355.08304119 98.34627151 C355.59931072 97.45802689 356.11558025 96.56978226 356.64749432 95.65462112 C360.6666452 89.52446699 366.60701059 85.52717335 373.61429119 83.44392776 C386.09322818 81.99288858 397.32687898 85.97258467 407.27444744 93.65486526 C412.89525212 98.73865039 415.71921546 104.58493467 416.68069744 112.08845901 C417.15985534 124.12923339 410.98160707 134.06957117 405.67679119 144.56892776 C405.11089275 145.70008011 404.54499432 146.83123245 403.96194744 147.99666214 C400.1209431 155.64034594 396.16323367 163.21798075 392.16778851 170.7819252 C387.97960161 178.71986226 383.88173099 186.70278956 379.79733562 194.6945076 C377.64250393 198.9104574 375.48403551 203.12454363 373.32522869 207.33845901 C372.68468044 208.58886726 372.68468044 208.58886726 372.03119183 209.86453629 C366.56073012 220.53688591 361.0345771 231.18024708 355.49661541 241.81770706 C354.90517742 242.96299881 354.90517742 242.96299881 354.30179119 244.13142776 C353.95261387 244.66862222 353.60343655 245.20581667 353.24367809 245.75928974 C351.8568871 249.25191677 352.02124649 252.69700151 352.03677654 256.39935684 C352.03239527 257.2404585 352.028014 258.08156016 352.02349997 258.94814974 C352.01116293 261.77093364 352.01298923 264.59353211 352.01468182 267.41633987 C352.00865871 269.43835094 352.00173475 271.4603595 351.99397564 273.48236465 C351.97907631 277.83887786 351.97033485 282.19534514 351.96626568 286.55188179 C351.95955952 293.4384343 351.93781392 300.32488843 351.91372967 307.21139908 C351.86473084 321.83055228 351.83242801 336.44972629 351.80179119 351.06892776 C351.76872022 366.84694372 351.73282578 382.62492125 351.67766047 398.40287787 C351.65429002 405.25070696 351.64056536 412.09846775 351.63416576 418.94633281 C351.62823377 423.20437166 351.61414308 427.46235504 351.59782124 431.72036552 C351.59193763 433.69686921 351.58947459 435.67338644 351.59066105 437.64989853 C351.59181801 440.34555575 351.58082121 443.04090027 351.56680584 445.73651505 C351.57010481 446.52075771 351.57340379 447.30500037 351.57680273 448.11300796 C351.5417074 452.19614511 351.42606829 455.58617355 349.30179119 459.13142776 C345.52815879 461.89402759 342.86967573 462.50639879 338.23164558 462.50615788 C336.39163024 462.51696769 336.39163024 462.51696769 334.51444286 462.52799588 C333.15632098 462.52081908 331.79820056 462.51336018 330.4400816 462.50564957 C328.99493399 462.5083901 327.54978837 462.51244213 326.1046477 462.51769322 C322.13303792 462.5282898 318.16165288 462.52014485 314.19005287 462.50894272 C309.90712398 462.5001087 305.62422476 462.50854189 301.3412962 462.51480484 C292.95114776 462.52429929 284.56108526 462.51768747 276.17094319 462.5055419 C266.40495966 462.49193047 256.63899666 462.49355898 246.87300605 462.49567523 C229.45138226 462.49886602 212.02979935 462.48719192 194.60818768 462.46760941 C177.69378699 462.44860194 160.77943421 462.44152251 143.86502361 462.44710159 C125.45545073 462.45315586 107.04589893 462.452989 88.6363278 462.44161576 C86.67432185 462.44040844 84.7123159 462.43920246 82.75030994 462.43799782 C81.78490914 462.43739428 80.81950833 462.43679074 79.82485295 462.43616891 C73.01338559 462.43228558 66.20192605 462.43268498 59.39045811 462.43458366 C51.09322205 462.43670314 42.796028 462.43150025 34.49880379 462.41697011 C30.26342251 462.4097138 26.0281025 462.40565962 21.79271603 462.41021347 C17.91848882 462.41427777 14.04438833 462.4091591 10.17018039 462.39658739 C8.76582947 462.39364976 7.36146668 462.39410651 5.95711874 462.39823047 C4.05344674 462.4033148 2.14975285 462.39497351 0.24609566 462.38590336 C-0.81289202 462.38503658 -1.8718797 462.3841698 -2.96295792 462.38327676 C-5.77139456 462.12468917 -7.36566186 461.68992828 -9.69820881 460.13142776 C-12.11061975 456.51281136 -11.97946779 453.89386579 -11.95547771 449.71440601 C-11.95898379 448.94899796 -11.96248986 448.18358991 -11.96610218 447.39498767 C-11.97546656 444.80922501 -11.97047999 442.22368509 -11.96563435 439.63791275 C-11.96936807 437.77376271 -11.97396847 435.90961424 -11.97936499 434.04546827 C-11.99164468 428.90643959 -11.9913287 423.76747575 -11.98897624 418.62843573 C-11.98856933 413.09256262 -11.99959512 407.55671066 -12.00909138 402.02084732 C-12.02572916 391.16929413 -12.03120216 380.31776267 -12.03231613 369.4661978 C-12.03326522 360.64955639 -12.0373685 351.83292217 -12.04371738 343.01628304 C-12.05846791 322.10813487 -12.07076632 301.1999906 -12.06972027 280.29183674 C-12.06968911 279.62288282 -12.06965795 278.95392891 -12.06962585 278.26470366 C-12.06945963 274.87398772 -12.06926155 271.48327177 -12.06905644 268.09255583 C-12.06901655 267.41911891 -12.06897666 266.74568199 -12.06893556 266.05183789 C-12.06885468 264.68998417 -12.06877109 263.32813045 -12.06868477 261.96627674 C-12.06745892 240.77203208 -12.08247741 219.57785138 -12.1098299 198.38362503 C-12.14053032 174.58530002 -12.15773831 150.7870167 -12.15590346 126.98866647 C-12.1552383 114.38281789 -12.16078566 101.77704144 -12.18225956 89.17120934 C-12.20042209 78.44015685 -12.20485934 67.70920921 -12.19124071 56.97814805 C-12.18468631 51.49921232 -12.18468261 46.02047801 -12.20194721 40.54156113 C-12.21757408 35.53101904 -12.21492152 30.5208398 -12.19737895 25.51030713 C-12.19428601 23.69270486 -12.19802675 21.87507619 -12.2090991 20.05750502 C-12.2231072 17.59598739 -12.21272447 15.1357626 -12.19598675 12.67429066 C-12.20592311 11.96049211 -12.21585947 11.24669357 -12.22609693 10.51126477 C-12.17697048 7.11888746 -11.92578637 5.41903857 -9.79209769 2.72249883 C-6.32652671 0.08913573 -4.31997347 0.00508125 0 0 Z " fill="#FED8B2" transform="translate(53.698208808898926,24.868572235107422)"/>
<path d="M0 0 C1.22008705 -0.00384115 2.44017411 -0.00768229 3.6972335 -0.01163983 C5.06349176 -0.0108595 6.42974997 -0.0099807 7.79600811 -0.00901413 C9.2378517 -0.01159631 10.67969456 -0.01460905 12.12153643 -0.01801753 C16.09791908 -0.02610813 20.0742837 -0.02787824 24.0506736 -0.028615 C28.33366929 -0.03046198 32.61665555 -0.03800751 36.89964581 -0.04475021 C46.27146374 -0.05834868 55.64327741 -0.06436061 65.01510358 -0.06876087 C70.86358847 -0.07152074 76.71207169 -0.07575762 82.56055546 -0.08026505 C98.74370024 -0.09245969 114.9268437 -0.10275862 131.10999298 -0.10614014 C132.14632887 -0.1063597 133.18266475 -0.10657927 134.25040476 -0.10680549 C135.28926306 -0.10702377 136.32812136 -0.10724204 137.39846021 -0.10746694 C139.50368838 -0.10791041 141.60891654 -0.10835697 143.71414471 -0.10880661 C144.75841732 -0.10902804 145.80268994 -0.10924947 146.87860718 -0.10947761 C163.80448834 -0.11342671 180.73032649 -0.13088326 197.65619103 -0.15416613 C215.02118077 -0.17786084 232.3861489 -0.19034113 249.75115508 -0.19150805 C259.50602668 -0.19242588 269.26084224 -0.19820506 279.01569843 -0.21632767 C287.32139878 -0.23170331 295.62702576 -0.23686416 303.93273763 -0.22858956 C308.1723091 -0.22467403 312.41173271 -0.22565648 316.65128613 -0.23964691 C320.53065798 -0.25233195 324.40977005 -0.25123618 328.28914126 -0.2390562 C329.694278 -0.23708979 331.09943281 -0.24022096 332.50454412 -0.24890056 C334.41168585 -0.25993755 336.31891276 -0.25074414 338.22605896 -0.24050903 C339.28629314 -0.24110612 340.34652732 -0.24170321 341.4388898 -0.24231839 C344.74643555 0.18947521 346.62356106 1.17428548 349.30179119 3.13142776 C351.9934079 7.51894412 351.60825079 12.42858227 351.62063885 17.41975784 C351.63068447 18.34707718 351.64073009 19.27439651 351.65108013 20.22981644 C351.68190571 23.28685781 351.69894566 26.34381163 351.71585369 29.40095901 C351.73456583 31.52374398 351.75413927 33.64652151 351.77453899 35.76929092 C351.82586129 41.35052991 351.86548661 46.93179301 351.9026823 52.51314163 C351.94272124 58.21083416 351.99381412 63.90842636 352.04397869 69.60603714 C352.1407392 80.78109687 352.22514369 91.95621325 352.30179119 103.13142776 C352.89057049 102.10843582 352.89057049 102.10843582 353.49124432 101.06477737 C354.01653728 100.16767044 354.54183025 99.27056351 355.08304119 98.34627151 C355.59931072 97.45802689 356.11558025 96.56978226 356.64749432 95.65462112 C360.6666452 89.52446699 366.60701059 85.52717335 373.61429119 83.44392776 C386.09322818 81.99288858 397.32687898 85.97258467 407.27444744 93.65486526 C412.89525212 98.73865039 415.71921546 104.58493467 416.68069744 112.08845901 C417.15985534 124.12923339 410.98160707 134.06957117 405.67679119 144.56892776 C405.11089275 145.70008011 404.54499432 146.83123245 403.96194744 147.99666214 C400.1209431 155.64034594 396.16323367 163.21798075 392.16778851 170.7819252 C387.97960161 178.71986226 383.88173099 186.70278956 379.79733562 194.6945076 C377.64250393 198.9104574 375.48403551 203.12454363 373.32522869 207.33845901 C372.68468044 208.58886726 372.68468044 208.58886726 372.03119183 209.86453629 C366.56073012 220.53688591 361.0345771 231.18024708 355.49661541 241.81770706 C354.90517742 242.96299881 354.90517742 242.96299881 354.30179119 244.13142776 C353.95261387 244.66862222 353.60343655 245.20581667 353.24367809 245.75928974 C351.8568871 249.25191677 352.02124649 252.69700151 352.03677654 256.39935684 C352.03239527 257.2404585 352.028014 258.08156016 352.02349997 258.94814974 C352.01116293 261.77093364 352.01298923 264.59353211 352.01468182 267.41633987 C352.00865871 269.43835094 352.00173475 271.4603595 351.99397564 273.48236465 C351.97907631 277.83887786 351.97033485 282.19534514 351.96626568 286.55188179 C351.95955952 293.4384343 351.93781392 300.32488843 351.91372967 307.21139908 C351.86473084 321.83055228 351.83242801 336.44972629 351.80179119 351.06892776 C351.76872022 366.84694372 351.73282578 382.62492125 351.67766047 398.40287787 C351.65429002 405.25070696 351.64056536 412.09846775 351.63416576 418.94633281 C351.62823377 423.20437166 351.61414308 427.46235504 351.59782124 431.72036552 C351.59193763 433.69686921 351.58947459 435.67338644 351.59066105 437.64989853 C351.59181801 440.34555575 351.58082121 443.04090027 351.56680584 445.73651505 C351.57010481 446.52075771 351.57340379 447.30500037 351.57680273 448.11300796 C351.5417074 452.19614511 351.42606829 455.58617355 349.30179119 459.13142776 C345.52815879 461.89402759 342.86967573 462.50639879 338.23164558 462.50615788 C336.39163024 462.51696769 336.39163024 462.51696769 334.51444286 462.52799588 C333.15632098 462.52081908 331.79820056 462.51336018 330.4400816 462.50564957 C328.99493399 462.5083901 327.54978837 462.51244213 326.1046477 462.51769322 C322.13303792 462.5282898 318.16165288 462.52014485 314.19005287 462.50894272 C309.90712398 462.5001087 305.62422476 462.50854189 301.3412962 462.51480484 C292.95114776 462.52429929 284.56108526 462.51768747 276.17094319 462.5055419 C266.40495966 462.49193047 256.63899666 462.49355898 246.87300605 462.49567523 C229.45138226 462.49886602 212.02979935 462.48719192 194.60818768 462.46760941 C177.69378699 462.44860194 160.77943421 462.44152251 143.86502361 462.44710159 C125.45545073 462.45315586 107.04589893 462.452989 88.6363278 462.44161576 C86.67432185 462.44040844 84.7123159 462.43920246 82.75030994 462.43799782 C81.78490914 462.43739428 80.81950833 462.43679074 79.82485295 462.43616891 C73.01338559 462.43228558 66.20192605 462.43268498 59.39045811 462.43458366 C51.09322205 462.43670314 42.796028 462.43150025 34.49880379 462.41697011 C30.26342251 462.4097138 26.0281025 462.40565962 21.79271603 462.41021347 C17.91848882 462.41427777 14.04438833 462.4091591 10.17018039 462.39658739 C8.76582947 462.39364976 7.36146668 462.39410651 5.95711874 462.39823047 C4.05344674 462.4033148 2.14975285 462.39497351 0.24609566 462.38590336 C-0.81289202 462.38503658 -1.8718797 462.3841698 -2.96295792 462.38327676 C-5.77139456 462.12468917 -7.36566186 461.68992828 -9.69820881 460.13142776 C-12.11061975 456.51281136 -11.97946779 453.89386579 -11.95547771 449.71440601 C-11.95898379 448.94899796 -11.96248986 448.18358991 -11.96610218 447.39498767 C-11.97546656 444.80922501 -11.97047999 442.22368509 -11.96563435 439.63791275 C-11.96936807 437.77376271 -11.97396847 435.90961424 -11.97936499 434.04546827 C-11.99164468 428.90643959 -11.9913287 423.76747575 -11.98897624 418.62843573 C-11.98856933 413.09256262 -11.99959512 407.55671066 -12.00909138 402.02084732 C-12.02572916 391.16929413 -12.03120216 380.31776267 -12.03231613 369.4661978 C-12.03326522 360.64955639 -12.0373685 351.83292217 -12.04371738 343.01628304 C-12.05846791 322.10813487 -12.07076632 301.1999906 -12.06972027 280.29183674 C-12.06968911 279.62288282 -12.06965795 278.95392891 -12.06962585 278.26470366 C-12.06945963 274.87398772 -12.06926155 271.48327177 -12.06905644 268.09255583 C-12.06901655 267.41911891 -12.06897666 266.74568199 -12.06893556 266.05183789 C-12.06885468 264.68998417 -12.06877109 263.32813045 -12.06868477 261.96627674 C-12.06745892 240.77203208 -12.08247741 219.57785138 -12.1098299 198.38362503 C-12.14053032 174.58530002 -12.15773831 150.7870167 -12.15590346 126.98866647 C-12.1552383 114.38281789 -12.16078566 101.77704144 -12.18225956 89.17120934 C-12.20042209 78.44015685 -12.20485934 67.70920921 -12.19124071 56.97814805 C-12.18468631 51.49921232 -12.18468261 46.02047801 -12.20194721 40.54156113 C-12.21757408 35.53101904 -12.21492152 30.5208398 -12.19737895 25.51030713 C-12.19428601 23.69270486 -12.19802675 21.87507619 -12.2090991 20.05750502 C-12.2231072 17.59598739 -12.21272447 15.1357626 -12.19598675 12.67429066 C-12.20592311 11.96049211 -12.21585947 11.24669357 -12.22609693 10.51126477 C-12.17697048 7.11888746 -11.92578637 5.41903857 -9.79209769 2.72249883 C-6.32652671 0.08913573 -4.31997347 0.00508125 0 0 Z M5.30179119 17.13142776 C5.30179119 158.37142776 5.30179119 299.61142776 5.30179119 445.13142776 C113.87179119 445.13142776 222.44179119 445.13142776 334.30179119 445.13142776 C334.30179119 391.01142776 334.30179119 336.89142776 334.30179119 281.13142776 C332.29124804 283.81215197 330.7863511 285.90784606 329.31570721 288.80061722 C328.95386837 289.50762772 328.59202953 290.21463821 328.21922588 290.94307327 C327.8352615 291.70261307 327.45129711 292.46215286 327.05569744 293.24470901 C326.64792568 294.04348465 326.24015392 294.84226028 325.82002544 295.66524124 C324.49800121 298.25639683 323.18109198 300.85011436 321.86429119 303.44392776 C320.05991316 306.98641699 318.25319485 310.5277103 316.44632244 314.06892776 C316.0025526 314.93951324 315.55878277 315.81009872 315.10156536 316.70706558 C312.53396182 321.73870811 309.94456245 326.75766992 307.31350994 331.75642776 C306.75139812 332.82465775 306.18928631 333.89288773 305.6101408 334.99348831 C304.59473082 336.91597455 303.57616677 338.83679923 302.55398846 340.75569534 C302.11498211 341.58738235 301.67597576 342.41906937 301.22366619 343.27595901 C300.84822674 343.9808345 300.47278728 344.68570999 300.08597088 345.41194534 C299.16347739 347.1197344 299.16347739 347.1197344 299.30179119 349.13142776 C298.73975994 349.38279495 298.17772869 349.63416214 297.59866619 349.89314651 C294.952458 351.31975876 292.85834031 353.01344644 290.55179119 354.94392776 C289.09966228 356.14855667 289.09966228 356.14855667 287.61819744 357.37752151 C287.08855389 357.81821976 286.55891033 358.258918 286.01321697 358.71297073 C282.85482908 361.33069308 279.67218811 363.91860415 276.48929119 366.50642776 C275.81446697 367.05516556 275.13964275 367.60390335 274.44436932 368.16926956 C267.79069716 373.56706901 261.07167273 378.88019533 254.30179119 384.13142776 C253.596674 384.7179512 252.89155682 385.30447464 252.16507244 385.90877151 C248.81313073 388.10826367 246.22955285 387.56784573 242.30179119 387.13142776 C240.19631743 385.04377435 239.3822975 383.71535483 238.97586346 380.76741409 C239.00220867 379.90398392 239.02855389 379.04055374 239.05569744 378.15095901 C239.08292889 377.17852249 239.11016033 376.20608597 239.13821697 375.20418167 C239.41172445 370.06632325 239.79727989 364.94485811 240.23929119 359.81892776 C241.02530786 350.32804938 241.6219239 340.85830606 241.87185955 331.33723831 C241.90029949 330.50361771 241.92873943 329.6699971 241.95804119 328.81111526 C241.9767326 328.09681351 241.995424 327.38251175 242.01468182 326.64656448 C242.88145128 319.05348707 245.60562486 313.01380236 249.10647869 306.31502151 C249.58148312 305.39013428 250.05648754 304.46524704 250.54588604 303.51233292 C252.08158648 300.52702956 253.62899255 297.54797367 255.17679119 294.56892776 C256.24299349 292.50206414 257.30850233 290.43484265 258.37332439 288.36726761 C261.33836369 282.61619412 264.31705953 276.87230177 267.30179119 271.13142776 C267.64502422 270.47092422 267.98825726 269.81042068 268.34189129 269.12990189 C270.48735167 265.00253247 272.63827897 260.8780753 274.79983807 256.75911331 C279.65450367 247.49861295 284.41103632 238.18788064 289.17679119 228.88142776 C295.46156707 216.60943521 301.76315033 204.34711592 308.12308025 192.11384964 C311.36272789 185.87977902 314.58727185 179.63830526 317.79788494 173.38924026 C318.1825845 172.6408287 318.56728405 171.89241714 318.96364117 171.12132645 C320.85064991 167.45005179 322.73610141 163.77799256 324.61892986 160.1045723 C325.30741859 158.76453022 325.99597337 157.42452208 326.68460369 156.08455276 C327.28675701 154.91053909 327.88891033 153.73652542 328.50931072 152.52693558 C330.3611769 149.01893302 332.333708 145.57557335 334.30179119 142.13142776 C334.30179119 100.88142776 334.30179119 59.63142776 334.30179119 17.13142776 C225.73179119 17.13142776 117.16179119 17.13142776 5.30179119 17.13142776 Z " fill="#040303" transform="translate(53.698208808898926,24.868572235107422)"/>
<path d="M0 0 C2.56968761 1.29531041 4.71358885 2.54910272 7.05078125 4.171875 C8.02948181 4.82299004 8.02948181 4.82299004 9.0279541 5.48725891 C11.13338933 6.89309679 13.22282997 8.32085837 15.3125 9.75 C16.7532034 10.71942643 18.19485779 11.68744101 19.63745117 12.65405273 C22.47450859 14.55776068 25.30582975 16.46955022 28.1328125 18.38818359 C31.40000612 20.60165331 34.69103923 22.77507228 38 24.92578125 C38.83362061 25.46944336 39.66724121 26.01310547 40.52612305 26.57324219 C42.00184616 27.53447134 43.47972624 28.49240091 44.96020508 29.44628906 C48.31591511 31.6605579 51.01509877 33.48242095 53 37 C53.29023676 39.74150855 53.41025553 42.25384719 53.38818359 44.99389648 C53.39344055 45.79599548 53.39869751 46.59809448 53.40411377 47.42449951 C53.41730759 50.0735629 53.40857718 52.72202434 53.3984375 55.37109375 C53.40045862 57.21428035 53.40337037 59.05746616 53.40713501 60.90065002 C53.41155769 64.76335261 53.40512985 68.62584701 53.39111328 72.48852539 C53.37403343 77.43619354 53.3838553 82.38337305 53.40183067 87.33102322 C53.41268026 91.13747324 53.40921656 94.94380777 53.4014473 98.75026131 C53.39944792 100.57429118 53.40189535 102.39833159 53.40888596 104.22234917 C53.41651844 106.77408417 53.40487083 109.32503246 53.38818359 111.87670898 C53.39425629 112.62855972 53.40032898 113.38041046 53.40658569 114.15504456 C53.35281466 118.60107697 52.75208799 121.46727142 50 125 C47.71090153 126.14454924 46.42102646 126.13271879 43.87612915 126.14717102 C43.01250259 126.15432632 42.14887604 126.16148163 41.25907898 126.16885376 C40.30942764 126.17154266 39.35977631 126.17423157 38.38134766 126.17700195 C37.38286301 126.18357315 36.38437836 126.19014435 35.3556366 126.19691467 C32.04177787 126.21667321 28.72796447 126.22831487 25.4140625 126.23828125 C23.71977175 126.24439454 23.71977175 126.24439454 21.9912529 126.25063133 C16.01500378 126.2715012 10.0387777 126.28579997 4.0625 126.29516602 C-2.12066244 126.30624313 -8.30346625 126.34065571 -14.48650169 126.38033772 C-19.23221523 126.4064368 -23.97784237 126.4148518 -28.72362137 126.41844749 C-31.00344902 126.42332942 -33.2832724 126.43498871 -35.56303024 126.45348549 C-38.74983209 126.47773788 -41.93569343 126.47693735 -45.12255859 126.4699707 C-46.06816147 126.48278076 -47.01376434 126.49559082 -47.98802185 126.50878906 C-51.78900185 126.47842632 -54.26643187 126.42939369 -57.58399963 124.48745728 C-59.59367766 120.95709926 -59.56645367 117.68552179 -59.53344727 113.73071289 C-59.54206284 112.89935318 -59.55067841 112.06799347 -59.55955505 111.21144104 C-59.58224699 108.46486219 -59.57547014 105.71930107 -59.56640625 102.97265625 C-59.57164067 101.06220699 -59.57791649 99.15176033 -59.58518982 97.24131775 C-59.59560017 93.23733358 -59.59102384 89.23370465 -59.57641602 85.22973633 C-59.55923324 80.10021933 -59.58271378 74.97182298 -59.61790562 69.84243107 C-59.63987422 65.89697353 -59.63843935 61.95178431 -59.6301403 58.00628471 C-59.62932037 56.11525685 -59.63619178 54.22420936 -59.65091133 52.3332386 C-59.66834622 49.68768745 -59.65382452 47.04415195 -59.63110352 44.39868164 C-59.64279572 43.61877869 -59.65448792 42.83887573 -59.66653442 42.03533936 C-59.59693855 38.04948672 -59.19326486 36.23731742 -56.64456177 33.10766602 C-53.78042793 30.82500518 -50.87856919 28.76418248 -47.80078125 26.77734375 C-47.21238968 26.39464325 -46.62399811 26.01194275 -46.01777649 25.61764526 C-44.11985515 24.38488291 -42.21654204 23.16078344 -40.3125 21.9375 C-37.69003713 20.24430026 -35.06947561 18.54817352 -32.44921875 16.8515625 C-31.80496948 16.43528091 -31.16072021 16.01899933 -30.49694824 15.59010315 C-26.73094417 13.14938078 -23.01256044 10.65481593 -19.33203125 8.0859375 C-18.11616333 7.24301147 -18.11616333 7.24301147 -16.87573242 6.38305664 C-15.4227498 5.36916823 -13.97815777 4.3430973 -12.54418945 3.30249023 C-11.90312256 2.85848877 -11.26205566 2.4144873 -10.6015625 1.95703125 C-10.06869629 1.57522705 -9.53583008 1.19342285 -8.98681641 0.80004883 C-5.81631945 -0.47664305 -3.38921896 -0.3494109 0 0 Z " fill="#8EC2AB" transform="translate(149,71)"/>
<path d="M0 0 C5.88450103 2.28387082 11.5644288 4.49705985 15 10 C16.46274532 17.35449165 14.11562215 23.0970714 10.625 29.4375 C10.03525391 30.56188477 10.03525391 30.56188477 9.43359375 31.70898438 C8.53932113 33.40810236 7.63541863 35.10216927 6.72460938 36.79248047 C-0.17750645 49.62939973 -6.8677391 62.57740971 -13.50033569 75.55511475 C-15.67594301 79.81154602 -17.85546293 84.06597253 -20.03515625 88.3203125 C-20.46528519 89.15990509 -20.89541412 89.99949768 -21.33857727 90.86453247 C-25.48057996 98.94530306 -29.65825143 107.00724897 -33.8449707 115.06494141 C-38.39523287 123.82501064 -42.91967187 132.59817698 -47.4375 141.375 C-53.38400868 152.92679828 -59.3410279 164.47302189 -65.31811523 176.0090332 C-68.71698636 182.57247952 -72.10073605 189.14331984 -75.46875 195.72265625 C-76.60877321 197.94655181 -77.74905078 200.17031677 -78.8894043 202.39404297 C-79.61605812 203.81284695 -80.34152933 205.2322574 -81.06567383 206.65234375 C-85.45853797 215.26653229 -90.02083679 223.70560879 -95 232 C-97.98164317 230.60941509 -100.95981819 229.21154484 -103.9375 227.8125 C-105.18370117 227.23145508 -105.18370117 227.23145508 -106.45507812 226.63867188 C-112.10404643 223.97904088 -117.58151343 221.10201189 -123 218 C-121.45981884 212.82181356 -119.21457407 208.23840119 -116.73828125 203.46484375 C-116.31582626 202.64222549 -115.89337128 201.81960724 -115.45811462 200.97206116 C-114.0803336 198.29174623 -112.69649475 195.61461094 -111.3125 192.9375 C-110.35153685 191.07114432 -109.39092775 189.20460629 -108.43066406 187.33789062 C-105.62602222 181.88903933 -102.81366656 176.44419506 -100 171 C-99.27190301 169.59004247 -98.5438697 168.18005206 -97.81591797 166.77001953 C-94.77236266 160.8756171 -91.72393432 154.98375468 -88.671875 149.09375 C-84.60152065 141.23588894 -80.55052213 133.36809743 -76.5 125.5 C-70.54741898 113.93833029 -64.5828442 102.38296344 -58.60473633 90.83447266 C-55.35106192 84.54858067 -52.10169704 78.26050633 -48.859375 71.96875 C-47.46882011 69.27079719 -46.07817876 66.57288896 -44.6875 63.875 C-44.34763062 63.21555389 -44.00776123 62.55610779 -43.65759277 61.87667847 C-39.32681906 53.4759694 -34.96469984 45.09333061 -30.52319336 36.75048828 C-28.32780898 32.60349605 -26.2157547 28.42525461 -24.16015625 24.20703125 C-23.67522705 23.21646729 -23.19029785 22.22590332 -22.69067383 21.20532227 C-21.76066168 19.29754442 -20.83927455 17.3855265 -19.9284668 15.46850586 C-15.56744405 6.52737581 -11.180771 -1.87221048 0 0 Z " fill="#FCE9A6" transform="translate(438,125)"/>
<path d="M0 0 C2.56968761 1.29531041 4.71358885 2.54910272 7.05078125 4.171875 C8.02948181 4.82299004 8.02948181 4.82299004 9.0279541 5.48725891 C11.13338933 6.89309679 13.22282997 8.32085837 15.3125 9.75 C16.7532034 10.71942643 18.19485779 11.68744101 19.63745117 12.65405273 C22.47450859 14.55776068 25.30582975 16.46955022 28.1328125 18.38818359 C31.40000612 20.60165331 34.69103923 22.77507228 38 24.92578125 C38.83362061 25.46944336 39.66724121 26.01310547 40.52612305 26.57324219 C42.00184616 27.53447134 43.47972624 28.49240091 44.96020508 29.44628906 C48.31591511 31.6605579 51.01509877 33.48242095 53 37 C53.29023676 39.74150855 53.41025553 42.25384719 53.38818359 44.99389648 C53.39344055 45.79599548 53.39869751 46.59809448 53.40411377 47.42449951 C53.41730759 50.0735629 53.40857718 52.72202434 53.3984375 55.37109375 C53.40045862 57.21428035 53.40337037 59.05746616 53.40713501 60.90065002 C53.41155769 64.76335261 53.40512985 68.62584701 53.39111328 72.48852539 C53.37403343 77.43619354 53.3838553 82.38337305 53.40183067 87.33102322 C53.41268026 91.13747324 53.40921656 94.94380777 53.4014473 98.75026131 C53.39944792 100.57429118 53.40189535 102.39833159 53.40888596 104.22234917 C53.41651844 106.77408417 53.40487083 109.32503246 53.38818359 111.87670898 C53.39425629 112.62855972 53.40032898 113.38041046 53.40658569 114.15504456 C53.35281466 118.60107697 52.75208799 121.46727142 50 125 C47.71090153 126.14454924 46.42102646 126.13271879 43.87612915 126.14717102 C43.01250259 126.15432632 42.14887604 126.16148163 41.25907898 126.16885376 C40.30942764 126.17154266 39.35977631 126.17423157 38.38134766 126.17700195 C37.38286301 126.18357315 36.38437836 126.19014435 35.3556366 126.19691467 C32.04177787 126.21667321 28.72796447 126.22831487 25.4140625 126.23828125 C23.71977175 126.24439454 23.71977175 126.24439454 21.9912529 126.25063133 C16.01500378 126.2715012 10.0387777 126.28579997 4.0625 126.29516602 C-2.12066244 126.30624313 -8.30346625 126.34065571 -14.48650169 126.38033772 C-19.23221523 126.4064368 -23.97784237 126.4148518 -28.72362137 126.41844749 C-31.00344902 126.42332942 -33.2832724 126.43498871 -35.56303024 126.45348549 C-38.74983209 126.47773788 -41.93569343 126.47693735 -45.12255859 126.4699707 C-46.06816147 126.48278076 -47.01376434 126.49559082 -47.98802185 126.50878906 C-51.78900185 126.47842632 -54.26643187 126.42939369 -57.58399963 124.48745728 C-59.59367766 120.95709926 -59.56645367 117.68552179 -59.53344727 113.73071289 C-59.54206284 112.89935318 -59.55067841 112.06799347 -59.55955505 111.21144104 C-59.58224699 108.46486219 -59.57547014 105.71930107 -59.56640625 102.97265625 C-59.57164067 101.06220699 -59.57791649 99.15176033 -59.58518982 97.24131775 C-59.59560017 93.23733358 -59.59102384 89.23370465 -59.57641602 85.22973633 C-59.55923324 80.10021933 -59.58271378 74.97182298 -59.61790562 69.84243107 C-59.63987422 65.89697353 -59.63843935 61.95178431 -59.6301403 58.00628471 C-59.62932037 56.11525685 -59.63619178 54.22420936 -59.65091133 52.3332386 C-59.66834622 49.68768745 -59.65382452 47.04415195 -59.63110352 44.39868164 C-59.64279572 43.61877869 -59.65448792 42.83887573 -59.66653442 42.03533936 C-59.59693855 38.04948672 -59.19326486 36.23731742 -56.64456177 33.10766602 C-53.78042793 30.82500518 -50.87856919 28.76418248 -47.80078125 26.77734375 C-47.21238968 26.39464325 -46.62399811 26.01194275 -46.01777649 25.61764526 C-44.11985515 24.38488291 -42.21654204 23.16078344 -40.3125 21.9375 C-37.69003713 20.24430026 -35.06947561 18.54817352 -32.44921875 16.8515625 C-31.80496948 16.43528091 -31.16072021 16.01899933 -30.49694824 15.59010315 C-26.73094417 13.14938078 -23.01256044 10.65481593 -19.33203125 8.0859375 C-18.11616333 7.24301147 -18.11616333 7.24301147 -16.87573242 6.38305664 C-15.4227498 5.36916823 -13.97815777 4.3430973 -12.54418945 3.30249023 C-11.90312256 2.85848877 -11.26205566 2.4144873 -10.6015625 1.95703125 C-10.06869629 1.57522705 -9.53583008 1.19342285 -8.98681641 0.80004883 C-5.81631945 -0.47664305 -3.38921896 -0.3494109 0 0 Z M-12.3359375 22.70703125 C-13.05230377 23.18822922 -13.76867004 23.66942719 -14.50674438 24.16520691 C-16.80059026 25.70785079 -19.08792695 27.25983686 -21.375 28.8125 C-23.65620614 30.35248266 -25.93870384 31.89052704 -28.22183228 33.42765808 C-29.64233032 34.38497016 -31.06148337 35.34428192 -32.47909546 36.30586243 C-33.12971954 36.74609238 -33.78034363 37.18632233 -34.45068359 37.63989258 C-35.29981827 38.21614128 -35.29981827 38.21614128 -36.16610718 38.80403137 C-38 40 -38 40 -40.68635559 41.24182129 C-43.29539255 42.8248282 -43.29539255 42.8248282 -43.60127258 45.90434265 C-43.59016953 47.08792862 -43.57906647 48.27151459 -43.56762695 49.4909668 C-43.56822963 50.15544484 -43.5688323 50.81992289 -43.56945324 51.50453663 C-43.56572356 53.6536183 -43.5276713 55.8005257 -43.48828125 57.94921875 C-43.48324585 59.26329712 -43.47821045 60.57737549 -43.47302246 61.93127441 C-43.44681934 66.85023751 -43.37701272 71.76889017 -43.3125 76.6875 C-43.209375 87.680625 -43.10625 98.67375 -43 110 C-16.93 110 9.14 110 36 110 C36.433125 99.23375 36.86625 88.4675 37.3125 77.375 C37.50368408 74.00458496 37.69486816 70.63416992 37.8918457 67.16162109 C38.77137193 53.05027639 38.77137193 53.05027639 34.02612305 40.24395752 C29.19506538 35.73456213 23.74543043 32.89508165 17.72583008 30.27407837 C13.29305964 28.20216018 9.38044567 25.4130752 5.375 22.625 C-2.23800075 17.50714431 -4.77005552 17.5385766 -12.3359375 22.70703125 Z " fill="#040504" transform="translate(149,71)"/>
<path d="M0 0 C0.77576482 -0.00623996 1.55152964 -0.01247993 2.35080248 -0.01890898 C4.95272827 -0.03487588 7.55372202 -0.02222067 10.15565491 -0.00964355 C12.02003527 -0.01506309 13.88441135 -0.0221848 15.7487793 -0.03088379 C20.8149388 -0.04914139 25.88077298 -0.0420392 30.94693828 -0.02936745 C36.24573195 -0.01925091 41.54449749 -0.02862952 46.84329224 -0.03491211 C55.74336251 -0.04219307 64.64330009 -0.03258968 73.54335022 -0.0135498 C83.83514101 0.00821308 94.12661476 0.00117356 104.41839784 -0.02085543 C113.25078291 -0.03900458 122.0830725 -0.0415699 130.91547018 -0.03110075 C136.19232572 -0.02486231 141.46903224 -0.02403973 146.74587822 -0.0372467 C151.70768769 -0.04879725 156.66908836 -0.0407939 161.63085365 -0.01766968 C163.45255225 -0.01237806 165.27428521 -0.0139041 167.09597015 -0.02272034 C169.58177937 -0.03364192 172.06627648 -0.01995412 174.55200195 0 C175.27398944 -0.00892289 175.99597693 -0.01784577 176.73984283 -0.02703905 C180.2659238 0.02791189 182.26388956 0.46155669 185.29496098 2.32093048 C187.3394928 4.50793457 187.3394928 4.50793457 187.8394928 8.00793457 C187.32967654 11.57664838 186.90282851 13.03953722 184.3394928 15.50793457 C180.77866258 16.69487798 177.54340294 16.66251764 173.83720398 16.66856384 C173.06637714 16.67365166 172.2955503 16.67873948 171.50136507 16.68398148 C168.91046283 16.69971645 166.3195885 16.70823368 163.72865295 16.7166748 C161.87427594 16.72621219 160.01990072 16.7361033 158.16552734 16.74632263 C152.0698915 16.7777129 145.97424196 16.79797098 139.8785553 16.81652832 C138.32383239 16.8214743 138.32383239 16.8214743 136.73770094 16.8265202 C126.96665965 16.8572944 117.19561531 16.88400653 107.42453957 16.90093899 C94.91775228 16.92286538 82.41139322 16.9648826 69.90477717 17.03437656 C61.11490469 17.08156459 52.32514799 17.10586536 43.53515279 17.11313587 C38.28272069 17.11809884 33.03077124 17.13324161 27.77847672 17.17288017 C22.83877624 17.20966939 17.89983564 17.21818164 12.96002388 17.20487404 C11.14635113 17.20492811 9.33264535 17.2152748 7.51909828 17.23662567 C5.04372549 17.26421246 2.57114257 17.25484425 0.0957489 17.2361908 C-0.62302976 17.25298572 -1.34180842 17.26978065 -2.08236825 17.28708452 C-4.86790197 17.23457684 -7.0364091 17.00927535 -9.24714971 15.23337758 C-11.61761677 12.55444201 -12.65065409 11.00059012 -12.7230072 7.38293457 C-10.29440172 0.81141384 -6.55525697 -0.08076546 0 0 Z " fill="#000000" transform="translate(101.66050720214844,247.4920654296875)"/>
<path d="M0 0 C1.04726599 -0.00913666 1.04726599 -0.00913666 2.11568886 -0.01845789 C4.45490056 -0.0351055 6.79356896 -0.03030977 9.13282776 -0.0255127 C10.81001858 -0.03285201 12.48720434 -0.04143783 14.16438293 -0.05117798 C18.72016626 -0.07341674 23.27576884 -0.0763235 27.831599 -0.07443047 C31.63389702 -0.07431088 35.43615658 -0.08287013 39.23844391 -0.09120798 C48.20798461 -0.11045037 57.17743223 -0.11332275 66.14698792 -0.10656738 C75.40273026 -0.09992482 84.65807426 -0.12279762 93.91373581 -0.15988111 C101.85865054 -0.19055895 109.80343701 -0.20194026 117.74840981 -0.1980443 C122.49436661 -0.1959749 127.24001345 -0.20148541 131.98591423 -0.22593689 C136.44875627 -0.24817008 140.91094977 -0.24635508 145.37379456 -0.22600937 C147.01167363 -0.22259327 148.64959607 -0.22771428 150.28741646 -0.24199295 C152.52391291 -0.26014559 154.75819973 -0.24747008 156.99462891 -0.22705078 C158.24583747 -0.22776329 159.49704603 -0.2284758 160.78617001 -0.2292099 C164.97760925 0.5690044 166.48649255 2.05056025 169.06080627 5.39440918 C169.18580627 8.95690918 169.18580627 8.95690918 168.06080627 12.39440918 C165.34077091 15.17723097 163.6939762 16.29605872 159.82019806 16.89777374 C158.585037 16.89928185 157.34987595 16.90078995 156.07728577 16.90234375 C155.38642112 16.90858371 154.69555648 16.91482368 153.98375654 16.92125273 C151.67510542 16.9371729 149.36751159 16.92458334 147.05885315 16.9119873 C145.40121852 16.9174089 143.74358871 16.92453176 142.08596802 16.93322754 C137.58801772 16.95145954 133.0904345 16.94439393 128.5924778 16.9317112 C123.88492978 16.92158288 119.17741315 16.93097641 114.46986389 16.93725586 C106.56441099 16.94453275 98.65910757 16.93494346 90.75367737 16.91589355 C81.61439964 16.89412472 72.47547885 16.90117606 63.33620977 16.92319918 C55.48893094 16.94135198 47.64175954 16.94391209 39.7944665 16.9334445 C35.10783188 16.92720891 30.42136504 16.92637574 25.73474121 16.93959045 C21.32856478 16.9511466 16.92284846 16.94312769 12.51672173 16.92001343 C10.89981793 16.91472505 9.2828754 16.91624235 7.66598701 16.92506409 C5.45824452 16.93599883 3.25197543 16.92228347 1.04432678 16.90234375 C-0.19083427 16.90083565 -1.42599533 16.89932755 -2.69858551 16.89777374 C-6.54520717 16.30027695 -8.21490619 15.12684123 -10.93919373 12.39440918 C-11.56809998 10.14050293 -11.56809998 10.14050293 -11.50169373 7.83190918 C-11.50298279 7.06749512 -11.50427185 6.30308105 -11.50559998 5.51550293 C-10.00962521 -0.08666465 -4.97615922 0.01483387 0 0 Z " fill="#070605" transform="translate(100.93919372558594,357.6055908203125)"/>
<path d="M0 0 C0.69817732 -0.00694553 1.39635465 -0.01389106 2.11568886 -0.02104706 C4.45506016 -0.03934286 6.79342027 -0.02904636 9.13282776 -0.01878357 C10.81002055 -0.0258408 12.48720696 -0.034585 14.16438293 -0.04489136 C18.72022573 -0.06741769 23.27572167 -0.06443804 27.831599 -0.05556989 C31.63390469 -0.05046422 35.43614496 -0.05774916 39.23844391 -0.06504196 C48.2080166 -0.08205141 57.17741922 -0.07846477 66.14698792 -0.06175232 C75.4027449 -0.04482971 84.65803033 -0.06066502 93.91373581 -0.0929752 C101.85866267 -0.11965971 109.80344263 -0.1269502 117.74840981 -0.11846012 C122.49435105 -0.11352757 127.24000853 -0.11576411 131.98591423 -0.13624763 C136.44877953 -0.15458691 140.91096588 -0.14866786 145.37379456 -0.12404823 C147.01166507 -0.11903471 148.64958715 -0.12254421 150.28741646 -0.13519669 C152.52393639 -0.15110726 154.75821502 -0.13619959 156.99462891 -0.11352539 C158.87144175 -0.11264593 158.87144175 -0.11264593 160.78617001 -0.1117487 C164.97608845 0.68975004 166.48665991 2.17155612 169.06080627 5.5146637 C169.18580627 9.0771637 169.18580627 9.0771637 168.06080627 12.5146637 C165.34077091 15.29748549 163.6939762 16.41631324 159.82019806 17.01802826 C158.585037 17.01953636 157.34987595 17.02104446 156.07728577 17.02259827 C155.38642112 17.02883823 154.69555648 17.03507819 153.98375654 17.04150724 C151.67510542 17.05742742 149.36751159 17.04483785 147.05885315 17.03224182 C145.40121852 17.03766341 143.74358871 17.04478628 142.08596802 17.05348206 C137.58801772 17.07171406 133.0904345 17.06464845 128.5924778 17.05196571 C123.88492978 17.0418374 119.17741315 17.05123093 114.46986389 17.05751038 C106.56441099 17.06478727 98.65910757 17.05519798 90.75367737 17.03614807 C81.61439964 17.01437923 72.47547885 17.02143058 63.33620977 17.04345369 C55.48893094 17.0616065 47.64175954 17.06416661 39.7944665 17.05369902 C35.10783188 17.04746342 30.42136504 17.04663026 25.73474121 17.05984497 C21.32856478 17.07140112 16.92284846 17.06338221 12.51672173 17.04026794 C10.89981793 17.03497957 9.2828754 17.03649687 7.66598701 17.0453186 C5.45824452 17.05625335 3.25197543 17.04253798 1.04432678 17.02259827 C-0.19083427 17.02109016 -1.42599533 17.01958206 -2.69858551 17.01802826 C-6.54063109 16.42124227 -8.20915332 15.23226344 -10.93919373 12.5146637 C-11.56809998 10.5146637 -11.56809998 10.5146637 -11.50169373 8.5146637 C-11.50298279 7.8546637 -11.50427185 7.1946637 -11.50559998 6.5146637 C-9.82290895 0.57302365 -5.52185344 0.01239128 0 0 Z " fill="#030302" transform="translate(100.93919372558594,302.48533630371094)"/>
<path d="M0 0 C1.05583786 -0.0071553 2.11167572 -0.01431061 3.19950867 -0.02168274 C6.68748317 -0.03858293 10.17417486 -0.01915799 13.66210938 0.00219727 C16.08679307 0.0013687 18.51147672 -0.00109022 20.93615723 -0.00511169 C26.01701776 -0.00797062 31.09743769 0.00674165 36.17822266 0.03417969 C42.6919844 0.06826185 49.20495818 0.06224472 55.71875763 0.04351711 C60.7253476 0.03295021 65.73175412 0.0418823 70.73832703 0.05690193 C73.14010575 0.06208642 75.5419036 0.06159873 77.94367981 0.05535698 C81.30011207 0.04990879 84.65541513 0.07026902 88.01171875 0.09765625 C89.00511765 0.09113037 89.99851654 0.08460449 91.02201843 0.07788086 C95.32039543 0.13753955 97.8555513 0.25344556 101.63049316 2.44569397 C103.50585938 4.63110352 103.50585938 4.63110352 104.00585938 8.13110352 C103.49604312 11.69981733 103.06919509 13.16270616 100.50585938 15.63110352 C97.70398207 16.56506262 95.97786296 16.76448036 93.0786438 16.78500366 C92.17301697 16.79360413 91.26739014 16.80220459 90.33432007 16.81106567 C88.84746201 16.8174556 88.84746201 16.8174556 87.33056641 16.82397461 C86.28477417 16.8321521 85.23898193 16.84032959 84.16149902 16.84875488 C80.69556249 16.87359883 77.22966681 16.89012033 73.76367188 16.90454102 C72.58114712 16.90986469 71.39862236 16.91518837 70.18026352 16.92067337 C63.92405597 16.94739759 57.66786835 16.96677691 51.41162109 16.98120117 C44.94265883 16.99786852 38.47420408 17.0426665 32.00543404 17.09357262 C27.03664547 17.12718261 22.06797847 17.13877165 17.09908676 17.14442825 C14.71400945 17.15115543 12.32894055 17.16641523 9.94397354 17.19031906 C6.60887118 17.22184492 3.27515289 17.22202599 -0.06005859 17.21459961 C-1.04724884 17.23100494 -2.03443909 17.24741028 -3.05154419 17.26431274 C-7.69260976 17.22194685 -9.80744945 17.14924707 -13.60720825 14.28213501 C-15.49414062 11.63110352 -15.49414062 11.63110352 -16.11914062 8.63110352 C-14.28458929 -0.1747429 -7.46979067 -0.08791864 0 0 Z " fill="#020201" transform="translate(257.494140625,89.368896484375)"/>
<path d="M0 0 C1.03647675 -0.00554901 2.07295349 -0.01109802 3.14083862 -0.01681519 C6.55847761 -0.02860238 9.97478821 -0.00434574 13.39233398 0.02148438 C15.77074625 0.02319565 18.14916041 0.02312963 20.52757263 0.0213623 C25.50831179 0.02301499 30.48860056 0.04170576 35.46923828 0.07324219 C41.85396895 0.11294063 48.23811034 0.11728448 54.62294102 0.10977936 C59.53258158 0.10671032 64.44208962 0.11882758 69.35169792 0.13591003 C71.70602525 0.14294139 74.0603676 0.1460644 76.41470528 0.1452179 C79.70382989 0.14701513 82.99224758 0.16839099 86.28125 0.1953125 C87.25437637 0.1923819 88.22750275 0.18945129 89.2301178 0.18643188 C94.12638648 0.24828007 97.64497978 0.34042896 101.57592773 3.61523438 C103.12179649 6.70697189 102.86952295 9.2095299 102.57592773 12.61523438 C101.21765137 14.80845642 101.21765137 14.80845642 98.57592773 16.61523438 C95.0543714 17.22554071 91.56244444 17.17156174 87.99584961 17.14868164 C86.38064171 17.161605 86.38064171 17.161605 84.73280334 17.17478943 C81.16985101 17.19751094 77.6076812 17.19069911 74.04467773 17.18164062 C71.57132736 17.18687322 69.09797899 17.19314836 66.62463379 17.20042419 C61.4395204 17.21083972 56.25468126 17.20624978 51.06958008 17.19165039 C44.41764154 17.17445614 37.76690492 17.19795992 31.11501312 17.23313999 C26.0072454 17.25507614 20.89968546 17.25368167 15.79188538 17.24537468 C13.3390254 17.24455319 10.88615047 17.25145417 8.43333435 17.26614571 C5.00701456 17.28352185 1.58226192 17.26910515 -1.84399414 17.24633789 C-3.36989418 17.26387619 -3.36989418 17.26387619 -4.92662048 17.2817688 C-11.78457321 17.18882537 -11.78457321 17.18882537 -15.04626465 14.26329041 C-16.76876853 10.95275072 -17.18952628 9.28941363 -16.42407227 5.61523438 C-11.41210895 0.05435135 -7.24361642 -0.0989328 0 0 Z " fill="#040303" transform="translate(258.424072265625,180.384765625)"/>
<path d="M0 0 C1.07680527 -0.0071553 2.15361053 -0.01431061 3.26304626 -0.02168274 C6.82618497 -0.03860592 10.38807199 -0.0191445 13.95117188 0.00219727 C16.42452092 0.00136891 18.89786991 -0.00108921 21.37121582 -0.00511169 C26.55640216 -0.0079722 31.74115715 0.00675702 36.92626953 0.03417969 C43.57813401 0.0682626 50.22888464 0.06224662 56.88083649 0.04351711 C61.98861133 0.03295663 67.09620614 0.04187644 72.20396423 0.05690193 C74.65680914 0.06209115 77.10967279 0.06159302 79.56251526 0.05535698 C82.98870374 0.04991654 86.41378173 0.07024417 89.83984375 0.09765625 C90.85711044 0.09113037 91.87437714 0.08460449 92.92247009 0.07788086 C99.75301819 0.1709686 99.75301819 0.1709686 103.04992676 2.44569397 C105.0772202 5.67962261 104.95309259 7.8989085 104.41992188 11.63110352 C102.55283683 13.99607791 101.09930757 15.29141067 98.41992188 16.63110352 C96.99960518 16.73127043 95.57474777 16.77048083 94.15092468 16.77827454 C93.25508667 16.78542984 92.35924866 16.79258514 91.43626404 16.79995728 C90.45078079 16.80264618 89.46529755 16.80533508 88.44995117 16.80810547 C87.41405853 16.81467667 86.37816589 16.82124786 85.31088257 16.82801819 C81.87196791 16.84778033 78.43309697 16.85941982 74.99414062 16.86938477 C73.82173136 16.87346029 72.64932209 16.87753582 71.44138527 16.88173485 C65.23704834 16.90260725 59.03273361 16.91690436 52.82836914 16.92626953 C46.41214232 16.9373411 39.99626162 16.97174667 33.58015728 17.01144123 C28.65340011 17.03755502 23.72672608 17.04595669 18.79990578 17.04955101 C16.43438184 17.0544299 14.06886194 17.06608065 11.70340538 17.084589 C8.39468126 17.1088701 5.08686164 17.10803533 1.77807617 17.10107422 C0.79866562 17.11388428 -0.18074493 17.12669434 -1.18983459 17.13989258 C-5.45550484 17.10713783 -7.92578139 17.01644886 -11.66105652 14.8165741 C-14.35138153 11.75270752 -14.65103012 9.67536711 -14.58007812 5.63110352 C-11.33587355 -0.85225453 -6.45033682 -0.0741385 0 0 Z " fill="#060504" transform="translate(256.580078125,135.368896484375)"/>
<path d="M0 0 C4.6029598 1.72497507 8.93255824 3.9095871 13.3125 6.125 C14.05306641 6.49753906 14.79363281 6.87007813 15.55664062 7.25390625 C17.37201217 8.16744806 19.18613282 9.08347487 21 10 C17.31354424 13.78292376 13.46948868 17.2772449 9.4375 20.6875 C8.59155273 21.41549805 8.59155273 21.41549805 7.72851562 22.15820312 C4.96022252 24.50558617 2.36478296 26.5932081 -1 28 C-1.10731538 18.60394198 -0.99263429 9.35912329 0 0 Z " fill="#F9E5A4" transform="translate(311,359)"/>
</svg>
