<svg width="40" height="40" viewBox="0 0 40 40" fill="none" xmlns="http://www.w3.org/2000/svg">
<g clip-path="url(#clip0_267_3112)">
<path d="M16.8528 23.8242L20.7562 26.0778L12.8297 39.8069L10.5547 34.733L16.8528 23.8242Z" fill="#AA75CB"/>
<path d="M16.8532 23.824L12.9499 21.5704L5.02344 35.2995L10.5551 34.7328L16.8532 23.824Z" fill="#73488D"/>
<path d="M22.4219 23.8242L18.5186 26.0778L26.445 39.8069L28.7199 34.733L22.4219 23.8242Z" fill="#73488D"/>
<path d="M22.4219 23.824L26.3252 21.5704L34.2516 35.2995L28.7199 34.7328L22.4219 23.824Z" fill="#AA75CB"/>
<path d="M19.6309 27.8096C27.0528 27.8096 33.0694 21.793 33.0694 14.3711C33.0694 6.94924 27.0528 0.932617 19.6309 0.932617C12.209 0.932617 6.19238 6.94924 6.19238 14.3711C6.19238 21.793 12.209 27.8096 19.6309 27.8096Z" fill="#DC9E42"/>
<path d="M19.6315 24.8596C25.4249 24.8596 30.1214 20.1631 30.1214 14.3697C30.1214 8.57624 25.4249 3.87975 19.6315 3.87975C13.8381 3.87975 9.1416 8.57624 9.1416 14.3697C9.1416 20.1631 13.8381 24.8596 19.6315 24.8596Z" fill="#734C12"/>
<mask id="mask0_267_3112" style="mask-type:alpha" maskUnits="userSpaceOnUse" x="9" y="4" width="22" height="23">
<path d="M20.1911 26.0072C25.998 26.0072 30.7054 21.2998 30.7054 15.4928C30.7054 9.68594 25.998 4.97852 20.1911 4.97852C14.3842 4.97852 9.67676 9.68594 9.67676 15.4928C9.67676 21.2998 14.3842 26.0072 20.1911 26.0072Z" fill="#C28B37"/>
</mask>
<g mask="url(#mask0_267_3112)">
<path d="M19.6305 24.8861C25.4374 24.8861 30.1449 20.1787 30.1449 14.3718C30.1449 8.56485 25.4374 3.85742 19.6305 3.85742C13.8236 3.85742 9.11621 8.56485 9.11621 14.3718C9.11621 20.1787 13.8236 24.8861 19.6305 24.8861Z" fill="#A36D1D"/>
</g>
<path d="M19.6881 7.05643L21.9561 11.5926L26.4923 12.1596L23.3774 15.6525L24.2243 20.665L19.6881 18.3969L15.1519 20.665L16.0062 15.6525L12.8838 12.1596L17.42 11.5926L19.6881 7.05643Z" fill="url(#paint0_linear_267_3112)"/>
</g>
<defs>
<linearGradient id="paint0_linear_267_3112" x1="19.6881" y1="7.05643" x2="19.6881" y2="20.665" gradientUnits="userSpaceOnUse">
<stop stop-color="#FCFF80"/>
<stop offset="0.401042" stop-color="#FDE870"/>
<stop offset="1" stop-color="#FFC759"/>
</linearGradient>
<clipPath id="clip0_267_3112">
<rect width="38.874" height="38.874" fill="white" transform="translate(0.771484 0.932617)"/>
</clipPath>
</defs>
</svg>
