<svg width="500" height="500" viewBox="0 0 500 500" fill="none" xmlns="http://www.w3.org/2000/svg">
<path d="M99.2399 400.06C113.08 388.73 114.87 369.69 112.91 352.87C112.58 350.06 112.65 347.07 111.09 344.71C109.53 342.35 106.23 340.92 103.77 342.32C101.77 343.48 101.01 345.99 99.9899 348.1C98.6186 350.935 96.4769 353.326 93.8099 355C92.0699 356.08 89.8699 356.83 87.9899 356C85.4199 354.86 84.8599 351.53 84.6499 348.73C84.2499 343.51 83.8566 338.287 83.4699 333.06C83.4041 330.245 82.8841 327.459 81.9299 324.81C80.8299 322.23 78.6799 319.92 75.9299 319.4C73.1799 318.88 69.9299 320.68 69.6099 323.47C69.597 324.64 69.6639 325.81 69.8099 326.97C69.8667 327.551 69.7532 328.135 69.4833 328.652C69.2133 329.168 68.7986 329.595 68.2899 329.88C67.1899 330.3 65.9899 329.6 65.0699 328.88C61.9099 326.3 59.6199 322.82 57.4699 319.35C55.3199 315.88 53.2099 312.35 50.2999 309.45C47.3899 306.55 43.5099 304.45 39.4299 304.55C35.3499 304.65 31.2199 307.5 30.5199 311.55C29.8199 315.6 32.4699 319.4 35.2699 322.38C39.4402 326.782 44.2226 330.561 49.4699 333.6C50.4755 334.049 51.3125 334.805 51.8599 335.76C52.6299 337.58 50.9899 339.58 49.1799 340.35C47.1199 341.22 44.7999 341.19 42.6099 341.63C40.4199 342.07 38.0999 343.23 37.4299 345.36C36.5099 348.36 39.1799 351.12 41.7199 352.89C46.8387 356.435 52.5231 359.082 58.5299 360.72C60.6799 361.3 62.9299 361.78 64.7299 363.09C66.5299 364.4 67.7299 366.83 66.8999 368.89C66.0699 370.95 63.4899 371.79 61.2699 371.57C59.0499 371.35 56.9999 370.34 54.8499 369.74C50.8499 368.61 45.8499 369.29 43.5899 372.82C42.9216 374.024 42.5454 375.368 42.4915 376.743C42.4377 378.119 42.7077 379.488 43.2799 380.74C44.4439 383.231 46.0967 385.461 48.1399 387.3C54.9465 394.136 63.4406 399.049 72.7599 401.54C82.0599 403.89 90.5099 404.04 99.2399 400.06Z" fill="#EBEBEB"/>
<path d="M100.45 412.55C99.0128 404.793 96.8259 397.194 93.9203 389.86C90.3299 380.901 86.2196 372.16 81.6103 363.68L78.0003 357C76.8203 354.8 75.6503 352.62 74.3703 350.56C71.9173 346.611 69.2465 342.802 66.3703 339.15C63.6403 335.64 60.9103 332.4 58.3703 329.4C55.8303 326.4 53.3703 323.65 51.0003 321.23C47.3125 317.404 43.3303 313.873 39.0903 310.67C37.5903 309.53 36.3903 308.67 35.5803 308.13L34.6503 307.49C34.5441 307.417 34.4339 307.351 34.3203 307.29C34.3203 307.29 34.4203 307.38 34.6203 307.53L35.5303 308.2C36.3303 308.78 37.5303 309.64 38.9903 310.8C43.1818 314.046 47.1229 317.602 50.7803 321.44C53.1103 323.86 55.5503 326.62 58.1103 329.63C60.6703 332.64 63.3703 335.88 66.1103 339.39C68.9855 343.036 71.6563 346.838 74.1103 350.78C75.3803 352.83 76.5403 355 77.7203 357.2L81.3003 363.89C85.8712 372.358 89.9643 381.075 93.5603 390C96.4693 397.308 98.6792 404.875 100.16 412.6" fill="#E0E0E0"/>
<path d="M74.29 350.51C74.3839 350.11 74.4375 349.701 74.45 349.29C74.53 348.51 74.61 347.36 74.69 345.95C74.86 343.13 74.96 339.23 75.06 334.95C75.16 330.67 75.32 326.75 75.55 323.95C75.65 322.54 75.76 321.41 75.84 320.62C75.8983 320.216 75.925 319.809 75.92 319.4C75.7964 319.791 75.7126 320.193 75.67 320.6C75.54 321.38 75.39 322.52 75.25 323.92C74.94 326.74 74.73 330.64 74.63 334.92C74.53 339.2 74.46 343.05 74.4 345.92C74.35 347.27 74.32 348.4 74.29 349.26C74.2497 349.676 74.2497 350.095 74.29 350.51Z" fill="#E0E0E0"/>
<path d="M37.2598 346.79H37.6398H38.7298C39.6698 346.79 41.0298 346.79 42.7298 346.84C46.0998 346.91 50.7298 347.17 55.8798 347.7C61.0298 348.23 65.6098 348.91 68.9298 349.5C70.5898 349.79 71.9298 350.05 72.8598 350.23L73.9198 350.44C74.1698 350.44 74.2998 350.5 74.2998 350.44C74.1872 350.381 74.0656 350.34 73.9398 350.32L72.8898 350.03C71.9798 349.8 70.6398 349.49 68.9798 349.17C65.6698 348.5 61.0498 347.77 55.9198 347.23C50.7898 346.69 46.1198 346.49 42.7298 346.5C41.0398 346.5 39.7298 346.5 38.7298 346.59L37.6498 346.66C37.5137 346.683 37.3821 346.727 37.2598 346.79Z" fill="#E0E0E0"/>
<path d="M93.46 389.22C93.5386 389.069 93.6055 388.912 93.66 388.75C93.8 388.4 93.96 387.95 94.17 387.4C94.61 386.22 95.17 384.49 95.91 382.4C97.32 378.13 99.09 372.17 100.97 365.56C102.85 358.95 104.56 352.99 105.9 348.7C106.57 346.6 107.11 344.88 107.51 343.62C107.69 343.06 107.83 342.62 107.94 342.24C108.001 342.082 108.045 341.918 108.07 341.75C107.981 341.894 107.91 342.048 107.86 342.21C107.73 342.57 107.56 343.02 107.35 343.57C106.91 344.75 106.35 346.47 105.62 348.57C104.2 352.84 102.43 358.8 100.56 365.41C98.69 372.02 97 378 95.62 382.27C94.96 384.37 94.41 386.09 94.02 387.34C93.84 387.91 93.7 388.34 93.58 388.73C93.5241 388.889 93.4839 389.053 93.46 389.22Z" fill="#E0E0E0"/>
<path d="M43.7197 377.79C43.8746 377.864 44.0398 377.915 44.2097 377.94L45.6597 378.28L50.9997 379.5C55.4997 380.5 61.6997 382.03 68.5497 383.71C75.3997 385.39 81.6097 386.85 86.1297 387.81C88.3897 388.29 90.2197 388.66 91.4897 388.89L92.9497 389.15C93.1206 389.189 93.2946 389.213 93.4697 389.22C93.3108 389.147 93.1425 389.097 92.9697 389.07L91.5197 388.73L86.1897 387.51C81.6897 386.51 75.4897 384.98 68.6497 383.3C61.8097 381.62 55.5897 380.16 51.0697 379.2C48.8097 378.72 46.9797 378.35 45.7097 378.12L44.2397 377.85C44.0683 377.816 43.8944 377.796 43.7197 377.79Z" fill="#E0E0E0"/>
<path d="M230.61 114.314L158.31 136.061L172.967 184.794L245.268 163.048L230.61 114.314Z" fill="white"/>
<path d="M245.28 163C245.28 163 245.17 162.69 244.99 162.11C244.81 161.53 244.54 160.65 244.19 159.53C243.5 157.27 242.48 153.96 241.19 149.74C238.61 141.27 234.92 129.12 230.42 114.33L230.68 114.47L158.4 136.3L158.58 135.97L173.22 184.71L172.92 184.55L225 169L239.91 164.59L243.91 163.42L244.91 163.12L245.27 163.03L244.95 163.14L243.95 163.46L240.03 164.66L225.21 169.19L173.05 185L172.82 185.07L172.75 184.84C168.28 169.99 163.3 153.48 158.07 136.11L158 135.86L158.24 135.79L230.55 114.09L230.75 114.03L230.81 114.23C235.24 129.1 238.87 141.31 241.41 149.82C242.65 154.04 243.63 157.34 244.29 159.61C244.62 160.71 244.86 161.56 245.04 162.16C245.22 162.76 245.28 163 245.28 163Z" fill="#E0E0E0"/>
<path d="M230.62 114.301C230.594 114.377 230.56 114.451 230.52 114.521L230.18 115.141C229.85 115.711 229.4 116.501 228.84 117.501L223.79 126.171L206.85 154.901L206.73 155.091L206.53 155.011L204.32 154.161L171.75 141.451L161.9 137.551L159.24 136.461L158.55 136.171C158.468 136.143 158.39 136.103 158.32 136.051C158.407 136.058 158.492 136.082 158.57 136.121L159.27 136.361L161.98 137.361L171.88 141.111L204.5 153.671L206.72 154.531L206.4 154.641C213.1 143.391 219.12 133.311 223.48 125.981L228.67 117.401C229.27 116.401 229.75 115.651 230.09 115.081L230.48 114.491C230.56 114.361 230.61 114.291 230.62 114.301Z" fill="#E0E0E0"/>
<path d="M441 309C441 309 436.31 304.36 427.17 315.95C422.379 321.817 417.979 327.994 414 334.44C414 334.44 411.72 336.8 410.22 334.66C408.72 332.52 407.17 327 403.83 327.28C400.49 327.56 398.57 331 398.12 336.49C397.67 341.98 396.26 353.99 396.12 355.07C395.98 356.15 395.12 357.56 393.83 356.27C392.54 354.98 386.05 344 381 347.38C375.95 350.76 377.23 366.3 377.34 367.99C377.45 369.68 376.99 370.32 376.15 370.56C375.31 370.8 373.46 366.9 371.47 363.85C369.48 360.8 366.65 357.59 363.91 359.8C361.17 362.01 358.26 372.88 365.18 392.85L368.99 401.85L378.74 403.24C399.81 404.93 409.61 399.4 411.06 396.19C412.51 392.98 408.71 391.04 405.25 389.88C401.79 388.72 397.55 387.88 397.58 387.03C397.61 386.18 398.1 385.56 399.77 385.24C401.44 384.92 416.77 382.24 418.77 376.53C420.77 370.82 408.52 367.24 406.95 366.34C405.38 365.44 406.54 364.21 407.54 363.82C408.54 363.43 419.82 359.04 425.03 357.24C430.24 355.44 433.11 352.82 432.52 349.4C431.93 345.98 426.22 345.99 423.77 345.06C421.32 344.13 423.04 341.35 423.04 341.35C428.308 335.898 433.209 330.102 437.71 324C446.64 312.24 440.82 308.81 440.82 308.81" fill="#EBEBEB"/>
<path d="M432.76 319.32C432.716 319.409 432.662 319.492 432.6 319.57L432.09 320.29C431.61 320.93 430.94 321.84 430.09 323C428.34 325.35 425.79 328.73 422.61 332.89C416.26 341.21 407.38 352.63 397.52 365.19L372.3 397.4L364.69 407.19L362.61 409.84L362.06 410.52C361.93 410.67 361.87 410.75 361.86 410.74C361.905 410.652 361.959 410.568 362.02 410.49L362.53 409.78L364.53 407.06C366.27 404.71 368.83 401.33 372 397.17C378.35 388.85 387.24 377.43 397.11 364.87C406.98 352.31 415.85 340.93 422.32 332.66C425.51 328.55 428.11 325.22 429.93 322.88C430.81 321.75 431.51 320.88 432 320.22L432.56 319.54C432.68 319.39 432.75 319.31 432.76 319.32Z" fill="#E0E0E0"/>
<path d="M405.69 335.09C405.908 335.947 406.032 336.826 406.06 337.71C406.21 339.33 406.34 341.58 406.43 344.07C406.52 346.56 406.56 348.62 406.61 350.43C406.684 351.308 406.684 352.191 406.61 353.07C406.393 352.213 406.273 351.334 406.25 350.45C406.12 348.82 406.01 346.57 405.92 344.09C405.83 341.61 405.77 339.54 405.7 337.73C405.62 336.852 405.617 335.968 405.69 335.09Z" fill="#E0E0E0"/>
<path d="M407.45 353.42C410.872 352.868 414.32 352.491 417.78 352.29C423.49 351.82 428.14 351.55 428.15 351.69C424.728 352.237 421.28 352.611 417.82 352.81C412.11 353.29 407.47 353.56 407.45 353.42Z" fill="#E0E0E0"/>
<path d="M390.86 372.7C391.757 372.769 392.647 372.913 393.52 373.13C395.16 373.44 397.41 373.87 399.91 374.27C402.41 374.67 404.68 374.97 406.33 375.18C407.23 375.252 408.123 375.396 409 375.61C408.101 375.687 407.196 375.667 406.3 375.55C404.63 375.43 402.3 375.19 399.83 374.78C397.36 374.37 395.06 373.89 393.44 373.49C392.555 373.32 391.69 373.055 390.86 372.7Z" fill="#E0E0E0"/>
<path d="M385.62 356.48C386.035 357.205 386.371 357.973 386.62 358.77C387.15 360.22 387.86 362.22 388.62 364.44C389.38 366.66 390.02 368.68 390.47 370.16C390.752 370.943 390.959 371.749 391.09 372.57C390.669 371.845 390.333 371.073 390.09 370.27C389.55 368.83 388.85 366.83 388.09 364.61C387.33 362.39 386.69 360.36 386.24 358.89C385.946 358.112 385.739 357.304 385.62 356.48Z" fill="#E0E0E0"/>
<path d="M368.81 371.641C369.291 372.591 369.699 373.578 370.03 374.591C370.72 376.441 371.64 379.001 372.63 381.841C373.62 384.681 374.48 387.261 375.09 389.131C375.466 390.131 375.757 391.161 375.96 392.211C375.47 391.246 375.062 390.243 374.74 389.211C374.05 387.371 373.13 384.811 372.14 381.971C371.15 379.131 370.28 376.551 369.68 374.671C369.305 373.687 369.014 372.673 368.81 371.641Z" fill="#E0E0E0"/>
<path d="M375.93 391.67C377.069 391.735 378.202 391.882 379.32 392.11C381.4 392.44 384.32 392.89 387.47 393.31C390.62 393.73 393.55 394.05 395.64 394.31C396.778 394.385 397.911 394.535 399.03 394.76C397.889 394.829 396.745 394.802 395.61 394.68C393.5 394.54 390.61 394.28 387.4 393.85C384.19 393.42 381.32 392.92 379.25 392.51C378.122 392.321 377.012 392.04 375.93 391.67Z" fill="#E0E0E0"/>
<path d="M396.86 210.612L394.49 288.166L451.164 289.898L453.533 212.344L396.86 210.612Z" fill="#F5F5F5"/>
<path d="M386.426 220.923L384.057 298.477L440.73 300.208L443.1 222.654L386.426 220.923Z" fill="white"/>
<path d="M440.72 300.19C440.713 300.064 440.713 299.937 440.72 299.81C440.72 299.55 440.72 299.19 440.72 298.72C440.72 297.72 440.77 296.32 440.82 294.48C440.92 290.77 441.06 285.38 441.24 278.55C441.63 264.9 442.18 245.55 442.83 222.64L443.06 222.88L386.39 221.17L386.66 220.92C385.75 249.92 384.92 276.71 384.24 298.47L384.03 298.25L425.19 299.62L436.64 300.02L439.64 300.14L440.69 300.19H439.69L436.69 300.12L425.29 299.83L384 298.68H383.79V298.47C384.44 276.7 385.24 249.88 386.11 220.91V220.65H386.38L443.04 222.41H443.28V222.65C442.53 245.65 441.9 265.03 441.45 278.71C441.22 285.51 441.03 290.89 440.91 294.58C440.84 296.4 440.79 297.8 440.75 298.77C440.75 299.23 440.75 299.59 440.7 299.84C440.65 300.09 440.72 300.19 440.72 300.19Z" fill="#E0E0E0"/>
<path d="M421 238.86C421 239.01 414.83 238.93 407.23 238.7C399.63 238.47 393.46 238.16 393.46 238.02C393.46 237.88 399.64 237.95 407.24 238.18C414.84 238.41 421 238.72 421 238.86Z" fill="#E0E0E0"/>
<path d="M435.64 246.06C435.64 246.2 426.14 246.06 414.42 245.67C402.7 245.28 393.2 244.9 393.21 244.76C393.22 244.62 402.71 244.76 414.44 245.15C426.17 245.54 435.65 245.91 435.64 246.06Z" fill="#E0E0E0"/>
<path d="M435.43 253.09C435.43 253.23 425.92 253.09 414.2 252.7C402.48 252.31 392.99 251.93 392.99 251.79C392.99 251.65 402.5 251.79 414.22 252.18C425.94 252.57 435.43 252.94 435.43 253.09Z" fill="#E0E0E0"/>
<path d="M435.21 260.121C435.21 260.261 425.71 260.121 413.99 259.731C402.27 259.341 392.78 258.961 392.78 258.821C392.78 258.681 402.29 258.821 414.01 259.211C425.73 259.601 435.22 260.001 435.21 260.121Z" fill="#E0E0E0"/>
<path d="M435 267.15C435 267.29 425.49 267.15 413.78 266.76C402.07 266.37 392.56 265.99 392.56 265.85C392.56 265.71 402.07 265.85 413.79 266.24C425.51 266.63 435 267 435 267.15Z" fill="#E0E0E0"/>
<path d="M434.79 274.18C434.79 274.32 425.28 274.18 413.56 273.79C401.84 273.4 392.35 273.02 392.35 272.88C392.35 272.74 401.86 272.88 413.58 273.27C425.3 273.66 434.79 274 434.79 274.18Z" fill="#E0E0E0"/>
<path d="M434.57 281.21C434.57 281.35 425.06 281.21 413.35 280.82C401.64 280.43 392.13 280.05 392.14 279.91C392.15 279.77 401.64 279.91 413.36 280.3C425.08 280.69 434.58 281.06 434.57 281.21Z" fill="#E0E0E0"/>
<path d="M414.73 287.64C414.73 287.78 409.62 287.74 403.32 287.55C397.02 287.36 391.92 287.08 391.92 286.94C391.92 286.8 397.03 286.84 403.33 287.03C409.63 287.22 414.73 287.49 414.73 287.64Z" fill="#E0E0E0"/>
<path d="M272.854 149.967L255.12 194.507L310.827 216.687L328.56 172.147L272.854 149.967Z" fill="white"/>
<path d="M328.549 172.15L328.279 172.05L327.499 171.75L324.499 170.55L313.07 166L272.809 150L272.929 149.95L255.21 194.48L255.149 194.34L310.85 216.54H310.739C316.099 203.12 320.549 192 323.649 184.23C325.209 180.35 326.43 177.3 327.26 175.23L328.26 172.86L328.589 172.04L328.279 172.85C328.069 173.39 327.76 174.18 327.35 175.21C326.53 177.29 325.35 180.34 323.79 184.21C320.7 191.99 316.269 203.14 310.939 216.59V216.67H310.859L255.079 194.6H254.979V194.5C261.389 178.42 267.439 163.22 272.719 149.97V149.88H272.799L313.16 166L324.529 170.56L327.529 171.76L328.299 172.07L328.549 172.15Z" fill="#E0E0E0"/>
<path d="M273.615 153.585L258.116 192.513L309.912 213.135L325.411 174.207L273.615 153.585Z" fill="#EBEBEB"/>
<path d="M258.32 192.63L286.05 175.63L291.23 195.23L302.05 190.17L310.12 213.25L258.32 192.63Z" fill="#E0E0E0"/>
<path d="M303.19 179.001C302.868 179.808 302.315 180.501 301.6 180.994C300.884 181.486 300.039 181.755 299.17 181.767C298.302 181.779 297.449 181.533 296.721 181.06C295.992 180.587 295.42 179.909 295.078 179.111C294.735 178.313 294.636 177.431 294.794 176.577C294.952 175.723 295.361 174.935 295.967 174.313C296.573 173.691 297.35 173.263 298.199 173.083C299.049 172.903 299.933 172.978 300.74 173.301C301.275 173.513 301.764 173.83 302.177 174.231C302.59 174.633 302.92 175.113 303.148 175.642C303.375 176.172 303.496 176.741 303.503 177.317C303.511 177.894 303.404 178.466 303.19 179.001Z" fill="#E0E0E0"/>
<path d="M129.45 240.861C129.826 241.016 130.234 241.081 130.64 241.051C131.126 240.995 131.579 240.772 131.92 240.421C132.315 239.873 132.667 239.294 132.97 238.691L139.46 227.371L141.62 223.631L142.77 221.631C142.97 221.312 143.144 220.977 143.29 220.631C143.395 220.285 143.395 219.916 143.29 219.571C143.2 219.215 143 218.897 142.72 218.661C142.399 218.434 142.065 218.227 141.72 218.041L139.49 216.801L134.85 214.201L114.19 202.611C113.782 202.393 113.308 202.333 112.86 202.444C112.411 202.555 112.019 202.828 111.76 203.211L110.21 205.871C109.21 207.631 108.21 209.381 107.21 211.091L101.41 221.001C101.18 221.391 100.95 221.781 100.73 222.171C100.507 222.508 100.392 222.906 100.4 223.311C100.416 223.705 100.559 224.085 100.81 224.391C101.094 224.685 101.434 224.919 101.81 225.081L106.18 227.561L114 232.001L125.32 238.471L128.39 240.251L129.18 240.721C129.36 240.831 129.45 240.891 129.44 240.901L129.16 240.771L128.34 240.341L125.23 238.641L113.82 232.321L106 227.891L101.62 225.441C101.195 225.253 100.812 224.985 100.49 224.651C100.177 224.264 99.9984 223.787 99.9798 223.291C99.9583 222.796 100.091 222.307 100.36 221.891C100.58 221.501 100.81 221.111 101.04 220.721L106.77 210.831L109.77 205.611L111.34 202.921C111.671 202.43 112.172 202.079 112.747 201.937C113.321 201.795 113.928 201.871 114.45 202.151L135.09 213.781L139.73 216.401L141.94 217.661C142.321 217.855 142.689 218.075 143.04 218.321C143.388 218.618 143.636 219.016 143.75 219.461C143.87 219.886 143.87 220.336 143.75 220.761C143.59 221.139 143.4 221.504 143.18 221.851L142.01 223.851L139.83 227.581C137.04 232.301 134.78 236.131 133.2 238.821C132.872 239.425 132.497 240.004 132.08 240.551C131.708 240.915 131.219 241.138 130.7 241.181C130.386 241.204 130.07 241.152 129.78 241.031C129.662 240.989 129.551 240.932 129.45 240.861Z" fill="#E0E0E0"/>
<path d="M124.17 220.36L126.69 224.83L121.49 224.93L116.29 225.02L118.97 220.45L121.65 215.88L124.17 220.36Z" fill="#E0E0E0"/>
<path d="M463.3 411C463.3 411.15 367.65 411.27 249.7 411.27C131.75 411.27 36.0703 411.17 36.0703 411C36.0703 410.83 131.7 410.72 249.7 410.72C367.7 410.72 463.3 410.87 463.3 411Z" fill="#263238"/>
<path d="M141.81 347.49L111.62 317.16L126.8 289.28C141.98 269.84 174.12 271.09 174.12 271.09C189.976 270.012 205.905 270.991 221.51 274C247.04 279 244.98 295.86 244.98 295.86L248.4 358.43L252.07 409.38L157.92 411.28L141.81 347.53" fill="#455A64"/>
<path d="M192.53 408.3L108.2 409.3C103.555 409.354 98.9717 408.226 94.8816 406.023C90.7915 403.82 87.3286 400.613 84.8181 396.703C82.3076 392.794 80.832 388.311 80.5297 383.675C80.2275 379.039 81.1087 374.402 83.0904 370.2L119.15 303.33L152 325.53L129.59 372L197.85 373.22L192.53 408.3Z" fill="#455A64"/>
<path d="M242 285.66L309.67 390.14L270.19 392.72C270.19 392.72 246.61 355.57 247.14 356.33C248.08 357.73 242 285.66 242 285.66Z" fill="#455A64"/>
<path d="M150.3 331.54C150.303 331.357 150.333 331.175 150.39 331C150.49 330.6 150.6 330.1 150.75 329.48C151.06 328.17 151.52 326.27 151.99 323.91C152.46 321.55 152.99 318.71 153.32 315.55C153.727 312.126 153.727 308.665 153.32 305.24C152.778 301.845 151.593 298.583 149.83 295.63C148.414 293.2 146.737 290.93 144.83 288.86C143.545 287.446 142.176 286.11 140.73 284.86C140.179 284.429 139.652 283.969 139.15 283.48C139.313 283.561 139.467 283.658 139.61 283.77C139.89 283.98 140.34 284.27 140.86 284.7C142.364 285.888 143.781 287.181 145.1 288.57C147.071 290.624 148.803 292.895 150.26 295.34C152.085 298.339 153.308 301.664 153.86 305.13C154.256 308.598 154.229 312.1 153.78 315.56C153.443 318.376 152.962 321.173 152.34 323.94C151.82 326.31 151.34 328.2 150.93 329.5C150.75 330.15 150.59 330.65 150.48 330.99C150.438 331.179 150.378 331.363 150.3 331.54Z" fill="#263238"/>
<path d="M147.581 335.141C147.436 335.661 147.242 336.167 147.001 336.651C146.601 337.651 146.001 338.991 145.231 340.651C143.701 344.041 141.531 348.701 139.031 353.801C136.531 358.901 134.171 363.471 132.421 366.801C131.541 368.441 130.821 369.801 130.311 370.671C130.067 371.155 129.786 371.62 129.471 372.061C129.65 371.55 129.871 371.055 130.131 370.581C130.641 369.581 131.301 368.241 132.131 366.631L138.601 353.631C141.051 348.561 143.281 343.981 144.941 340.551C145.721 338.941 146.361 337.601 146.861 336.551C147.061 336.061 147.302 335.59 147.581 335.141Z" fill="#263238"/>
<path d="M192.53 408.301C192.53 408.301 192.53 408.241 192.53 408.131C192.53 408.021 192.53 407.821 192.53 407.611C192.58 407.131 192.65 406.461 192.73 405.611C192.93 403.831 193.21 401.301 193.56 398.111C194.3 391.641 195.36 382.541 196.56 371.811L196.8 372.071H171.89L128.38 372.001L115.18 371.921L111.59 371.871H110.65H110.33C110.436 371.858 110.544 371.858 110.65 371.871H111.59L115.18 371.821L128.38 371.741L171.96 371.671H196.87H197.14V371.931C195.82 382.651 194.71 391.751 193.91 398.211C193.51 401.391 193.18 403.921 192.91 405.701C192.803 406.541 192.713 407.208 192.64 407.701L192.56 408.211C192.55 408.241 192.54 408.301 192.53 408.301Z" fill="#263238"/>
<path d="M130.18 372.74C129.576 372.073 129.015 371.368 128.5 370.63C125.805 367.247 122.468 364.429 118.68 362.34C117.871 361.948 117.084 361.514 116.32 361.04C117.208 361.248 118.06 361.585 118.85 362.04C122.795 363.989 126.207 366.868 128.79 370.43C129.358 371.132 129.826 371.91 130.18 372.74Z" fill="#263238"/>
<path d="M249.8 379.361C249.727 379.075 249.68 378.784 249.66 378.491C249.59 377.881 249.5 377.051 249.38 376.001C249.15 373.841 248.84 370.711 248.51 366.841C247.82 359.091 247.03 348.371 246.33 336.531C245.63 324.691 245.14 313.951 244.86 306.181C244.72 302.291 244.62 299.181 244.58 296.971C244.58 295.921 244.58 295.091 244.53 294.471C244.515 294.181 244.515 293.89 244.53 293.601C244.585 293.887 244.615 294.179 244.62 294.471C244.62 295.081 244.7 295.921 244.76 296.971C244.87 299.191 245.02 302.321 245.21 306.161C245.58 313.931 246.13 324.651 246.83 336.501C247.53 348.351 248.27 359.051 248.83 366.811C249.13 370.641 249.37 373.811 249.54 375.991C249.62 376.991 249.68 377.871 249.73 378.481C249.78 378.771 249.803 379.066 249.8 379.361Z" fill="#263238"/>
<path d="M291.741 375.341C291.383 375.069 291.049 374.768 290.741 374.441L288.001 371.801L278.591 362.581L279.011 362.411C278.931 364.871 278.851 367.531 278.761 370.301C278.671 373.071 278.561 375.821 278.471 378.301V378.881L278.061 378.471L268.901 369.121L266.281 366.391C265.955 366.081 265.655 365.747 265.381 365.391C265.737 365.664 266.071 365.965 266.381 366.291L269.101 368.921L278.401 378.141L277.971 378.311C278.051 375.811 278.141 373.111 278.231 370.311C278.321 367.511 278.431 364.881 278.521 362.421V361.851L278.921 362.251L288.191 371.611L290.841 374.351C291.168 374.655 291.469 374.986 291.741 375.341Z" fill="#E0E0E0"/>
<path d="M195.361 384.57C195.361 384.57 212.181 379.72 217.751 378.3C219.921 377.75 229.211 382.65 235.631 386.73C235.631 386.73 244.471 391.97 243.761 393.58C242.971 395.36 239.761 395 234.511 392.58C234.511 392.58 236.331 397.85 232.761 397.73C232.761 397.73 234.531 403.43 231.191 404.02C227.851 404.61 227.071 397.34 224.131 396.95C221.191 396.56 215.131 396.16 215.131 396.16C215.131 396.16 210.061 404.56 206.131 405.16C202.201 405.76 193.131 404.69 193.131 404.69L195.361 384.57Z" fill="#FFBE9D"/>
<path d="M224.07 385.73C225.717 386.464 227.291 387.351 228.77 388.38C230.34 389.269 231.821 390.307 233.19 391.48C229.969 389.867 226.915 387.941 224.07 385.73Z" fill="#EB996E"/>
<path d="M223.08 389C225.001 389.605 226.868 390.371 228.66 391.29C230.513 392.043 232.299 392.949 234 394C232.078 393.402 230.211 392.639 228.42 391.72C226.564 390.971 224.777 390.061 223.08 389Z" fill="#EB996E"/>
<path d="M224.881 396.811C227.421 396.801 229.951 397.138 232.401 397.811C229.861 397.818 227.331 397.481 224.881 396.811Z" fill="#EB996E"/>
<path d="M173.47 211C173.668 211.648 173.671 212.34 173.479 212.99C173.286 213.64 172.906 214.218 172.387 214.653C171.867 215.088 171.231 215.361 170.558 215.437C169.885 215.513 169.204 215.389 168.6 215.08C166.32 213.93 166.03 210.78 166.48 208.27C166.93 205.76 167.78 203.07 166.73 200.74C165.92 198.96 164.17 197.83 162.81 196.43C161.61 195.214 160.709 193.735 160.176 192.111C159.643 190.487 159.494 188.762 159.74 187.07C160.029 185.384 160.777 183.81 161.903 182.522C163.028 181.234 164.488 180.282 166.12 179.77C169.47 178.84 173.6 179.87 176.12 177.44C177.93 175.68 178.04 172.81 179.44 170.71C181.61 167.45 186.2 166.93 190.08 167.46C193.96 167.99 197.9 169.24 201.7 168.29C204.87 167.5 207.47 165.29 210.45 163.93C213.698 162.446 217.329 162.013 220.835 162.693C224.34 163.374 227.546 165.132 230.003 167.724C232.46 170.315 234.046 173.61 234.538 177.147C235.031 180.684 234.406 184.286 232.75 187.45C231.647 189.766 229.768 191.623 227.44 192.7" fill="#263238"/>
<path d="M192.77 293.611C195.32 293.606 197.844 293.094 200.195 292.107C202.546 291.119 204.678 289.675 206.467 287.857C208.255 286.04 209.666 283.885 210.615 281.519C211.565 279.152 212.036 276.62 212 274.071L211.75 255.691C211.75 255.691 227.19 254.141 228.21 238.841C229.23 223.541 228.5 188.231 228.5 188.231C220.005 184.016 210.539 182.143 201.078 182.806C191.618 183.469 182.505 186.643 174.68 192.001L172.32 193.631L173.47 274.571C173.531 279.647 175.592 284.494 179.206 288.059C182.819 291.624 187.694 293.619 192.77 293.611Z" fill="#FFBE9D"/>
<path d="M224.46 216C223.902 215.936 223.386 215.669 223.012 215.249C222.638 214.83 222.432 214.287 222.432 213.725C222.432 213.163 222.638 212.621 223.012 212.201C223.386 211.782 223.902 211.515 224.46 211.45C224.581 211.42 224.708 211.42 224.83 211.45C225.388 211.515 225.904 211.782 226.278 212.201C226.652 212.621 226.858 213.163 226.858 213.725C226.858 214.287 226.652 214.83 226.278 215.249C225.904 215.669 225.388 215.936 224.83 216C224.707 216.02 224.583 216.02 224.46 216Z" fill="#263238"/>
<path d="M227.46 211.06C227.21 211.32 225.77 210.06 223.66 209.95C221.55 209.84 219.96 210.83 219.75 210.55C219.54 210.27 219.9 209.96 220.6 209.49C221.535 208.89 222.639 208.606 223.748 208.679C224.856 208.753 225.912 209.181 226.76 209.9C227.39 210.46 227.59 211 227.46 211.06Z" fill="#263238"/>
<path d="M203.071 211.58C203.433 211.831 203.714 212.184 203.876 212.595C204.038 213.005 204.074 213.455 203.981 213.886C203.887 214.317 203.668 214.711 203.351 215.018C203.033 215.324 202.632 215.53 202.198 215.608C201.763 215.687 201.316 215.634 200.911 215.458C200.507 215.282 200.163 214.99 199.925 214.619C199.686 214.247 199.564 213.814 199.572 213.372C199.58 212.931 199.719 212.502 199.971 212.14C200.308 211.655 200.824 211.324 201.405 211.219C201.986 211.114 202.585 211.244 203.071 211.58Z" fill="#263238"/>
<path d="M204.461 211.67C204.201 211.93 202.761 210.67 200.661 210.56C198.561 210.45 196.961 211.44 196.741 211.16C196.631 211.03 196.901 210.57 197.591 210.1C198.526 209.5 199.629 209.216 200.738 209.29C201.847 209.364 202.903 209.791 203.751 210.51C204.381 211.07 204.581 211.56 204.461 211.67Z" fill="#263238"/>
<path d="M212 229.53C212 229.37 213.31 229.17 215.45 228.99C216 228.99 216.45 228.86 216.5 228.57C216.541 228.019 216.434 227.467 216.19 226.97C215.72 225.54 215.25 224.1 214.75 222.59C212.75 216.36 211.44 211.23 211.75 211.13C212.06 211.03 213.92 216 215.89 222.23C216.35 223.75 216.8 225.23 217.23 226.63C217.548 227.358 217.611 228.172 217.41 228.94C217.321 229.148 217.184 229.331 217.01 229.476C216.836 229.62 216.631 229.721 216.41 229.77C216.099 229.84 215.779 229.864 215.46 229.84C213.3 229.8 212 229.7 212 229.53Z" fill="#263238"/>
<path d="M205 231.49C208.215 233.14 211.64 234.341 215.18 235.06C214.404 236.127 213.29 236.899 212.019 237.251C210.748 237.603 209.395 237.515 208.18 237C203.67 235.07 205 231.49 205 231.49Z" fill="white"/>
<path d="M211.81 255.47C204.731 255.218 197.888 252.864 192.15 248.71C192.15 248.71 196.27 259.98 211.62 259.44L211.81 255.47Z" fill="#EB996E"/>
<path d="M228.631 192.1C228.631 192.1 219.381 196.8 207.131 190.98C199.131 187.16 189.761 185.39 187.741 187.04C185.721 188.69 185.451 196.89 177.611 199.44C177.611 199.44 178.461 215.1 172.201 214.66C165.941 214.22 169.381 189.89 169.381 189.89L184.511 182.13L201.121 178.66L216.871 180.57L229.091 183.66L228.631 192.1Z" fill="#263238"/>
<path d="M173.341 209.63C173.091 209.5 162.991 205.94 162.761 216.43C162.531 226.92 173.101 224.99 173.121 224.69C173.141 224.39 173.341 209.63 173.341 209.63Z" fill="#FFBE9D"/>
<path d="M170 220.641C170 220.641 169.81 220.771 169.5 220.901C169.061 221.079 168.57 221.079 168.13 220.901C167.03 220.471 166.13 218.691 166.13 216.801C166.129 215.9 166.324 215.009 166.7 214.191C166.808 213.866 166.992 213.572 167.238 213.333C167.483 213.095 167.783 212.919 168.11 212.821C168.322 212.782 168.54 212.813 168.733 212.909C168.926 213.004 169.083 213.159 169.18 213.351C169.31 213.641 169.24 213.851 169.29 213.871C169.34 213.891 169.52 213.701 169.45 213.271C169.395 213.009 169.255 212.773 169.05 212.601C168.767 212.378 168.409 212.274 168.05 212.311C167.617 212.386 167.211 212.57 166.869 212.847C166.528 213.123 166.263 213.483 166.1 213.891C165.639 214.791 165.399 215.789 165.4 216.801C165.4 218.911 166.46 220.921 167.96 221.391C168.241 221.477 168.537 221.499 168.827 221.458C169.117 221.416 169.395 221.312 169.64 221.151C170 220.901 170 220.661 170 220.641Z" fill="#EB996E"/>
<path d="M168 176.801C169.197 176.45 170.475 176.496 171.643 176.932C172.811 177.368 173.806 178.171 174.48 179.221C173.548 178.515 172.542 177.911 171.48 177.421C170.345 177.094 169.178 176.886 168 176.801Z" fill="#263238"/>
<path d="M174.31 170.521C174.5 170.521 174.21 172.731 174.57 175.351C174.881 176.926 175.374 178.459 176.04 179.921C176.04 179.921 175.6 179.551 175.16 178.771C174.595 177.732 174.223 176.601 174.06 175.43C173.769 173.796 173.854 172.117 174.31 170.521Z" fill="#263238"/>
<path d="M217.401 206C217.341 205.88 217.791 205.51 218.641 205.17C220.897 204.297 223.402 204.322 225.641 205.24C226.481 205.6 226.931 205.97 226.871 206.09C226.741 206.37 224.721 205.58 222.131 205.58C219.541 205.58 217.521 206.31 217.401 206Z" fill="#263238"/>
<path d="M194 203.82C193.94 203.7 194.39 203.34 195.24 202.99C196.359 202.558 197.551 202.344 198.75 202.36C199.955 202.36 201.148 202.598 202.26 203.06C203.1 203.42 203.54 203.79 203.49 203.92C203.44 204.05 201.34 203.41 198.74 203.4C196.14 203.39 194.14 204.1 194 203.82Z" fill="#263238"/>
<path d="M215.59 207.68C215.613 207.887 215.613 208.094 215.59 208.3C215.59 208.74 215.59 209.3 215.64 209.99C215.69 210.68 215.64 211.61 215.7 212.61C215.663 213.765 215.832 214.916 216.2 216.01C216.682 217.43 217.517 218.704 218.626 219.713C219.735 220.722 221.082 221.434 222.54 221.78C223.377 221.985 224.241 222.059 225.1 222C225.994 221.96 226.876 221.775 227.71 221.45C229.489 220.784 231.005 219.56 232.03 217.96C233.001 216.433 233.489 214.649 233.43 212.84C233.43 211.05 233.43 209.33 233.43 207.68L233.67 207.92L220.67 207.8L216.9 207.73H215.9H215.53C215.958 207.683 216.389 207.663 216.82 207.67L220.53 207.6L233.67 207.48H234V207.73C234 209.38 234 211.1 234 212.89C234.067 214.798 233.555 216.68 232.53 218.29C231.443 219.984 229.836 221.278 227.95 221.98C227.064 222.321 226.128 222.513 225.18 222.55C224.276 222.604 223.369 222.52 222.49 222.3C220.96 221.931 219.552 221.174 218.399 220.102C217.247 219.03 216.39 217.679 215.91 216.18C215.551 215.037 215.402 213.837 215.47 212.64C215.47 211.64 215.47 210.71 215.52 209.95C215.57 209.19 215.52 208.72 215.57 208.28C215.561 208.08 215.568 207.88 215.59 207.68Z" fill="#263238"/>
<path d="M191.08 207.16C191.08 207.16 191.08 207.39 191.08 207.78V209.47C191.08 210.21 191.08 211.09 191.13 212.1C191.104 213.254 191.273 214.403 191.63 215.5C192.091 216.817 192.847 218.011 193.84 218.99C194.987 220.105 196.414 220.89 197.97 221.26C199.691 221.675 201.496 221.56 203.15 220.93C204.924 220.265 206.435 219.044 207.46 217.45C208.434 215.924 208.926 214.14 208.87 212.33C208.87 210.54 208.87 208.81 208.87 207.16L209.11 207.4L196.11 207.28L192.35 207.22H191.35H190.98C191.405 207.173 191.833 207.153 192.26 207.16L195.97 207.1L209.11 206.98H209.35V207.22C209.35 208.87 209.35 210.6 209.35 212.39C209.41 214.298 208.895 216.18 207.87 217.79C206.783 219.478 205.18 220.768 203.3 221.47C202.414 221.81 201.478 222.002 200.53 222.04C199.623 222.094 198.712 222.01 197.83 221.79C196.196 221.388 194.702 220.548 193.51 219.36C192.479 218.324 191.704 217.06 191.25 215.67C190.891 214.527 190.742 213.327 190.81 212.13C190.81 211.13 190.81 210.2 190.87 209.44C190.93 208.68 190.87 208.21 190.87 207.77C190.907 207.557 190.977 207.351 191.08 207.16Z" fill="#263238"/>
<path d="M215.81 208.411C213.523 208.758 211.197 208.758 208.91 208.411C211.196 208.051 213.524 208.051 215.81 208.411Z" fill="#263238"/>
<path d="M172 208.541C175.179 208.276 178.37 208.179 181.56 208.251C184.752 208.16 187.946 208.237 191.13 208.481C187.951 208.758 184.76 208.855 181.57 208.771C178.378 208.873 175.183 208.796 172 208.541Z" fill="#263238"/>
<path d="M274.87 397.251C277.117 401.421 280.521 404.854 284.672 407.137C288.823 409.42 293.545 410.456 298.27 410.121C303.853 409.73 309.136 407.447 313.246 403.649C317.357 399.851 320.05 394.765 320.88 389.231L326.68 322.841L303.45 317.101L293.96 369.101C293.96 369.101 289 390.891 274.87 397.251Z" fill="#FFBE9D"/>
<path d="M303.24 321.91L304.01 310.26C304.01 310.26 307.3 284.12 307.3 281.56C307.3 278.62 308.71 277.9 309.8 277.98C311.49 278.09 312.69 280.18 312.8 282.71C312.8 283.58 312.72 297.4 312.72 297.4C313.519 296.094 314.412 294.848 315.39 293.67C317.39 291.08 322.23 289.6 327.16 289.76C332.09 289.92 333.44 290.4 333.47 292.31C333.453 292.675 333.354 293.032 333.181 293.354C333.008 293.676 332.765 293.955 332.47 294.17C331.56 294.929 330.404 295.327 329.22 295.29C321.33 295.15 319.22 299.36 319.22 299.36L319.12 300.89C319.12 300.89 323.91 297.46 327.73 298.89C328.295 299.099 328.811 299.419 329.25 299.83C330.326 299.835 331.382 300.12 332.313 300.658C333.244 301.197 334.019 301.969 334.559 302.899C335.1 303.829 335.388 304.884 335.395 305.959C335.403 307.035 335.128 308.093 334.6 309.03C334.395 309.511 334.047 309.917 333.603 310.194C333.16 310.472 332.642 310.606 332.12 310.58C331.591 310.422 331.112 310.129 330.73 309.73C330.506 309.54 330.269 309.367 330.02 309.21L329.14 313.44C329.14 313.44 326.65 322.84 326.03 327.06" fill="#FFBE9D"/>
<path d="M305.51 321C306.95 321.4 308.44 320.34 309.22 319.06C310 317.78 310.33 316.27 311.01 314.93C313.07 310.93 318.01 309.03 319.9 304.93C320.16 304.36 320.3 303.58 319.8 303.2C319.3 302.82 318.68 303.13 318.17 303.41L305.17 310.61" fill="#FFBE9D"/>
<path d="M305.16 310.59C305.565 310.231 306.011 309.922 306.49 309.67C307.37 309.12 308.66 308.36 310.26 307.43L315.91 304.2L317.54 303.28C318.148 302.8 318.921 302.58 319.69 302.67C319.928 302.747 320.136 302.894 320.288 303.093C320.44 303.291 320.528 303.531 320.54 303.78C320.566 304.191 320.494 304.602 320.33 304.98C320.029 305.647 319.654 306.278 319.21 306.86C317.41 309.2 315.08 310.67 313.4 312.38C312.583 313.154 311.889 314.048 311.34 315.03C310.85 315.95 310.54 316.91 310.16 317.78C309.927 318.506 309.537 319.173 309.019 319.732C308.501 320.292 307.866 320.731 307.16 321.02C306.09 321.34 305.49 321.02 305.53 320.96C306.048 320.976 306.564 320.891 307.05 320.71C307.676 320.391 308.228 319.945 308.672 319.401C309.116 318.857 309.442 318.227 309.63 317.55C309.95 316.581 310.321 315.63 310.74 314.7C311.292 313.635 312.011 312.666 312.87 311.83C314.59 310.03 316.87 308.52 318.55 306.35C318.946 305.826 319.281 305.259 319.55 304.66C319.8 304.09 319.76 303.52 319.44 303.46C319.12 303.4 318.49 303.67 317.94 303.98L316.28 304.88L310.55 308C308.91 308.87 307.55 309.55 306.65 310C306.184 310.266 305.682 310.465 305.16 310.59Z" fill="#EB996E"/>
<path d="M318.94 301C319.028 300.054 319.34 299.142 319.85 298.34C320.442 297.517 321.284 296.907 322.25 296.6C323.46 296.202 324.726 296 326 296C327.308 296.013 328.614 295.899 329.9 295.66C330.977 295.44 331.978 294.94 332.8 294.21C333.073 293.958 333.285 293.647 333.421 293.3C333.556 292.954 333.61 292.581 333.58 292.21C333.565 291.938 333.475 291.674 333.32 291.45C333.27 291.45 333.32 291.74 333.37 292.22C333.365 292.555 333.288 292.886 333.143 293.188C332.998 293.49 332.789 293.757 332.53 293.97C331.73 294.599 330.79 295.025 329.79 295.21C328.531 295.417 327.256 295.511 325.98 295.49C324.658 295.476 323.344 295.682 322.09 296.1C321.041 296.465 320.144 297.169 319.54 298.1C319.148 298.727 318.921 299.442 318.88 300.18C318.823 300.454 318.844 300.738 318.94 301Z" fill="#EB996E"/>
<path d="M312.731 281.73C312.646 282.645 312.646 283.566 312.731 284.48C312.731 286.36 312.731 288.61 312.801 291.09C312.871 293.57 312.801 295.82 312.801 297.7C312.741 298.617 312.761 299.537 312.861 300.45C313.079 299.554 313.19 298.634 313.191 297.71C313.311 296.02 313.391 293.71 313.381 291.09C313.371 288.47 313.271 286.15 313.151 284.46C313.109 283.538 312.968 282.623 312.731 281.73Z" fill="#EB996E"/>
<path d="M322.061 304.07C322.34 304.003 322.609 303.899 322.861 303.76C323.187 303.594 323.544 303.498 323.91 303.481C324.276 303.464 324.641 303.525 324.981 303.66C325.19 303.774 325.366 303.939 325.492 304.141C325.618 304.342 325.69 304.573 325.701 304.81C325.733 305.407 325.689 306.005 325.571 306.59C325.405 307.326 325.523 308.097 325.901 308.75C326.14 309.086 326.454 309.36 326.819 309.551C327.184 309.742 327.589 309.845 328.001 309.85C328.406 309.847 328.806 309.763 329.177 309.601C329.548 309.44 329.883 309.205 330.161 308.91C330.682 308.387 331.031 307.717 331.161 306.99C331.318 305.814 331.301 304.621 331.111 303.45C331.007 302.658 330.767 301.89 330.401 301.18C330.121 300.68 329.861 300.49 329.841 300.51C329.821 300.53 330.001 300.78 330.211 301.27C330.485 301.989 330.657 302.743 330.721 303.51C330.852 304.638 330.835 305.777 330.671 306.9C330.544 307.536 330.214 308.114 329.73 308.546C329.247 308.979 328.637 309.244 327.991 309.3C327.665 309.298 327.345 309.22 327.055 309.073C326.765 308.925 326.514 308.712 326.321 308.45C326.019 307.902 325.923 307.263 326.051 306.65C326.162 306.02 326.189 305.378 326.131 304.74C326.102 304.436 325.994 304.144 325.819 303.893C325.644 303.643 325.407 303.442 325.131 303.31C324.742 303.162 324.323 303.108 323.909 303.154C323.496 303.199 323.099 303.342 322.751 303.57C322.281 303.85 322.001 304 322.061 304.07Z" fill="#EB996E"/>
<path d="M329.93 308.49C329.86 308.751 329.889 309.029 330.01 309.27C330.151 309.613 330.368 309.92 330.646 310.166C330.923 310.412 331.253 310.592 331.61 310.69C332.149 310.806 332.709 310.78 333.234 310.616C333.76 310.451 334.234 310.153 334.61 309.75C335.512 308.76 335.996 307.459 335.96 306.12C335.96 304.798 335.548 303.508 334.78 302.43C334.154 301.552 333.3 300.86 332.31 300.43C331.661 300.138 330.962 299.971 330.25 299.94C329.75 299.94 329.48 299.94 329.48 300.02C330.403 300.139 331.303 300.396 332.15 300.78C333.038 301.221 333.802 301.878 334.37 302.69C335.035 303.699 335.383 304.883 335.37 306.09C335.404 307.29 334.99 308.459 334.21 309.37C333.894 309.729 333.49 310.001 333.039 310.161C332.587 310.32 332.102 310.361 331.63 310.28C331.316 310.21 331.02 310.073 330.763 309.878C330.505 309.683 330.293 309.435 330.14 309.15C330 308.77 330 308.49 329.93 308.49Z" fill="#EB996E"/>
<path d="M320.43 317.73C320 317.594 319.54 317.594 319.11 317.73C317.984 317.976 316.972 318.588 316.23 319.47L316.69 319.61C316.629 318.991 316.529 318.376 316.39 317.77C315.992 315.62 315.005 313.623 313.54 312C314.519 313.876 315.297 315.85 315.86 317.89C316 318.51 316.1 319.11 316.17 319.67L316.25 320.29L316.64 319.8C317.303 318.983 318.189 318.375 319.19 318.05C319.94 317.82 320.43 317.8 320.43 317.73Z" fill="#EB996E"/>
<path d="M320.68 294.221C320.55 294.281 321.08 295.221 322.3 295.791C323.52 296.361 324.6 296.031 324.55 295.891C324.5 295.751 323.55 295.761 322.55 295.291C321.55 294.821 320.81 294.121 320.68 294.221Z" fill="#EB996E"/>
<path d="M299.24 329.45L328.43 331.54C328.43 331.54 323.94 383.19 323.07 391.2C322.2 399.21 317.07 411.29 299.24 411.29C281.41 411.29 278.09 405.22 270.16 392.72C279.51 386.24 294.36 366.89 294.36 366.89L299.24 329.45Z" fill="#455A64"/>
<path d="M313.001 336.4C312.851 336.836 312.67 337.26 312.461 337.67L310.831 341.11L305.071 353L304.781 352.65L312.351 350.4L320.041 348.14L320.601 347.98L320.331 348.49L314.331 360.14L312.561 363.49C312.365 363.9 312.134 364.291 311.871 364.66C312.024 364.233 312.204 363.815 312.411 363.41C312.831 362.55 313.411 361.41 314.051 360L319.861 348.27L320.151 348.62L312.471 350.9L304.891 353.12L304.341 353.28L304.601 352.77L310.571 341C311.301 339.61 311.891 338.47 312.331 337.62C312.519 337.196 312.744 336.788 313.001 336.4Z" fill="#E0E0E0"/>
<path d="M310.24 386.08C309.792 386.176 309.338 386.236 308.88 386.26L305.08 386.59L291.94 387.59L292.1 387.16L297.86 392.56L303.69 398.06L304.11 398.46H303.53L290.46 399.18L286.68 399.34C286.228 399.38 285.773 399.38 285.32 399.34C285.765 399.252 286.217 399.199 286.67 399.18L290.44 398.87L303.5 397.97L303.35 398.4L297.5 392.91L291.76 387.49L291.34 387.1H291.91L305.06 386.31L308.87 386.12C309.325 386.072 309.783 386.059 310.24 386.08Z" fill="#E0E0E0"/>
<path d="M362.21 201.57L332.44 190.88L303 201.43C299.24 203.2 295.94 204.27 295.94 207.77V225.23C295.87 237.493 299.218 249.533 305.61 260C311.995 270.562 321.458 278.919 332.73 283.95C344.73 280.04 353.73 269.6 359.28 260.68C365.688 250.219 369.054 238.178 369 225.91V210.21C369 205.21 366.34 202.77 362.21 201.57Z" fill="#F59E0B"/>
<g opacity="0.3">
<path d="M332.73 273.79C323.798 269.762 316.313 263.097 311.28 254.69C306.213 246.419 303.55 236.9 303.59 227.2V215C303.59 212.22 305.27 209.62 308.59 208.07L332.45 199.15V190.92L303 201.43C299.91 202.78 295.94 204.27 295.94 207.77V225.23C295.87 237.493 299.218 249.533 305.61 260C311.995 270.562 321.458 278.919 332.73 283.95V273.79Z" fill="black"/>
</g>
<g opacity="0.4">
<path d="M332.73 283.92C334.749 283.26 336.707 282.424 338.58 281.42C343.185 278.815 347.372 275.531 351 271.68C354.28 268.146 357.167 264.267 359.61 260.11C366.094 249.571 369.357 237.368 369 225V210.59C369 203.41 365.3 202.88 362.2 201.53L332.43 190.84V199.07L356.57 208.14C359.89 209.69 361.57 212.29 361.57 215.06V227.31C361.609 237.006 358.947 246.522 353.88 254.79C348.955 263.158 341.56 269.795 332.71 273.79L332.73 283.92Z" fill="black"/>
</g>
<path opacity="0.5" d="M388.14 170.09V167.73C388.14 165.68 387.326 163.714 385.876 162.264C384.426 160.814 382.46 160 380.41 160C378.36 160 376.394 160.814 374.944 162.264C373.494 163.714 372.68 165.68 372.68 167.73V170.13C371.657 170.283 370.723 170.798 370.048 171.582C369.372 172.366 369.001 173.366 369 174.4V188.3C369 189.446 369.455 190.545 370.265 191.355C371.075 192.165 372.174 192.62 373.32 192.62H387.8C388.946 192.62 390.045 192.165 390.855 191.355C391.665 190.545 392.12 189.446 392.12 188.3V174.4C392.121 173.313 391.712 172.265 390.974 171.466C390.236 170.667 389.224 170.176 388.14 170.09ZM382.51 184.83H378.73L379.32 182.1C378.906 181.831 378.591 181.435 378.421 180.972C378.25 180.508 378.234 180.002 378.375 179.529C378.515 179.056 378.805 178.641 379.201 178.346C379.596 178.051 380.076 177.891 380.57 177.891C381.064 177.891 381.544 178.051 381.939 178.346C382.335 178.641 382.625 179.056 382.765 179.529C382.906 180.002 382.89 180.508 382.719 180.972C382.549 181.435 382.234 181.831 381.82 182.1C382.08 183.12 382.51 184.83 382.51 184.83ZM386.51 170.07H374.35V167.73C374.414 166.164 375.08 164.683 376.211 163.598C377.341 162.512 378.848 161.906 380.415 161.906C381.982 161.906 383.489 162.512 384.619 163.598C385.75 164.683 386.416 166.164 386.48 167.73L386.51 170.07Z" fill="white"/>
<path opacity="0.5" d="M338.957 219.684C336.291 218.211 333.245 217.869 331.283 218.04C329.446 218.201 326.767 218.726 324.441 220.321C322.995 221.31 321.885 222.588 321.14 224.117C320.258 225.928 319.884 228.105 320.031 230.59C320.053 230.963 320.221 231.303 320.504 231.547C320.789 231.794 321.152 231.911 321.527 231.878L326.344 231.457C327.024 231.398 327.564 230.84 327.601 230.159C327.682 228.629 328.356 226.007 331.956 225.63C334.7 225.344 336.005 227.233 336.44 228.059C337.147 229.402 337.143 231.07 336.429 232.518C335.332 234.743 333.002 235.272 331.71 235.39C330.225 235.525 329.122 236.837 329.251 238.313L329.704 243.497C329.77 244.254 330.44 244.816 331.197 244.75L335.891 244.34C336.648 244.274 337.209 243.605 337.143 242.847L337.048 241.758C337.046 241.732 337.061 241.708 337.085 241.697C338.116 241.231 340.098 240.15 341.794 238.142C343.958 235.579 344.894 232.433 344.575 228.791C344.121 223.58 341.269 220.962 338.957 219.684Z" fill="white"/>
<path opacity="0.5" d="M333.673 247.014L333.263 247.05C331.3 247.221 329.842 248.957 330.014 250.921C330.185 252.884 331.921 254.342 333.885 254.17L334.295 254.134C336.258 253.962 337.716 252.226 337.544 250.263C337.373 248.3 335.637 246.842 333.673 247.014Z" fill="#EBEBEB"/>
<path d="M308.42 226.25C308.16 225.468 308.008 224.653 307.97 223.83C307.747 221.862 307.667 219.88 307.73 217.9C307.73 216.74 307.84 215.64 307.94 214.64C307.989 213.728 308.217 212.835 308.61 212.01C308.891 211.445 309.347 210.986 309.91 210.7C310.32 210.51 310.57 210.52 310.57 210.55C309.851 210.879 309.274 211.454 308.94 212.17C308.62 212.97 308.444 213.819 308.42 214.68C308.34 215.68 308.28 216.77 308.25 217.92C308.18 220.21 308.25 222.29 308.34 223.8C308.43 224.613 308.457 225.432 308.42 226.25Z" fill="white"/>
<path d="M308.85 233.84C308.71 233.84 308.58 233.13 308.56 232.24C308.54 231.35 308.65 230.63 308.79 230.63C308.93 230.63 309.06 231.34 309.08 232.23C309.1 233.12 309 233.84 308.85 233.84Z" fill="white"/>
<path d="M279.32 325.23L246.13 407.31H186.28V411.02H364.55L401.02 325.23H279.32Z" fill="#263238"/>
<path d="M330.06 373.69C328.86 377.82 325.36 380.43 322.24 379.53C319.12 378.63 317.57 374.53 318.77 370.4C319.97 366.27 323.48 363.66 326.6 364.56C329.72 365.46 331.27 369.56 330.06 373.69Z" fill="#FAFAFA"/>
</svg>
