<svg width="500" height="500" viewBox="0 0 500 500" fill="none" xmlns="http://www.w3.org/2000/svg">
<path d="M138.555 302.573C138.555 302.573 124.86 304.26 120.524 307.468C116.188 310.675 101.384 325.276 96.7997 329.766L84.6903 349.496C84.6903 349.496 84.0131 360.774 84.4902 363.648C84.9673 366.521 89.0036 367.398 89.2699 364.218C89.5362 361.038 90.4485 353.506 90.4485 353.506L95.9622 346.656L92.7793 353.403C92.7793 353.403 90.8035 368.257 93.4696 369.529C96.1357 370.801 97.4309 369.62 97.6984 366.426C97.9659 363.232 98.9947 354.477 98.9947 354.477L104.516 346.693L102.724 355.993C102.724 355.993 100.606 367.505 101.9 369.357C103.195 371.208 106.036 368.541 106.036 368.541C106.036 368.541 108.93 375.499 110.904 369.232C112.879 362.965 114.304 356.368 114.304 356.368L123.746 337.223L133.562 327.064L148.408 325.587C148.408 325.587 149.279 306.107 138.555 302.573Z" fill="#FFBF9D"/>
<path d="M112.228 346.296C111.887 347.384 111.479 348.445 111.007 349.472C109.997 352.004 109.132 354.603 108.42 357.254C107.718 359.915 107.176 362.622 106.799 365.357C106.699 366.503 106.524 367.641 106.275 368.761C106.17 367.609 106.195 366.443 106.352 365.291C106.865 359.719 108.305 354.283 110.597 349.268C111.017 348.2 111.566 347.2 112.228 346.296Z" fill="#FF9A6C"/>
<path d="M171.765 200.801C171.682 201.798 175.156 289.686 175.156 289.686L124.344 304.446L132.691 326.482C132.691 326.482 190.546 321.784 196.312 318.039C202.078 314.295 208.747 312.79 211.338 300.053C213.928 287.316 218.978 231.366 213.828 213.724C208.679 196.083 204.721 178.57 191.384 181.222C178.048 183.874 171.765 200.801 171.765 200.801Z" fill="#FFBF9D"/>
<path d="M198.122 297.517C194.712 295.519 191.122 293.839 187.398 292.499C183.598 291.402 179.703 290.664 175.763 290.293C176.922 290.095 178.103 290.065 179.271 290.204C184.977 290.572 190.501 292.355 195.332 295.386C196.361 295.959 197.301 296.677 198.122 297.517Z" fill="#FF9A6C"/>
<path d="M378.885 371.399C373.227 364.741 365.401 360.732 359.962 359.202C354.869 357.768 347.148 356.462 339.287 358.379C334.405 359.57 330.129 361.87 326.579 365.217C322.374 369.181 319.163 374.647 317.036 381.463C316.717 382.486 316.823 383.568 317.335 384.512C317.849 385.46 318.704 386.144 319.743 386.436L333.097 390.195C334.981 390.725 336.997 389.775 337.785 387.985C339.556 383.964 344.026 377.612 354.068 380.253C361.72 382.269 363.308 388.661 363.636 391.318C364.171 395.641 362.468 400.111 359.082 403.273C353.879 408.131 347.09 407.188 343.506 406.194C339.384 405.05 335.094 407.45 333.942 411.543L329.897 425.913C329.306 428.012 330.533 430.199 332.632 430.79L345.643 434.452C347.742 435.043 349.929 433.816 350.52 431.717L351.37 428.698C351.39 428.626 351.453 428.576 351.53 428.571C354.769 428.366 361.185 427.476 367.771 423.808C376.179 419.126 381.882 411.633 384.724 401.539C388.791 387.094 383.793 377.175 378.885 371.399Z" fill="#97B27B"/>
<path d="M338.767 436.421L337.629 436.101C332.188 434.569 326.514 437.75 324.983 443.192C323.452 448.634 326.632 454.307 332.074 455.838L333.212 456.158C338.653 457.69 344.327 454.509 345.858 449.067C347.389 443.625 344.209 437.953 338.767 436.421Z" fill="#97B27B"/>
<path d="M407.562 291.81C403.633 289.658 399.15 289.173 396.265 289.436C393.563 289.683 389.626 290.472 386.213 292.83C384.093 294.295 382.467 296.18 381.38 298.433C380.093 301.102 379.557 304.308 379.787 307.961C379.822 308.509 380.071 309.008 380.489 309.366C380.909 309.726 381.444 309.896 381.995 309.846L389.079 309.199C390.079 309.108 390.87 308.284 390.919 307.282C391.03 305.032 392.007 301.171 397.3 300.596C401.334 300.159 403.265 302.929 403.909 304.141C404.957 306.113 404.961 308.565 403.919 310.7C402.318 313.98 398.894 314.772 396.995 314.953C394.812 315.16 393.197 317.096 393.395 319.267L394.091 326.89C394.193 328.003 395.181 328.826 396.294 328.725L403.196 328.095C404.309 327.993 405.132 327.005 405.03 325.892L404.884 324.29C404.88 324.252 404.901 324.216 404.937 324.2C406.45 323.509 409.36 321.906 411.842 318.943C415.01 315.16 416.369 310.527 415.88 305.173C415.181 297.51 410.971 293.677 407.562 291.81Z" fill="#97B27B"/>
<path d="M400.265 330.298L399.661 330.353C396.775 330.617 394.641 333.179 394.904 336.066C395.168 338.953 397.73 341.086 400.617 340.823L401.221 340.768C404.107 340.504 406.241 337.942 405.978 335.055C405.714 332.168 403.151 330.034 400.265 330.298Z" fill="#97B27B"/>
<path d="M123.88 129.071C121.218 126.448 117.732 125.037 115.357 124.59C113.133 124.172 109.794 123.907 106.518 125.021C104.483 125.713 102.748 126.855 101.362 128.415C99.7199 130.263 98.5589 132.713 97.9109 135.697C97.8139 136.145 97.8999 136.602 98.1539 136.985C98.4089 137.37 98.7989 137.628 99.2529 137.714L105.085 138.81C105.908 138.965 106.731 138.484 106.999 137.691C107.601 135.911 109.266 133.036 113.644 133.781C116.98 134.351 117.898 137.014 118.139 138.133C118.53 139.955 117.974 141.923 116.651 143.398C114.618 145.665 111.69 145.52 110.125 145.231C108.326 144.9 106.589 146.084 106.253 147.872L105.073 154.147C104.901 155.063 105.506 155.949 106.422 156.121L112.104 157.189C113.02 157.361 113.906 156.756 114.078 155.84L114.326 154.522C114.332 154.49 114.357 154.467 114.389 154.462C115.761 154.252 118.461 153.63 121.128 151.819C124.533 149.506 126.68 146.099 127.508 141.691C128.694 135.382 126.19 131.346 123.88 129.071Z" fill="#98B37C"/>
<path d="M109.248 158.289L108.751 158.196C106.375 157.749 104.078 159.319 103.631 161.695C103.184 164.071 104.754 166.368 107.13 166.815L107.627 166.908C110.003 167.355 112.3 165.785 112.747 163.409C113.193 161.033 111.624 158.736 109.248 158.289Z" fill="#97B27B"/>
<path d="M397.009 131.075C393.088 128.908 388.608 128.405 385.722 128.657C383.019 128.893 379.079 129.666 375.657 132.011C373.531 133.467 371.898 135.346 370.802 137.595C369.504 140.259 368.955 143.462 369.171 147.117C369.203 147.665 369.451 148.165 369.867 148.525C370.286 148.887 370.82 149.059 371.371 149.011L378.457 148.392C379.457 148.305 380.251 147.484 380.305 146.482C380.425 144.232 381.417 140.376 386.712 139.821C390.748 139.4 392.668 142.178 393.307 143.393C394.347 145.369 394.341 147.822 393.291 149.952C391.677 153.226 388.25 154.004 386.35 154.177C384.166 154.376 382.543 156.305 382.733 158.477L383.399 166.102C383.496 167.216 384.481 168.042 385.595 167.945L392.499 167.342C393.613 167.245 394.439 166.26 394.342 165.146L394.202 163.544C394.199 163.506 394.22 163.47 394.256 163.454C395.772 162.769 398.688 161.178 401.182 158.225C404.365 154.455 405.742 149.827 405.274 144.471C404.606 136.806 400.41 132.955 397.009 131.075Z" fill="#97B27B"/>
<path d="M389.558 169.534L388.954 169.587C386.067 169.839 383.923 172.393 384.175 175.281C384.427 178.169 386.981 180.313 389.869 180.06L390.473 180.007C393.36 179.755 395.504 177.201 395.252 174.313C395 171.426 392.446 169.282 389.558 169.534Z" fill="#97B27B"/>
<path d="M183.956 361.509C179.049 359.198 173.596 358.942 170.13 359.473C166.883 359.97 162.184 361.214 158.233 364.316C155.779 366.242 153.953 368.64 152.806 371.443C151.447 374.763 151.035 378.677 151.583 383.075C151.665 383.735 152.003 384.32 152.535 384.722C153.069 385.126 153.728 385.293 154.39 385.191L162.903 383.887C164.104 383.703 164.999 382.649 164.986 381.435C164.955 378.708 165.851 373.97 172.205 372.885C177.048 372.06 179.586 375.265 180.454 376.683C181.866 378.989 182.051 381.952 180.949 384.609C179.256 388.691 175.176 389.901 172.895 390.259C170.272 390.671 168.463 393.128 168.862 395.738L170.265 404.898C170.47 406.236 171.725 407.157 173.063 406.953L181.357 405.683C182.695 405.478 183.616 404.223 183.412 402.885L183.117 400.96C183.11 400.914 183.133 400.869 183.175 400.847C184.953 399.9 188.351 397.749 191.132 393.985C194.682 389.18 195.982 383.481 194.997 377.046C193.584 367.837 188.213 363.514 183.956 361.509Z" fill="#97B27B"/>
<path d="M177.974 408.559L177.248 408.67C173.779 409.201 171.389 412.456 171.921 415.924C172.453 419.392 175.707 421.783 179.175 421.251L179.901 421.14C183.37 420.609 185.76 417.355 185.228 413.886C184.697 410.418 181.442 408.028 177.974 408.559Z" fill="#97B27B"/>
<path d="M109.308 188.164C102.408 184.93 94.7469 184.583 89.8769 185.338C85.3169 186.045 78.7169 187.804 73.1739 192.171C69.7309 194.884 67.1719 198.257 65.5669 202.198C63.6659 206.866 63.0979 212.366 63.8779 218.544C63.9949 219.471 64.4709 220.292 65.2189 220.855C65.9699 221.421 66.8959 221.654 67.8259 221.51L79.7829 219.657C81.4699 219.396 82.7249 217.912 82.7029 216.206C82.6519 212.374 83.8989 205.716 92.8229 204.175C99.6249 203.004 103.199 207.501 104.422 209.49C106.412 212.727 106.679 216.889 105.138 220.625C102.769 226.364 97.0409 228.074 93.8359 228.583C90.1509 229.168 87.6159 232.625 88.1839 236.291L90.1779 249.158C90.4689 251.037 92.2349 252.329 94.1139 252.038L105.764 250.233C107.643 249.942 108.935 248.176 108.644 246.297L108.225 243.594C108.215 243.529 108.247 243.467 108.306 243.435C110.802 242.1 115.57 239.07 119.468 233.775C124.444 227.015 126.256 219.005 124.856 209.967C122.851 197.03 115.294 190.97 109.308 188.164Z" fill="#97B27B"/>
<path d="M101.021 254.282L100.002 254.44C95.13 255.195 91.78 259.773 92.535 264.645C93.29 269.517 97.868 272.867 102.74 272.112L103.759 271.954C108.631 271.199 111.981 266.621 111.226 261.749C110.471 256.877 105.893 253.527 101.021 254.282Z" fill="#97B27B"/>
<path d="M277.718 106.669L286.731 108.171C291.162 113.467 297.227 117.52 304.502 119.456C321.66 124.022 339.813 114.601 345.991 97.9561C353.13 78.7231 342.228 57.4841 322.251 52.1821C305.292 47.6811 287.348 56.8161 280.986 73.1681C277.829 81.2831 277.921 89.7821 280.566 97.3161L280.555 97.3001L277.718 106.669Z" fill="white"/>
<path d="M277.718 106.669C277.718 106.669 277.764 106.473 277.878 106.073C277.999 105.652 278.171 105.056 278.394 104.282C278.867 102.668 279.558 100.314 280.451 97.2699L280.513 97.0589L280.639 97.2399L280.65 97.2559L280.463 97.3509C279.023 93.2809 277.797 87.4749 278.821 80.6259C279.318 77.2179 280.411 73.6109 282.173 70.0329C283.964 66.4729 286.516 62.9969 289.817 59.9829C293.128 56.9869 297.199 54.4819 301.805 52.8499C306.4 51.2279 311.544 50.4169 316.769 50.9759C321.984 51.4889 327.245 53.2259 331.959 56.1319C336.697 59.0109 340.742 63.2289 343.639 68.2129C345.171 70.7029 346.194 73.4329 347.068 76.1539C347.267 76.8409 347.396 77.5449 347.563 78.2369C347.699 78.9349 347.926 79.6149 347.985 80.3229C348.07 81.0259 348.155 81.7269 348.24 82.4259L348.361 83.4729L348.378 84.5239C348.582 90.1239 347.385 95.5919 345.212 100.414C343.056 105.264 339.713 109.329 335.959 112.499C332.184 115.669 327.919 117.916 323.624 119.249C319.319 120.568 315 120.994 311.004 120.721C310.009 120.605 309.031 120.491 308.069 120.379C307.111 120.244 306.19 119.991 305.275 119.808C303.45 119.412 301.746 118.812 300.148 118.167C293.731 115.532 289.379 111.519 286.651 108.238L286.713 108.273C283.81 107.763 281.554 107.367 280.003 107.094C279.261 106.96 278.691 106.857 278.285 106.784C277.902 106.712 277.718 106.669 277.718 106.669C277.718 106.669 277.933 106.693 278.33 106.752C278.744 106.815 279.325 106.904 280.08 107.02C281.621 107.263 283.862 107.616 286.747 108.07L286.784 108.076L286.809 108.106C289.557 111.339 293.904 115.285 300.274 117.859C301.86 118.489 303.55 119.075 305.359 119.458C306.266 119.634 307.178 119.881 308.126 120.01C309.078 120.117 310.046 120.225 311.03 120.336C314.982 120.589 319.248 120.152 323.496 118.836C327.734 117.506 331.939 115.276 335.656 112.139C339.353 109.003 342.642 104.99 344.759 100.207C346.894 95.4509 348.068 90.0599 347.862 84.5439L347.845 83.5079L347.725 82.4759C347.641 81.7879 347.557 81.0969 347.473 80.4049C347.415 79.7079 347.189 79.0379 347.055 78.3509C346.89 77.6699 346.763 76.9759 346.567 76.2989C345.704 73.6189 344.698 70.9299 343.187 68.4769C340.333 63.5669 336.351 59.4099 331.685 56.5709C327.043 53.7049 321.858 51.9869 316.72 51.4739C311.572 50.9149 306.498 51.7059 301.961 53.2959C297.413 54.8959 293.387 57.3579 290.108 60.3069C286.839 63.2739 284.305 66.6989 282.52 70.2109C280.763 73.7409 279.663 77.3069 279.153 80.6789C278.102 87.4549 279.274 93.2229 280.662 97.2829L280.915 98.0239L280.475 97.3779L280.464 97.3619L280.652 97.3329C279.716 100.335 278.992 102.656 278.495 104.247C278.248 105.027 278.059 105.625 277.924 106.049C277.796 106.453 277.718 106.669 277.718 106.669Z" fill="#263238"/>
<path d="M320.761 69.774C318.094 68.006 314.933 67.392 312.864 67.406C310.927 67.419 308.077 67.744 305.507 69.217C303.91 70.132 302.64 71.376 301.731 72.914C300.654 74.736 300.08 76.985 300.025 79.599C300.017 79.991 300.164 80.361 300.44 80.641C300.717 80.922 301.088 81.076 301.483 81.073L306.563 81.038C307.28 81.033 307.892 80.494 307.988 79.784C308.202 78.189 309.13 75.501 312.931 75.409C315.828 75.341 317.036 77.428 317.422 78.329C318.049 79.796 317.905 81.541 317.035 82.998C315.698 85.236 313.214 85.594 311.852 85.608C310.286 85.624 309.02 86.905 309.031 88.462L309.068 93.929C309.073 94.727 309.727 95.372 310.526 95.367L315.476 95.333C316.274 95.328 316.919 94.674 316.914 93.875L316.906 92.726C316.906 92.698 316.923 92.674 316.949 92.665C318.068 92.264 320.234 91.299 322.179 89.339C324.661 86.837 325.906 83.622 325.88 79.782C325.84 74.289 323.074 71.307 320.761 69.774Z" fill="#7E3BEA"/>
<path d="M313.254 96.7262L312.821 96.7292C310.751 96.7432 309.078 98.4392 309.092 100.509C309.106 102.579 310.802 104.252 312.872 104.238L313.305 104.235C315.375 104.221 317.048 102.525 317.034 100.455C317.02 98.3852 315.324 96.7122 313.254 96.7262Z" fill="#7E3BEA"/>
<path d="M327.048 151.747C303.437 135.866 275.364 130.208 256.965 130.208C239.734 130.208 214.376 132.926 191.424 145.872C177.17 153.913 165.797 164.898 157.62 178.523C147.935 194.661 142.693 214.629 142.04 237.874C141.942 241.361 143.23 244.661 145.668 247.168C148.117 249.687 151.4 251.074 154.914 251.074H200.095C206.47 251.074 211.951 246.317 212.842 240.01C214.846 225.842 223.255 201.986 257.066 201.403C282.823 200.961 293.451 219.607 296.825 227.646C302.316 240.727 300.924 256.24 293.099 269.142C281.076 288.964 258.959 291.999 246.846 292.043C232.916 292.094 221.582 303.403 221.582 317.252V365.87C221.582 372.97 227.358 378.746 234.458 378.746H278.478C285.578 378.746 291.354 372.97 291.354 365.87V355.655C291.354 355.41 291.507 355.198 291.743 355.115C301.715 351.616 321.044 343.162 338.454 325.852C360.68 303.755 371.949 275.234 371.949 241.083C371.95 192.207 347.532 165.525 327.048 151.747Z" fill="#7E3BEA"/>
<path d="M255.361 401.425H258.914C276.396 401.425 290.619 415.648 290.619 433.13C290.619 450.612 276.396 464.835 258.914 464.835H255.361C237.879 464.835 223.656 450.612 223.656 433.13C223.656 415.647 237.879 401.425 255.361 401.425Z" fill="#263238"/>
<path d="M234.29 388.147H278.292C285.389 388.147 291.163 382.554 291.163 375.679V355.802C291.163 355.565 291.316 355.359 291.552 355.279C296.753 353.511 304.03 350.269 312.263 345.208C284.149 345.011 232.904 344.724 221.418 345.143V375.679C221.419 382.554 227.193 388.147 234.29 388.147Z" fill="#263238"/>
<path d="M270.531 167.901L242.294 85.8996C236.331 65.3676 219.412 51.7246 199.053 58.2546L197.207 58.9676C178.628 66.1456 168.667 86.3836 174.329 105.48C179.596 123.247 185.644 142.81 189.33 152.01C196.96 171.055 216.935 165.709 216.935 165.709C216.979 165.694 221.381 178.403 223.306 184.108L233.648 194.327L237.92 189.66L270.531 167.901Z" fill="#FFBF9D"/>
<path d="M216.934 165.709C216.934 165.709 229.269 161.757 239.004 148.716C239.004 148.716 238.568 165.419 218.807 171.073L216.934 165.709Z" fill="#FF9A6C"/>
<path d="M188.144 118.429C188.65 119.892 190.307 120.669 191.844 120.168C193.378 119.668 194.215 118.079 193.709 116.616C193.203 115.153 191.546 114.374 190.011 114.874C188.474 115.374 187.638 116.966 188.144 118.429Z" fill="#263238"/>
<path d="M181.347 111.43C181.823 111.655 183.301 109.323 186.246 108.195C189.17 107.025 191.913 107.705 192.092 107.221C192.187 107.001 191.594 106.491 190.39 106.17C189.202 105.847 187.368 105.793 185.539 106.509C183.711 107.227 182.431 108.496 181.812 109.529C181.176 110.572 181.118 111.335 181.347 111.43Z" fill="#263238"/>
<path d="M212.731 108.679C213.208 108.904 214.69 106.572 217.631 105.444C220.555 104.275 223.298 104.954 223.478 104.47C223.572 104.25 222.983 103.74 221.775 103.42C220.587 103.096 218.753 103.043 216.924 103.758C215.096 104.477 213.816 105.746 213.196 106.778C212.563 107.821 212.504 108.584 212.731 108.679Z" fill="#263238"/>
<path d="M208.619 127.647C208.568 127.475 206.618 127.865 203.51 128.63C202.729 128.843 201.961 128.969 201.636 128.505C201.25 128.031 201.251 127.1 201.277 126.085C201.281 123.995 201.284 121.804 201.288 119.509C201.227 110.176 200.873 102.62 200.497 102.625C200.121 102.632 199.866 110.2 199.927 119.533C199.961 121.828 199.99 124.015 200.022 126.107C200.068 127.07 199.953 128.227 200.771 129.205C201.19 129.688 201.899 129.882 202.43 129.826C202.969 129.787 203.394 129.632 203.774 129.511C206.818 128.52 208.672 127.819 208.619 127.647Z" fill="#263238"/>
<path d="M205.932 92.1445C206.622 92.7405 209.17 90.8485 212.615 89.4325C216.032 87.9455 219.164 87.4345 219.217 86.5245C219.228 86.0965 218.381 85.6465 216.923 85.5115C215.476 85.3715 213.427 85.6155 211.368 86.4845C209.312 87.3565 207.71 88.6575 206.802 89.7935C205.884 90.9335 205.616 91.8545 205.932 92.1445Z" fill="#263238"/>
<path d="M177.872 102.837C178.735 103.281 180.885 101.695 183.769 100.593C186.619 99.4058 189.283 99.0698 189.588 98.1578C189.709 97.7258 189.075 97.1958 187.769 96.9548C186.479 96.7108 184.522 96.8458 182.551 97.6308C180.581 98.4188 179.082 99.6648 178.329 100.724C177.561 101.793 177.48 102.609 177.872 102.837Z" fill="#263238"/>
<path d="M245.891 99.7457C246.162 99.4787 257.537 90.7767 262.174 104.021C266.81 117.265 252.558 119.188 252.401 118.817C252.246 118.445 245.891 99.7457 245.891 99.7457Z" fill="#FFBF9D"/>
<path d="M254.691 112.382C254.734 112.319 254.978 112.462 255.431 112.505C255.872 112.546 256.568 112.437 257.168 111.936C258.387 110.933 258.788 108.299 258.016 105.889C257.628 104.672 256.973 103.613 256.214 102.812C255.47 101.985 254.607 101.527 253.858 101.649C253.1 101.733 252.749 102.329 252.718 102.758C252.67 103.19 252.847 103.425 252.784 103.473C252.759 103.519 252.422 103.35 252.337 102.766C252.3 102.483 252.345 102.117 252.568 101.754C252.795 101.384 253.216 101.089 253.725 100.97C254.771 100.683 256.019 101.301 256.854 102.179C257.746 103.043 258.51 104.224 258.946 105.591C259.795 108.289 259.304 111.265 257.583 112.489C256.736 113.059 255.861 113.049 255.35 112.877C254.826 112.693 254.653 112.422 254.691 112.382Z" fill="#FF9A6C"/>
<path d="M218.615 126.312C218.148 126.439 219.165 129.496 217.275 132.54C215.392 135.59 212.02 136.336 212.139 136.772C212.161 136.978 213.063 137.123 214.451 136.7C215.815 136.295 217.639 135.203 218.796 133.341C219.946 131.476 220.038 129.472 219.724 128.184C219.412 126.868 218.818 126.225 218.615 126.312Z" fill="#263238"/>
<path d="M141.26 96.1788C141.196 95.3258 141.537 94.4838 142.088 93.8288C143.289 92.3988 145.077 91.9028 146.755 91.2808C150.931 89.7338 154.718 87.1918 157.793 83.9718C156.255 83.7698 154.752 83.3958 153.352 82.7268C150.461 81.3468 148.08 78.5118 148.052 75.3088C148.047 74.7078 148.161 74.0358 148.644 73.6778C149.411 73.1108 150.461 73.6898 151.296 74.1488C154.043 75.6568 156.197 75.9608 159.033 74.6278C160.794 73.7998 162.419 72.7668 163.54 71.3668C163.576 71.2868 163.604 71.2028 163.641 71.1238C164.079 70.1708 164.512 69.2558 164.943 68.3668C164.943 68.3638 164.945 68.3618 164.945 68.3588L164.944 68.3638C168.183 61.6708 171.259 56.7408 175.043 53.4128C180.588 48.5348 191.023 43.6728 198.383 43.0668C205.744 42.4608 213.72 45.7948 217.089 52.3668C219.742 47.8408 225.424 45.8698 230.678 46.0978L230.776 46.0068C236.545 46.0278 241.364 50.4168 244.718 55.1098C244.901 55.3668 245.075 55.6308 245.254 55.8908C247.955 58.0278 251.139 59.5508 254.524 60.1968C255.121 60.3108 255.813 60.4638 256.074 61.0128C256.333 61.5568 256.021 62.1928 255.675 62.6868C254.756 63.9998 253.529 65.0818 252.135 65.8718C253.041 66.9488 254.016 67.9618 255.103 68.8748C256.027 69.6508 257.127 70.5818 256.981 71.7788C256.868 72.7048 255.981 73.3818 255.065 73.5618C254.15 73.7408 253.208 73.5308 252.299 73.3228C253.353 74.4898 254.406 75.6578 255.46 76.8248C253.72 77.8008 251.747 78.3288 249.754 78.4168C250.387 83.6878 252.758 93.0278 252.667 96.7838C249.176 98.0828 248.188 98.0018 246.622 99.2148C244.599 100.783 246.902 104.532 243.514 104.43C241.789 104.378 237.431 99.4448 236.377 98.0768C229.39 89.0018 224.397 78.4028 221.834 67.2408C218.914 65.7258 215.7 64.7798 212.425 64.4698L212.727 64.5958C206.653 64.6228 199.88 64.9308 195.641 69.2808C192.353 72.6548 191.468 77.6128 189.652 81.9598C186.211 90.1988 180.998 95.7848 172.712 99.1118C174.012 105.222 177.154 114.857 178.79 120.41L170.289 111.137L170.301 111.182C169.699 110.675 169.162 110.14 168.634 109.6L168.462 109.44L168.454 109.415C167.612 108.546 166.792 107.667 165.828 106.854C165.816 106.876 165.804 106.897 165.792 106.919C163.756 110.566 157.999 108.115 159.21 104.117C159.45 103.324 159.805 102.568 160.274 101.881C159.371 103.624 157.571 104.941 155.609 105.021C153.647 105.101 151.642 103.793 151.146 101.893C150.807 100.596 151.311 99.1528 152.273 98.2538C149.952 99.2778 147.328 99.6188 144.83 99.1648C143.191 98.8658 141.402 98.0578 141.26 96.1788Z" fill="#263238"/>
<path d="M211.777 56.7378C211.756 56.8018 212.769 56.9638 214.346 57.8298C215.91 58.6938 217.94 60.4418 219.585 63.2138C220.412 64.5878 221.187 66.1778 221.814 67.9618C222.45 69.7428 222.98 71.7038 223.553 73.7648C224.132 75.8238 224.737 78.0008 225.646 80.1678C226.1 81.2488 226.629 82.3258 227.264 83.3648C227.896 84.3818 228.608 85.4778 229.776 86.1338C230.712 86.6728 231.942 86.6258 232.833 86.0898C233.741 85.5778 234.42 84.7588 234.803 83.8338C235.537 81.9408 235.198 79.9858 234.934 78.2518L234.545 78.4438C235.724 79.6708 236.915 80.8748 238.331 81.6718C239.733 82.4818 241.379 82.7638 242.822 82.3958C243.541 82.2128 244.204 81.8548 244.696 81.3428C245.201 80.8308 245.467 80.1688 245.582 79.5278C245.68 78.8818 245.621 78.2308 245.388 77.6658C245.153 77.1028 244.736 76.6358 244.235 76.3788L244.094 76.6348C246.187 77.8098 248.086 78.1688 249.355 78.2908C249.995 78.3508 250.488 78.3468 250.821 78.3378C251.153 78.3208 251.323 78.3028 251.323 78.2898C251.322 78.2748 251.15 78.2668 250.821 78.2568C250.491 78.2408 250.002 78.2178 249.372 78.1348C248.123 77.9668 246.266 77.5668 244.24 76.3828L244.099 76.6378C244.994 77.0988 245.459 78.2978 245.242 79.4708C245.129 80.0518 244.881 80.6448 244.432 81.0858C243.99 81.5358 243.385 81.8588 242.726 82.0188C241.397 82.3438 239.86 82.0758 238.541 81.3008C237.2 80.5348 236.044 79.3618 234.872 78.1298L234.375 77.6068L234.483 78.3228C234.746 80.0558 235.039 81.9428 234.364 83.6548C234.022 84.4838 233.396 85.2268 232.601 85.6728C231.81 86.1358 230.815 86.1718 230.003 85.7128C228.986 85.1488 228.289 84.1188 227.669 83.1168C227.049 82.1038 226.528 81.0508 226.079 79.9878C225.18 77.8598 224.568 75.6998 223.979 73.6468C223.395 71.5898 222.849 69.6258 222.188 67.8278C221.536 66.0278 220.732 64.4218 219.873 63.0368C218.165 60.2438 216.054 58.4938 214.435 57.6678C212.801 56.8358 211.777 56.7378 211.777 56.7378Z" fill="#455A64"/>
<path d="M158.495 96.6988C158.492 96.7058 158.561 96.7328 158.697 96.7758C158.861 96.8248 159.061 96.8848 159.305 96.9578C159.572 97.0418 159.906 97.1318 160.311 97.1948C160.713 97.2688 161.176 97.3678 161.708 97.3998C163.808 97.6208 166.992 97.4538 170.525 95.9698C174.027 94.5098 177.869 91.7338 180.694 87.5338C183.584 83.3878 185.535 78.0918 186.658 72.4198C187.241 69.5778 187.541 66.7688 188.025 64.1028C188.5 61.4378 189.165 58.8948 190.276 56.6808C191.364 54.4648 192.87 52.5808 194.664 51.3268C195.551 50.6828 196.527 50.2638 197.488 49.9508C198.461 49.6648 199.435 49.5388 200.365 49.5188C202.232 49.4908 203.904 49.9388 205.26 50.5278C206.623 51.1238 207.667 51.8928 208.445 52.5928C209.953 54.0628 210.405 55.1888 210.468 55.1448C210.476 55.1408 210.446 55.0748 210.381 54.9468C210.299 54.7948 210.201 54.6108 210.08 54.3858C209.803 53.9008 209.314 53.2278 208.574 52.4578C207.803 51.7238 206.753 50.9158 205.369 50.2818C203.992 49.6558 202.285 49.1718 200.361 49.1788C199.402 49.1888 198.395 49.3078 197.382 49.5948C196.383 49.9078 195.357 50.3408 194.435 50.9998C192.565 52.2848 191.003 54.2218 189.879 56.4828C188.73 58.7448 188.046 61.3348 187.562 64.0188C187.069 66.7068 186.765 69.5098 186.187 72.3258C185.073 77.9558 183.154 83.1878 180.329 87.2828C177.566 91.4328 173.825 94.1758 170.392 95.6578C166.933 97.1578 163.805 97.3748 161.724 97.2138C159.625 97.0448 158.51 96.6308 158.495 96.6988Z" fill="#455A64"/>
<path d="M153.733 88.8076C153.727 88.8406 154.034 88.9236 154.598 89.0466C155.16 89.1796 155.992 89.2956 157.023 89.3666C158.055 89.4456 159.293 89.4236 160.657 89.2886C162.018 89.1296 163.504 88.8436 165.016 88.3736C166.524 87.8866 167.903 87.2646 169.108 86.6116C170.301 85.9356 171.325 85.2426 172.124 84.5836C172.926 83.9316 173.539 83.3586 173.922 82.9256C174.313 82.4996 174.516 82.2556 174.492 82.2326C174.427 82.1686 173.551 83.0966 171.916 84.3146C171.103 84.9306 170.078 85.5816 168.896 86.2226C167.703 86.8416 166.347 87.4386 164.869 87.9156C163.387 88.3756 161.935 88.6686 160.603 88.8496C159.268 89.0056 158.054 89.0626 157.036 89.0276C154.999 88.9726 153.749 88.7186 153.733 88.8076Z" fill="#455A64"/>
<path d="M190.002 227.426C189.829 227.476 192.095 238.828 194.315 250.603H195.018C192.798 238.828 190.176 227.376 190.002 227.426Z" fill="#263238"/>
<path d="M199.582 251.172C206 251.172 211.908 246.548 212.805 240.25C214.822 226.102 203.966 334.713 238 334.131C263.927 333.689 288.78 316.837 291.837 324.999C296.69 337.956 301.075 256.33 293.199 269.213C281.097 289.006 258.834 292.036 246.641 292.081C232.619 292.132 213.167 264.67 213.167 278.499L221.211 370.116L291.445 368.795V355.6C291.445 355.355 291.599 355.144 291.837 355.061C300.392 352.083 313.956 346.438 329.218 334.131L324.646 273.251C324.646 273.251 338.012 247.562 337.35 241.782C331.298 188.979 313.34 159.101 306.041 156.314C297.846 153.186 266.206 154.709 266.206 154.709C266.206 154.709 252.541 180.028 233.37 182.833C222.703 184.394 218.808 171.073 218.808 171.073L194.029 185.6C176.394 194.495 172.972 229.103 172.648 251.172H199.582Z" fill="#455A64"/>
<g opacity="0.3">
<path d="M280.975 282.276C295.132 285.88 309.089 290.439 323.246 294.043C324.296 294.31 325.415 294.619 326.124 295.439C327.166 296.646 326.932 298.478 326.465 300.003C324.976 304.87 321.764 309.076 317.941 312.435C314.861 315.141 311.171 317.424 307.083 317.743C302.531 318.098 298.155 315.987 294.306 313.531C284.464 307.25 276.065 298.072 270.787 287.658C270.787 287.658 274.106 286.292 276.646 284.934C279.005 283.673 280.975 282.276 280.975 282.276Z" fill="black"/>
</g>
<path d="M296.536 228.012C302.197 241.074 300.761 256.564 292.695 269.447C288.218 276.598 282.518 281.702 276.301 285.126C282.997 292.41 289.794 298.827 296.513 303.596C303.744 308.727 320.41 307.268 326.729 296.035C334.525 282.175 335.177 246.767 335.177 246.767C336.658 225.421 336.658 225.421 336.658 225.421L293.061 218.743L292.711 219.938C294.581 222.742 295.683 226.044 296.536 228.012Z" fill="#FFBF9D"/>
<path d="M220.62 219.042L218.138 222.955C216.251 224.257 214.455 223.542 213.289 221.123L186.451 180.273L192.989 176.115L222.631 215.289C222.631 215.289 223.049 217.366 220.62 219.042Z" fill="#455A64"/>
<path d="M158.616 179.572C153.362 176.607 148.955 172.034 146.228 166.157C142.869 158.919 142.53 150.805 145.274 143.311C148.018 135.817 153.515 129.84 160.755 126.481C175.698 119.547 193.497 126.063 200.432 141.007C203.791 148.246 204.129 156.36 201.386 163.854C198.642 171.348 193.145 177.324 185.906 180.684C176.839 184.89 166.72 184.146 158.616 179.572ZM187.059 129.333C179.497 125.065 170.057 124.371 161.597 128.296C154.843 131.43 149.713 137.007 147.153 143.999C144.593 150.991 144.909 158.562 148.043 165.316C151.177 172.071 156.753 177.2 163.746 179.76C170.738 182.32 178.308 182.004 185.063 178.87C191.817 175.736 196.947 170.159 199.506 163.167C202.067 156.175 201.75 148.605 198.616 141.85C196.073 136.367 191.96 132.099 187.059 129.333Z" fill="#263238"/>
<path d="M159.889 178.319C154.635 175.354 150.228 170.781 147.501 164.904C144.142 157.666 143.803 149.552 146.547 142.058C149.291 134.564 154.788 128.587 162.028 125.228C176.971 118.294 194.77 124.81 201.705 139.755C205.064 146.994 205.402 155.108 202.659 162.602C199.916 170.096 194.418 176.073 187.179 179.432C178.111 183.637 167.992 182.893 159.889 178.319ZM188.331 128.079C180.769 123.811 171.329 123.117 162.869 127.042C156.115 130.176 150.985 135.753 148.425 142.745C145.865 149.737 146.181 157.308 149.315 164.062C152.449 170.817 158.025 175.946 165.018 178.506C172.01 181.066 179.58 180.75 186.335 177.616C193.089 174.482 198.219 168.905 200.778 161.913C203.338 154.921 203.022 147.35 199.888 140.596C197.345 135.113 193.233 130.845 188.331 128.079Z" fill="#455A64"/>
<path d="M199.452 152.748C199.441 152.748 199.431 152.578 199.421 152.257C199.397 151.936 199.435 151.462 199.364 150.856C199.296 149.641 199.024 147.888 198.374 145.814C198.055 144.775 197.602 143.672 197.066 142.512C196.486 141.375 195.848 140.163 195.023 138.985C194.218 137.797 193.293 136.599 192.217 135.465C191.149 134.327 189.966 133.213 188.631 132.231C187.303 131.242 185.906 130.418 184.495 129.748C183.076 129.093 181.646 128.606 180.261 128.233C177.475 127.532 174.866 127.339 172.697 127.466C170.526 127.586 168.787 127.928 167.614 128.255C167.019 128.389 166.578 128.566 166.267 128.647C165.959 128.739 165.795 128.783 165.791 128.772C165.787 128.762 165.943 128.698 166.245 128.586C166.55 128.485 166.987 128.288 167.58 128.135C168.748 127.77 170.494 127.391 172.684 127.24C174.872 127.083 177.511 127.253 180.334 127.947C181.738 128.317 183.189 128.804 184.628 129.464C186.059 130.139 187.478 130.973 188.824 131.975C190.175 132.969 191.371 134.098 192.447 135.252C193.532 136.401 194.462 137.615 195.269 138.821C196.096 140.015 196.732 141.244 197.307 142.398C197.838 143.574 198.283 144.693 198.592 145.747C199.22 147.85 199.46 149.625 199.49 150.849C199.543 151.46 199.484 151.937 199.487 152.259C199.474 152.58 199.463 152.748 199.452 152.748Z" fill="white"/>
<path d="M168.275 177.068C168.296 176.994 169.661 177.502 171.962 177.816C172.251 177.851 172.552 177.887 172.865 177.925C173.179 177.96 173.51 177.961 173.85 177.982C174.53 178.037 175.259 178.001 176.024 177.986C177.553 177.895 179.226 177.663 180.937 177.214C182.643 176.742 184.206 176.101 185.574 175.412C186.243 175.04 186.891 174.705 187.452 174.316C187.735 174.127 188.021 173.961 188.275 173.772C188.527 173.582 188.77 173.399 189.003 173.224C190.834 171.796 191.758 170.672 191.813 170.725C191.83 170.739 191.598 171.015 191.162 171.504C190.948 171.753 190.677 172.047 190.329 172.357C189.986 172.67 189.614 173.052 189.143 173.402C188.912 173.585 188.671 173.775 188.421 173.973C188.168 174.169 187.884 174.343 187.6 174.539C187.039 174.943 186.387 175.291 185.712 175.675C184.334 176.388 182.751 177.047 181.022 177.525C179.287 177.981 177.588 178.206 176.039 178.282C175.263 178.289 174.525 178.315 173.837 178.248C173.493 178.221 173.16 178.214 172.842 178.172C172.526 178.127 172.223 178.083 171.932 178.041C171.349 177.976 170.835 177.832 170.38 177.733C169.924 177.64 169.541 177.522 169.231 177.414C168.607 177.211 168.268 177.089 168.275 177.068Z" fill="white"/>
<path d="M188.832 157.933C188.769 157.995 184.874 154.096 180.135 149.227C175.394 144.356 171.603 140.359 171.666 140.297C171.729 140.235 175.623 144.133 180.364 149.004C185.104 153.873 188.895 157.872 188.832 157.933Z" fill="white"/>
<path d="M184.233 165.759C184.225 165.766 184.127 165.671 183.949 165.482C183.751 165.266 183.497 164.99 183.183 164.647C182.499 163.885 181.554 162.834 180.398 161.548C178.05 158.929 174.796 155.321 171.159 151.375C167.52 147.428 164.187 143.892 161.767 141.339C160.579 140.083 159.608 139.056 158.905 138.312C158.589 137.971 158.334 137.695 158.135 137.481C157.962 137.288 157.874 137.184 157.882 137.176C157.89 137.168 157.993 137.258 158.181 137.436C158.391 137.64 158.66 137.902 158.994 138.225C159.696 138.915 160.699 139.925 161.93 141.182C164.392 143.696 167.753 147.209 171.394 151.158C175.033 155.106 178.262 158.74 180.568 161.399C181.721 162.728 182.646 163.81 183.277 164.566C183.573 164.925 183.812 165.215 183.998 165.44C184.16 165.642 184.241 165.751 184.233 165.759Z" fill="white"/>
<g opacity="0.3">
<path d="M159.874 129.168L196.557 169.016C196.557 169.016 193.588 173.169 190.868 174.976L153.411 134.197C153.411 134.197 156.111 130.943 159.874 129.168Z" fill="white"/>
</g>
<g opacity="0.3">
<path d="M150.257 138.791L186.336 177.615C186.336 177.615 186.671 177.798 184.185 178.426L149.238 140.762C149.238 140.762 149.421 139.818 150.257 138.791Z" fill="white"/>
</g>
<path d="M245.229 202.847C237.523 196.659 218.638 181.524 217.775 181.121C216.689 180.613 200.068 174.708 196.884 176.605C193.7 178.502 185.164 189.217 185.164 189.217C185.164 189.217 185.975 195.881 193.42 191.112C199.101 187.474 199.982 186.909 200.082 186.845C200.076 186.849 200.071 186.852 200.071 186.852L207.986 188.701C207.986 188.701 198.332 192.733 196.29 194.853C194.248 196.973 191.019 205.09 193.033 206.959C195.047 208.828 197.386 208.988 197.386 208.988C197.386 208.988 193.401 214.648 200.47 218.065C200.47 218.065 201.502 222.823 204.989 224.688C208.476 226.552 214.973 225.893 214.973 225.893C214.973 225.893 217.986 224.111 215.748 221.157C213.51 218.203 209.381 217.794 209.381 217.794L214.498 214.809C214.498 214.809 217.16 215.624 221.104 218.671C221.104 218.671 225.776 212.69 230.441 209.309C235.677 205.515 245.229 202.847 245.229 202.847Z" fill="#FFBF9D"/>
<path d="M212.471 205.361C212.468 205.338 212.197 205.343 211.711 205.406C211.225 205.468 210.527 205.607 209.689 205.875C208.022 206.397 205.786 207.553 203.953 209.546C202.119 211.54 201.155 213.865 200.774 215.57C200.577 216.427 200.497 217.134 200.476 217.624C200.454 218.113 200.472 218.384 200.495 218.385C200.567 218.391 200.582 217.303 201.033 215.636C201.473 213.979 202.451 211.739 204.231 209.802C206.012 207.866 208.162 206.704 209.776 206.127C211.4 205.538 212.483 205.432 212.471 205.361Z" fill="#FF9A6C"/>
<path d="M212.811 196.748C212.808 196.722 212.52 196.744 211.999 196.805C211.738 196.832 211.42 196.875 211.057 196.959C210.693 197.039 210.273 197.108 209.825 197.252C208.917 197.492 207.864 197.885 206.739 198.414C205.625 198.965 204.444 199.665 203.3 200.535C202.166 201.419 201.187 202.382 200.37 203.319C199.57 204.272 198.922 205.189 198.458 206.006C198.205 206.402 198.03 206.791 197.86 207.122C197.686 207.452 197.563 207.748 197.47 207.993C197.277 208.481 197.183 208.753 197.207 208.763C197.276 208.793 197.699 207.713 198.685 206.144C199.171 205.356 199.832 204.47 200.631 203.547C201.448 202.639 202.416 201.702 203.529 200.834C204.652 199.98 205.943 199.019 207.03 198.46C208.127 197.923 209.013 197.776 209.899 197.507C211.671 196.956 212.823 196.822 212.811 196.748Z" fill="#FF9A6C"/>
<path d="M214.257 186.856C214.267 186.815 213.868 186.66 213.182 186.614C212.5 186.565 211.531 186.672 210.559 187.083C209.244 187.645 208.781 188.193 208.4 188.646C207.957 189.171 207.791 189.566 207.828 189.587C207.916 189.666 208.834 188.203 210.707 187.431C212.562 186.62 214.252 186.974 214.257 186.856Z" fill="#FF9A6C"/>
<path d="M302.967 155.517C302.967 155.517 327.357 157.857 335.1 179.047C341.245 195.866 344.584 246.253 343.044 247.28L299.982 245.903C299.415 233.616 296.107 224.143 291.469 218.013L302.967 155.517Z" fill="#455A64"/>
<path d="M300.642 245.903C300.662 245.873 300.962 246.042 301.487 246.374C302.014 246.703 302.755 247.212 303.649 247.871C305.439 249.185 307.809 251.151 310.202 253.556C312.599 255.959 314.561 258.327 315.907 260.09C316.578 260.974 317.105 261.701 317.448 262.218C317.794 262.733 317.972 263.028 317.943 263.049C317.879 263.096 317.03 262.02 315.619 260.319C314.205 258.621 312.211 256.308 309.833 253.923C307.458 251.536 305.147 249.543 303.424 248.161C301.703 246.778 300.596 245.97 300.642 245.903Z" fill="#FF9A6C"/>
<path d="M295.513 194.073C295.655 194.097 294.865 199.476 293.748 206.086C292.631 212.698 291.611 218.037 291.469 218.013C291.327 217.989 292.117 212.611 293.234 205.999C294.351 199.389 295.371 194.049 295.513 194.073Z" fill="#263238"/>
<path d="M241.317 345.176C241.316 345.158 241.562 345.121 242.032 345.068C242.554 345.015 243.238 344.946 244.091 344.86C245.938 344.685 248.511 344.442 251.665 344.143C258.059 343.529 266.884 342.607 276.605 341.38C286.329 340.148 295.107 338.843 301.452 337.846C304.581 337.35 307.133 336.945 308.965 336.654C309.812 336.525 310.492 336.422 311.01 336.343C311.479 336.278 311.726 336.252 311.729 336.269C311.732 336.287 311.491 336.347 311.028 336.446C310.514 336.549 309.84 336.685 308.999 336.854C307.236 337.2 304.677 337.665 301.51 338.21C295.177 339.301 286.401 340.665 276.669 341.898C266.94 343.127 258.101 343.991 251.696 344.511C248.493 344.772 245.9 344.959 244.105 345.063C243.249 345.109 242.562 345.145 242.038 345.173C241.567 345.192 241.318 345.194 241.317 345.176Z" fill="#263238"/>
<path d="M237.511 338.739C237.51 338.703 238.142 338.648 239.286 338.578C240.515 338.513 242.15 338.426 244.131 338.32C248.301 338.106 253.912 337.819 260.112 337.501C266.312 337.142 271.921 336.817 276.09 336.575C278.071 336.464 279.705 336.372 280.934 336.303C282.078 336.247 282.713 336.233 282.715 336.269C282.718 336.305 282.089 336.387 280.949 336.505C279.809 336.624 278.158 336.774 276.116 336.942C272.032 337.28 266.385 337.679 260.14 338.021C253.897 338.361 248.241 338.579 244.145 338.688C242.097 338.743 240.439 338.774 239.293 338.78C238.146 338.788 237.512 338.775 237.511 338.739Z" fill="#263238"/>
<path d="M276.5 285.5L220 218L222 207.5L244 202L300.5 246C301 252.167 300.9 264.4 300.5 266C300.1 267.6 284.333 279.667 276.5 285.5Z" fill="#FFBF9D"/>
</svg>
