<svg width="14" height="14" viewBox="0 0 14 14" fill="none" xmlns="http://www.w3.org/2000/svg">
<path d="M4.8163 13.0634V10.9719C4.8163 10.4379 5.27524 10.0051 5.84137 10.0051H7.91086C8.18273 10.0051 8.44346 10.107 8.6357 10.2883C8.82794 10.4696 8.93594 10.7155 8.93594 10.9719V13.0634C8.93422 13.2854 9.02651 13.4988 9.19234 13.6564C9.35817 13.8139 9.58381 13.9025 9.81918 13.9025H11.2311C11.8905 13.9041 12.5235 13.6582 12.9903 13.219C13.4572 12.7798 13.7196 12.1835 13.7196 11.5616V5.60309C13.7196 5.10074 13.4835 4.62423 13.0749 4.30194L8.27189 0.684252C7.4364 0.0499483 6.23932 0.0704284 5.42876 0.732893L0.73534 4.30194C0.307447 4.61473 0.0517007 5.09265 0.0390625 5.60309V11.5555C0.0390625 12.8517 1.15322 13.9025 2.52761 13.9025H3.90727C4.39612 13.9025 4.79341 13.5305 4.79696 13.0695L4.8163 13.0634Z" fill="white"/>
</svg>
