<svg width="15" height="15" viewBox="0 0 15 15" fill="none" xmlns="http://www.w3.org/2000/svg">
<g clip-path="url(#clip0_2_607)">
<path fill-rule="evenodd" clip-rule="evenodd" d="M11.7295 10.9061C12.5251 9.91145 13.0008 8.64986 13.0008 7.27714C13.0008 4.06628 10.3979 1.46336 7.18707 1.46336C3.97621 1.46336 1.37329 4.06628 1.37329 7.27714C1.37329 10.488 3.97621 13.0909 7.18707 13.0909C8.55978 13.0909 9.82138 12.6152 10.816 11.8196L14.4755 15.4792C14.7278 15.7314 15.1368 15.7314 15.3891 15.4792C15.6414 15.2269 15.6414 14.8179 15.3891 14.5656L11.7295 10.9061ZM7.18707 11.8054C4.68615 11.8054 2.65876 9.77806 2.65876 7.27714C2.65876 4.77622 4.68615 2.74883 7.18707 2.74883C9.68798 2.74883 11.7154 4.77622 11.7154 7.27714C11.7154 9.77806 9.68798 11.8054 7.18707 11.8054Z" fill="white"/>
</g>
<defs>
<clipPath id="clip0_2_607">
<rect width="13.6806" height="13.6806" fill="white" transform="translate(0.803955 0.893166)"/>
</clipPath>
</defs>
</svg>
