<svg width="40" height="40" viewBox="0 0 40 40" fill="none" xmlns="http://www.w3.org/2000/svg">
<g clip-path="url(#clip0_267_3049)">
<path d="M16.762 23.2119L20.6654 25.4655L12.7389 39.1945L10.4639 34.1206L16.762 23.2119Z" fill="#CE4444"/>
<path d="M16.7624 23.2124L12.8591 20.9588L4.93262 34.6878L10.4643 34.121L16.7624 23.2124Z" fill="#983535"/>
<path d="M22.3312 23.2119L18.4277 25.4655L26.3543 39.1945L28.6292 34.1206L22.3312 23.2119Z" fill="#983535"/>
<path d="M22.3311 23.2124L26.2344 20.9588L34.1608 34.6878L28.6291 34.121L22.3311 23.2124Z" fill="#CE4444"/>
<path d="M32.8652 13.7588C32.8652 21.1806 26.8486 27.1972 19.4267 27.1972C12.0049 27.1972 5.98828 21.1806 5.98828 13.7588C5.98828 6.33691 12.0049 0.320312 19.4267 0.320312C26.8486 0.320312 32.8652 6.33691 32.8652 13.7588Z" fill="url(#paint0_linear_267_3049)"/>
<path d="M29.9174 13.7593C29.9174 19.5528 25.2208 24.2494 19.4275 24.2494C13.634 24.2494 8.9375 19.5528 8.9375 13.7593C8.9375 7.96595 13.634 3.26946 19.4275 3.26946C25.2208 3.26946 29.9174 7.96595 29.9174 13.7593Z" fill="#A88300"/>
<path d="M30.5013 14.8796C30.5013 20.6865 25.7939 25.3939 19.987 25.3939C14.1801 25.3939 9.47266 20.6865 9.47266 14.8796C9.47266 9.07266 14.1801 4.36523 19.987 4.36523C25.7939 4.36523 30.5013 9.07266 30.5013 14.8796Z" fill="#C28B37"/>
<path d="M29.9418 13.7584C29.9418 19.5654 25.2344 24.2728 19.4275 24.2728C13.6205 24.2728 8.91309 19.5654 8.91309 13.7584C8.91309 7.95157 13.6205 3.24414 19.4275 3.24414C25.2344 3.24414 29.9418 7.95157 29.9418 13.7584Z" fill="#C09525"/>
<path d="M19.484 6.44434L21.752 10.9805L26.2882 11.5475L23.1733 15.0404L24.0202 20.0528L19.484 17.7848L14.9478 20.0528L15.8021 15.0404L12.6797 11.5475L17.2159 10.9805L19.484 6.44434Z" fill="url(#paint1_linear_267_3049)"/>
</g>
<defs>
<linearGradient id="paint0_linear_267_3049" x1="18.5144" y1="5.21834" x2="20.3377" y2="39.1518" gradientUnits="userSpaceOnUse">
<stop stop-color="#FFC600"/>
<stop offset="1" stop-color="#FFDE69"/>
</linearGradient>
<linearGradient id="paint1_linear_267_3049" x1="19.4842" y1="6.44434" x2="19.4842" y2="20.0528" gradientUnits="userSpaceOnUse">
<stop stop-color="#FFFCDD"/>
<stop offset="1" stop-color="#FFE896"/>
</linearGradient>
<clipPath id="clip0_267_3049">
<rect width="38.874" height="38.874" fill="white" transform="translate(0.680664 0.320312)"/>
</clipPath>
</defs>
</svg>
