<svg width="32" height="32" viewBox="0 0 32 32" fill="none" xmlns="http://www.w3.org/2000/svg">
<g clip-path="url(#clip0_2_625)">
<path d="M20.8078 6.69223H9.87378V9.21547H20.8078V6.69223Z" fill="white"/>
<path d="M28.3772 15.1696V4.45005C28.3772 2.44012 26.7421 0.804977 24.7321 0.804977H5.94887C3.93894 0.804977 2.30371 2.44012 2.30371 4.45005V21.4889C2.30371 23.4988 3.93886 25.134 5.94879 25.134H19.3801V30.0364C19.3801 30.4332 19.5369 30.7982 19.8215 31.064C20.0838 31.309 20.4399 31.4495 20.7983 31.4494C21.1694 31.4494 21.5211 31.302 21.7889 31.0341L23.4612 29.3619C23.5688 29.2542 23.712 29.1949 23.8642 29.1949C24.0165 29.1949 24.1596 29.2542 24.2673 29.3618L25.9396 31.0341C26.2074 31.302 26.5592 31.4494 26.9302 31.4494C27.7122 31.4494 28.3484 30.8156 28.3484 30.0364V24.0022C29.4752 22.8622 30.1724 21.2966 30.1724 19.5708C30.1723 17.86 29.4868 16.3071 28.3772 15.1696ZM18.2063 16.7855H8.40155V19.3088H17.5628C17.5592 19.3957 17.5561 19.4829 17.5561 19.5708C17.5561 20.6724 17.8407 21.7085 18.3391 22.6108H5.94887C5.33026 22.6108 4.82704 22.1075 4.82704 21.4889V4.45005C4.82695 3.83144 5.33026 3.32822 5.94887 3.32822H24.7321C25.3508 3.32822 25.854 3.83144 25.854 4.45005V13.586C25.228 13.3774 24.5595 13.2626 23.8642 13.2626C23.317 13.2626 22.786 13.3329 22.2794 13.4645V11.739H8.40155V14.2623H20.4632C19.5006 14.8811 18.7163 15.7535 18.2063 16.7855ZM23.8642 22.9351C23.8642 22.9351 20.3188 21.0146 20.3188 18.5687C20.3188 17.4771 21.2037 16.5921 22.2954 16.5921C22.9347 16.5921 23.503 16.8957 23.8642 17.3665C24.2256 16.8957 24.7938 16.5921 25.4331 16.5921C26.5247 16.5921 27.4096 17.4771 27.4096 18.5687C27.4096 21.0369 23.8642 22.9351 23.8642 22.9351Z" fill="white"/>
</g>
<defs>
<clipPath id="clip0_2_625">
<rect width="30.6444" height="30.6444" fill="white" transform="translate(0.914062 0.80542)"/>
</clipPath>
</defs>
</svg>
