<svg width="32" height="26" viewBox="0 0 32 26" fill="none" xmlns="http://www.w3.org/2000/svg">
<path d="M0.878906 25.6H31.645V0.427734H0.878906V25.6ZM2.27736 24.2015V6.02156H30.2465V24.2015H2.27736ZM30.2465 1.82619V4.6231H2.27736V1.82619H30.2465ZM12.563 14.6361C13.0165 14.1342 13.3146 13.5115 13.4213 12.8436C13.5279 12.1757 13.4386 11.4911 13.164 10.873C12.8894 10.2548 12.4414 9.72958 11.8743 9.36094C11.3071 8.99231 10.6453 8.7961 9.96888 8.7961C9.29248 8.7961 8.6306 8.99231 8.06349 9.36094C7.49637 9.72958 7.04836 10.2548 6.77378 10.873C6.49919 11.4911 6.40981 12.1757 6.51648 12.8436C6.62315 13.5115 6.92128 14.1342 7.37474 14.6361C6.70213 14.88 6.12073 15.3247 5.70926 15.91C5.29779 16.4954 5.07613 17.193 5.07428 17.9084V21.4046H14.8635V17.9084C14.8616 17.193 14.64 16.4954 14.2285 15.91C13.817 15.3247 13.2356 14.88 12.563 14.6361ZM9.96888 10.2169C10.3838 10.2169 10.7893 10.34 11.1343 10.5705C11.4792 10.801 11.7481 11.1286 11.9069 11.5119C12.0657 11.8952 12.1072 12.3169 12.0263 12.7239C11.9453 13.1308 11.7455 13.5045 11.4522 13.7979C11.1588 14.0913 10.785 14.2911 10.3781 14.372C9.9712 14.4529 9.54943 14.4114 9.16613 14.2526C8.78282 14.0939 8.45521 13.825 8.22471 13.48C7.99422 13.1351 7.87119 12.7295 7.87119 12.3146C7.87193 11.7585 8.09317 11.2254 8.48641 10.8321C8.87964 10.4389 9.41276 10.2177 9.96888 10.2169ZM13.465 20.0061H6.47273V17.9084C6.47347 17.3523 6.69472 16.8192 7.08795 16.426C7.48118 16.0327 8.01431 15.8115 8.57042 15.8108H11.3673C11.9234 15.8115 12.4566 16.0327 12.8498 16.426C13.243 16.8192 13.4643 17.3523 13.465 17.9084V20.0061ZM17.6604 10.2169H27.4496V11.6154H17.6604V10.2169ZM17.6604 14.4123H27.4496V15.8108H17.6604V14.4123ZM19.0588 18.6077H26.0511V20.0061H19.0588V18.6077Z" fill="white"/>
</svg>
