<svg width="34" height="34" viewBox="0 0 34 34" fill="none" xmlns="http://www.w3.org/2000/svg">
<path d="M26.3131 22.0284C25.5059 17.1991 20.8682 13.2728 15.9706 13.2728C10.6488 13.2728 5.97004 17.5822 5.51858 22.8902C5.34074 24.9423 5.9974 26.885 7.35178 28.3488C8.69247 29.8126 10.5804 30.6198 12.6325 30.6198H19.035C21.347 30.6198 23.3717 29.7168 24.7535 28.0889C26.1352 26.4609 26.6824 24.2993 26.3131 22.0284Z" fill="white"/>
<path d="M14.2682 11.2752C16.4819 11.2752 18.2766 9.48058 18.2766 7.26681C18.2766 5.05304 16.4819 3.25841 14.2682 3.25841C12.0544 3.25841 10.2598 5.05304 10.2598 7.26681C10.2598 9.48058 12.0544 11.2752 14.2682 11.2752Z" fill="white"/>
<path d="M23.3805 12.8731C25.2241 12.8731 26.7186 11.3786 26.7186 9.53508C26.7186 7.69151 25.2241 6.19702 23.3805 6.19702C21.5369 6.19702 20.0425 7.69151 20.0425 9.53508C20.0425 11.3786 21.5369 12.8731 23.3805 12.8731Z" fill="white"/>
<path d="M28.3181 18.213C29.7915 18.213 30.9858 17.0186 30.9858 15.5452C30.9858 14.0719 29.7915 12.8775 28.3181 12.8775C26.8448 12.8775 25.6504 14.0719 25.6504 15.5452C25.6504 17.0186 26.8448 18.213 28.3181 18.213Z" fill="white"/>
<path d="M5.601 15.5455C7.44455 15.5455 8.93905 14.0509 8.93905 12.2074C8.93905 10.3638 7.44455 8.86932 5.601 8.86932C3.75744 8.86932 2.26294 10.3638 2.26294 12.2074C2.26294 14.0509 3.75744 15.5455 5.601 15.5455Z" fill="white"/>
</svg>
