<svg width="32" height="32" viewBox="0 0 32 32" fill="none" xmlns="http://www.w3.org/2000/svg">
<g clip-path="url(#clip0_2_589)">
<path d="M20.4529 21.713C20.7894 21.713 21.1121 21.5793 21.3501 21.3414C21.588 21.1034 21.7217 20.7807 21.7217 20.4442V18.541H22.6733C22.9257 18.541 23.1678 18.4407 23.3462 18.2622C23.5247 18.0838 23.6249 17.8417 23.6249 17.5894C23.6249 17.337 23.5247 17.0949 23.3462 16.9165C23.1678 16.738 22.9257 16.6377 22.6733 16.6377H21.7217V15.3689H22.6733C22.9257 15.3689 23.1678 15.2687 23.3462 15.0902C23.5247 14.9118 23.6249 14.6697 23.6249 14.4173C23.6249 14.1649 23.5247 13.9229 23.3462 13.7444C23.1678 13.566 22.9257 13.4657 22.6733 13.4657H21.7217V11.5625C21.7217 11.226 21.588 10.9033 21.3501 10.6653C21.1121 10.4274 20.7894 10.2937 20.4529 10.2937H18.5497V9.34207C18.5497 9.08969 18.4494 8.84764 18.271 8.66918C18.0925 8.49072 17.8505 8.39046 17.5981 8.39046C17.3457 8.39046 17.1036 8.49072 16.9252 8.66918C16.7467 8.84764 16.6465 9.08969 16.6465 9.34207V10.2937H15.3776V9.34207C15.3776 9.08969 15.2774 8.84764 15.0989 8.66918C14.9205 8.49072 14.6784 8.39046 14.426 8.39046C14.1737 8.39046 13.9316 8.49072 13.7531 8.66918C13.5747 8.84764 13.4744 9.08969 13.4744 9.34207V10.2937H11.5712C11.2347 10.2937 10.912 10.4274 10.674 10.6653C10.4361 10.9033 10.3024 11.226 10.3024 11.5625V13.4657H9.35078C9.0984 13.4657 8.85635 13.566 8.67789 13.7444C8.49943 13.9229 8.39917 14.1649 8.39917 14.4173C8.39917 14.6697 8.49943 14.9118 8.67789 15.0902C8.85635 15.2687 9.0984 15.3689 9.35078 15.3689H10.3024V16.6377H9.35078C9.0984 16.6377 8.85635 16.738 8.67789 16.9165C8.49943 17.0949 8.39917 17.337 8.39917 17.5894C8.39917 17.8417 8.49943 18.0838 8.67789 18.2622C8.85635 18.4407 9.0984 18.541 9.35078 18.541H10.3024V20.4442C10.3024 20.7807 10.4361 21.1034 10.674 21.3414C10.912 21.5793 11.2347 21.713 11.5712 21.713H13.4744V22.6646C13.4744 22.917 13.5747 23.159 13.7531 23.3375C13.9316 23.516 14.1737 23.6162 14.426 23.6162C14.6784 23.6162 14.9205 23.516 15.0989 23.3375C15.2774 23.159 15.3776 22.917 15.3776 22.6646V21.713H16.6465V22.6646C16.6465 22.917 16.7467 23.159 16.9252 23.3375C17.1036 23.516 17.3457 23.6162 17.5981 23.6162C17.8505 23.6162 18.0925 23.516 18.271 23.3375C18.4494 23.159 18.5497 22.917 18.5497 22.6646V21.713H20.4529ZM12.2056 12.1969H19.8185V19.8098H12.2056V12.1969Z" fill="white"/>
<path d="M17.9195 14.1003H14.113V17.9067H17.9195V14.1003Z" fill="white"/>
<path d="M29.7194 12.6405L26.8011 10.2298V5.53518C26.7991 5.41353 26.7621 5.29502 26.6947 5.19379C26.6272 5.09256 26.532 5.01286 26.4205 4.96421L20.1398 2.10938H19.8861L19.5054 2.23626L19.1882 2.42659V6.23303C19.1882 6.48541 19.2885 6.72746 19.467 6.90592C19.6454 7.08438 19.8875 7.18464 20.1398 7.18464C20.3922 7.18464 20.6343 7.08438 20.8127 6.90592C20.9912 6.72746 21.0915 6.48541 21.0915 6.23303V5.34486L24.2635 6.80399V11.4986L25.2151 12.2599L27.4355 14.0362V17.9696L25.2151 19.7459L24.2635 20.5072V25.2018L21.0915 26.6609V25.8362C21.0915 25.5838 20.9912 25.3418 20.8127 25.1633C20.6343 24.9848 20.3922 24.8846 20.1398 24.8846C19.8875 24.8846 19.6454 24.9848 19.467 25.1633C19.2885 25.3418 19.1882 25.5838 19.1882 25.8362V29.6426L19.5054 29.833L19.8861 29.9598H20.1398L26.4205 27.105C26.532 27.0564 26.6272 26.9767 26.6947 26.8754C26.7621 26.7742 26.7991 26.6557 26.8011 26.534V21.776L29.7194 19.3652C29.8023 19.3101 29.8693 19.2343 29.9138 19.1452C29.9583 19.0562 29.9788 18.9571 29.9731 18.8577V13.1481C29.9862 13.0478 29.969 12.9459 29.9238 12.8555C29.8786 12.7651 29.8074 12.6902 29.7194 12.6405Z" fill="white"/>
<path d="M12.1465 2.04619H11.8927L5.61211 4.96446C5.50059 5.01311 5.40541 5.0928 5.33792 5.19404C5.27044 5.29527 5.23348 5.41377 5.23146 5.53543V10.23L2.31319 12.6408C2.22516 12.6905 2.15397 12.7653 2.10876 12.8558C2.06355 12.9462 2.04637 13.0481 2.05943 13.1483V18.858C2.05382 18.9573 2.07429 19.0565 2.1188 19.1455C2.16331 19.2345 2.23033 19.3104 2.31319 19.3655L5.23146 21.7762V26.4708C5.23348 26.5925 5.27044 26.711 5.33792 26.8122C5.40541 26.9135 5.50059 26.9932 5.61211 27.0418L11.8927 29.8966H12.1465L12.5271 29.7698L12.8443 29.5794V25.773C12.8443 25.5206 12.7441 25.2786 12.5656 25.1001C12.3872 24.9217 12.1451 24.8214 11.8927 24.8214C11.6404 24.8214 11.3983 24.9217 11.2198 25.1001C11.0414 25.2786 10.9411 25.5206 10.9411 25.773V26.5977L7.76909 25.1386V20.5074L6.81748 19.7461L4.59706 17.9698V14.0365L6.81748 12.2601L7.76909 11.4988V6.80424L10.9411 5.3451V6.16983C10.9411 6.42222 11.0414 6.66426 11.2198 6.84272C11.3983 7.02118 11.6404 7.12144 11.8927 7.12144C12.1451 7.12144 12.3872 7.02118 12.5656 6.84272C12.7441 6.66426 12.8443 6.42222 12.8443 6.16983V2.36339L12.5271 2.17307L12.1465 2.04619Z" fill="white"/>
</g>
<defs>
<clipPath id="clip0_2_589">
<rect width="30.4515" height="30.4515" fill="white" transform="translate(0.78125 0.777832)"/>
</clipPath>
</defs>
</svg>
