<svg width="39" height="30" viewBox="0 0 39 30" fill="none" xmlns="http://www.w3.org/2000/svg">
<path d="M7.09688 1.07298C6.79072 1.3026 6.77158 1.37914 6.98207 1.64703C7.11601 1.81924 7.36477 1.95319 7.49871 1.95319C7.65179 1.95319 7.7666 2.1254 7.7666 2.33589C7.7666 2.66118 7.63266 2.71859 6.90553 2.71859C6.27407 2.71859 6.04445 2.64205 6.04445 2.43156C6.04445 2.25935 5.87223 2.14454 5.56607 2.14454C5.25991 2.14454 5.0877 2.25935 5.0877 2.43156C5.0877 2.64205 4.85808 2.71859 4.20749 2.71859C3.44209 2.71859 3.34641 2.75686 3.46122 3.04388C4.68586 6.16289 5.27905 9.58806 5.27905 13.5681C5.27905 15.7687 5.29818 15.96 5.62348 15.8261C7.07774 15.2329 7.91968 15.2712 9.24 16.0366C9.75665 16.3427 10.1585 16.7637 10.3881 17.2612C10.7899 18.1414 10.9622 18.218 11.1344 17.5482C11.4214 16.381 13.6028 15.1755 14.904 15.4625C16.186 15.7304 17.4107 16.7063 17.6403 17.5865L17.7551 18.0266H22.5006H27.2461L27.4757 17.4526C28.0306 16.1322 29.8293 15.1946 31.3218 15.4434C32.2977 15.6156 33.4458 16.4767 33.8668 17.3378C34.1921 18.0266 34.2112 18.0457 35.1871 17.9883C36.0099 17.9309 36.2204 17.8544 36.4117 17.4526C36.6988 16.8785 36.737 13.9126 36.4692 12.5349C36.2204 11.138 33.465 6.00981 32.7952 5.66538C32.4125 5.47403 31.4366 5.39749 28.9108 5.39749C25.8109 5.39749 25.5239 5.43576 25.1795 5.78019C24.8159 6.14376 24.7968 6.41165 24.7968 10.1812V14.1996H21.1611H17.5255V13.7212V13.2429H20.2044C22.8067 13.2429 22.9215 13.2237 23.3617 12.7645L23.84 12.3052V7.98072V3.6562L23.3617 3.19696C22.979 2.79513 22.7111 2.71859 21.8309 2.71859C20.8358 2.71859 20.7784 2.69945 20.7784 2.24021C20.7784 1.78097 20.721 1.76184 19.726 1.76184C18.731 1.76184 18.6736 1.78097 18.6736 2.24021C18.6736 2.64205 18.5779 2.71859 18.0995 2.71859C17.7168 2.71859 17.5255 2.62291 17.5255 2.43156C17.5255 2.27848 17.3533 2.14454 17.1428 2.14454C16.9323 2.14454 16.7027 2.27848 16.6453 2.43156C16.5687 2.64205 16.2434 2.71859 15.5928 2.71859C14.7892 2.71859 14.6552 2.66118 14.6552 2.33589C14.6552 2.08713 14.7892 1.95319 15.0188 1.95319C15.5354 1.95319 15.9373 1.43654 15.6311 1.13038C15.2675 0.766815 12.3399 0.70941 11.8806 1.05384C11.5745 1.3026 11.5553 1.37914 11.7658 1.64703C11.8998 1.81924 12.1485 1.95319 12.2825 1.95319C12.4356 1.95319 12.5504 2.1254 12.5504 2.33589C12.5504 2.68032 12.4164 2.71859 11.3066 2.71859C10.1968 2.71859 10.0628 2.68032 10.0628 2.33589C10.0628 2.1254 10.1776 1.95319 10.3307 1.95319C10.4646 1.95319 10.7134 1.81924 10.8473 1.64703C11.2874 1.11124 10.5795 0.805084 8.9147 0.805084C7.97709 0.805084 7.3265 0.900759 7.09688 1.07298ZM27.8584 8.65045V10.9467H26.806H25.7535V8.65045V6.35424H26.806H27.8584V8.65045ZM32.4891 6.67954C32.7952 7.0431 34.747 10.6214 34.747 10.8318C34.747 10.8892 33.331 10.9467 31.5897 10.9467H28.4324V8.65045V6.35424H30.3077C31.8767 6.35424 32.2594 6.41165 32.4891 6.67954ZM27.8584 12.9558C27.8584 13.1472 27.6479 13.2429 27.1887 13.2429C26.7294 13.2429 26.5189 13.1472 26.5189 12.9558C26.5189 12.7645 26.7294 12.6688 27.1887 12.6688C27.6479 12.6688 27.8584 12.7645 27.8584 12.9558ZM16.5687 13.7212V14.1996H11.3066H6.04445V13.7212V13.2429H11.3066H16.5687V13.7212Z" fill="white"/>
<path d="M5.83081 16.4382C5.40984 16.6869 5.29503 16.9165 5.23762 17.7202C5.19935 18.256 5.008 18.9831 4.83579 19.3467C4.54876 19.9016 4.54876 20.0355 4.79752 20.5139C5.48638 21.8342 7.61037 22.2935 8.93068 21.3941C11.3417 19.7485 10.2127 16.0937 7.30421 16.1129C6.74929 16.1129 6.11784 16.2468 5.83081 16.4382ZM8.31836 17.7585C9.16031 18.4665 9.16031 19.4998 8.29923 20.2269C6.69189 21.5855 4.74011 19.3084 6.21351 17.8159C6.90237 17.127 7.55296 17.1079 8.31836 17.7585Z" fill="white"/>
<path d="M12.7224 16.573C12.0144 17.0513 11.4021 18.2186 11.4021 19.0414C11.4212 19.8259 12.1101 21.0123 12.7798 21.4333C14.7316 22.6388 17.334 21.2419 17.334 18.984C17.334 16.6878 14.6359 15.2718 12.7224 16.573ZM15.4013 17.7593C16.2433 18.4673 16.2433 19.5006 15.3822 20.2277C13.7748 21.5863 11.8231 19.3093 13.2965 17.8167C13.9853 17.1279 14.6359 17.1087 15.4013 17.7593Z" fill="white"/>
<path d="M29.4653 16.3045C29.2548 16.3811 28.8147 16.7638 28.4702 17.1465C27.9345 17.7588 27.8579 17.9884 27.8579 18.9834C27.8579 19.9211 27.9345 20.2081 28.3554 20.7056C29.0251 21.4901 29.7714 21.8537 30.7664 21.8537C33.6367 21.8537 34.6891 18.0076 32.2207 16.4959C31.5701 16.0941 30.2115 15.9984 29.4653 16.3045ZM31.4744 17.5483C31.7806 17.7014 32.125 18.0841 32.259 18.4094C32.6034 19.2131 32.1633 20.1507 31.2831 20.5142C30.7473 20.7439 30.5942 20.7247 29.9819 20.3994C28.7764 19.7488 28.7573 18.1224 29.9628 17.51C30.5751 17.2039 30.8238 17.2039 31.4744 17.5483Z" fill="white"/>
<path d="M0.6875 22.3321C0.6875 22.5808 2.86889 22.6191 19.459 22.6191C34.3843 22.6191 38.2113 22.5617 38.1539 22.3703C38.0773 22.1981 34.1164 22.1216 19.3824 22.0833C2.84976 22.045 0.6875 22.0833 0.6875 22.3321Z" fill="white"/>
<path d="M7.32032 21.8223C6.8879 21.8655 6.85547 21.8872 6.85547 22.1899C6.85547 22.3628 6.8879 22.5034 6.94195 22.5034C6.98519 22.5142 8.08785 22.525 9.39591 22.5358C11.9904 22.5682 12.9093 22.698 12.9093 23.0439C12.9093 23.2493 12.5417 23.4331 11.4607 23.7357C10.6824 23.9628 10.1743 24.4168 10.2283 24.8384C10.304 25.487 11.2013 25.7357 13.4606 25.7465C15.2984 25.7465 16.12 26.0384 16.5416 26.8491C16.7362 27.2275 16.7362 27.5843 16.5416 27.5843C16.4551 27.5843 16.3578 27.4221 16.3254 27.2059C16.2821 27.0005 16.1416 26.6978 16.0011 26.5356C15.7524 26.2546 15.7524 26.2546 14.9849 26.3735C13.8714 26.5573 13.0282 26.9032 12.5634 27.368C12.0661 27.8545 12.0553 28.114 12.4769 28.5896C12.8444 29.0112 13.5255 29.3355 14.6065 29.6058C15.6443 29.8652 18.6064 29.8652 19.6442 29.6058C20.6171 29.368 21.3738 29.0328 21.6657 28.7193C21.9035 28.4707 21.9035 28.4707 21.6765 28.395C21.3198 28.2869 19.9252 27.3356 19.3415 26.8059C18.9199 26.4275 18.6929 26.2978 18.2713 26.2438C17.7848 26.1681 17.7524 26.1789 17.828 26.3627C17.8713 26.4708 17.9253 26.741 17.9578 26.9572C18.0334 27.4653 17.828 27.5086 17.7307 27.0113C17.6983 26.8167 17.5145 26.4816 17.3307 26.2546C16.6497 25.433 15.2876 25.0006 13.3417 24.9898C12.012 24.9898 11.3742 24.9033 11.4283 24.7303C11.4499 24.6654 11.9364 24.46 12.5201 24.2655C13.6552 23.8979 14.0984 23.5952 14.0984 23.1844C14.0984 22.5898 13.5903 22.2115 12.4769 21.9737C11.8715 21.8439 8.14191 21.725 7.32032 21.8223Z" fill="white"/>
</svg>
