<svg width="33" height="33" viewBox="0 0 33 33" fill="none" xmlns="http://www.w3.org/2000/svg">
<path d="M28.3598 29.9277H4.55566" stroke="white" stroke-width="2.18889" stroke-linecap="round"/>
<path d="M25.707 29.9275V20.6703" stroke="white" stroke-width="2.18889" stroke-linecap="round"/>
<path d="M7.19897 29.9275V20.6703" stroke="white" stroke-width="2.18889" stroke-linecap="round"/>
<path d="M22.4405 3.47876H10.4648C8.87409 3.47876 8.07876 3.47876 7.43961 3.87378C6.80046 4.26879 6.44477 4.98015 5.73341 6.40289L3.87719 11.0952C3.44833 12.1792 3.07311 13.457 3.79501 14.3725C4.27932 14.9866 5.03005 15.3808 5.8729 15.3808C7.33365 15.3808 8.51781 14.1967 8.51781 12.7359C8.51781 14.1967 9.70198 15.3808 11.1627 15.3808C12.6235 15.3808 13.8076 14.1967 13.8076 12.7359C13.8076 14.1967 14.9917 15.3808 16.4525 15.3808C17.9133 15.3808 19.0974 14.1967 19.0974 12.7359C19.0974 14.1967 20.2816 15.3808 21.7423 15.3808C23.2031 15.3808 24.3872 14.1967 24.3872 12.7359C24.3872 14.1967 25.5714 15.3808 27.0322 15.3808C27.8751 15.3808 28.6258 14.9866 29.1101 14.3725C29.832 13.457 29.4569 12.1792 29.028 11.0952L27.1718 6.40289C26.4605 4.98015 26.1047 4.26879 25.4656 3.87378C24.8264 3.47876 24.0311 3.47876 22.4405 3.47876Z" stroke="white" stroke-width="2.18889" stroke-linejoin="round"/>
</svg>
