<svg width="32" height="31" viewBox="0 0 32 31" fill="none" xmlns="http://www.w3.org/2000/svg">
<path d="M26.3249 11.516L23.5873 27.8597C23.4988 28.3434 23.078 28.6954 22.5862 28.6973H10.0016C9.50985 28.6954 9.089 28.3434 9.00054 27.8597L6.26297 11.516C6.17267 10.959 6.55102 10.4344 7.10773 10.3441C7.15942 10.3357 7.21172 10.3314 7.26402 10.331H25.3034C25.8674 10.3237 26.3306 10.7752 26.3379 11.3392C26.3388 11.3985 26.3343 11.4575 26.3249 11.516ZM27.5302 7.26659C27.5302 7.83065 27.0728 8.28807 26.5087 8.28807H6.0791C5.51504 8.28807 5.05762 7.83065 5.05762 7.26659C5.05762 6.70253 5.51504 6.24511 6.0791 6.24511H11.1865V3.18066C11.1865 2.6166 11.6439 2.15918 12.208 2.15918H20.3798C20.9439 2.15918 21.4013 2.6166 21.4013 3.18066V6.24511H26.5087C27.0728 6.24511 27.5302 6.70253 27.5302 7.26659ZM19.3584 6.24511V4.20214H13.2295V6.24511H19.3584Z" fill="white"/>
</svg>
