<svg width="38" height="22" viewBox="0 0 38 22" fill="none" xmlns="http://www.w3.org/2000/svg">
<path d="M8.09536 4.00954H5.88477V5.48804H8.09536V4.00954Z" fill="white"/>
<path d="M8.09536 1.77584C7.24894 1.77584 6.49255 1.77584 5.88477 1.77584V2.77244H8.09536V1.77584Z" fill="white"/>
<path d="M20.3754 12.9645C22.4787 12.9645 24.184 10.4599 24.184 7.37024C24.184 4.28052 22.4787 1.77586 20.3754 1.77586C20.3724 1.77586 19.7943 1.77586 18.8602 1.77586V1.23333H18.9083C19.206 1.23333 19.4473 0.992108 19.4473 0.694426C19.4473 0.396745 19.206 0.155518 18.9083 0.155518H15.0127C14.715 0.155518 14.4737 0.396745 14.4737 0.694426C14.4737 0.992108 14.715 1.23333 15.0127 1.23333H15.0608V1.77586C13.2132 1.77586 11.1491 1.77586 9.32923 1.77586V7.31599C9.32923 7.6577 9.05231 7.93462 8.7106 7.93462C8.36889 7.93462 8.09196 7.6577 8.09196 7.31599V6.7255H5.88152V7.31599C5.88152 7.6577 5.6046 7.93462 5.26289 7.93462C4.92125 7.93462 4.64425 7.6577 4.64425 7.31599V1.77586C4.4535 1.77586 4.34877 1.77586 4.34751 1.77586C2.24424 1.77586 0.539062 4.28052 0.539062 7.37024C0.539062 10.4599 2.24424 12.9645 4.34751 12.9645C4.36395 12.9645 20.359 12.9645 20.3754 12.9645ZM16.7355 4.62365C16.7875 4.56774 16.8848 4.56774 16.9369 4.62365C17.0211 4.71407 19.0009 6.85122 19.0009 8.01168C19.0009 9.20531 18.0298 10.1764 16.8361 10.1764C15.6425 10.1764 14.6714 9.20523 14.6714 8.01168C14.6714 6.85122 16.6512 4.71407 16.7355 4.62365Z" fill="white"/>
<path d="M36.7433 12.4795H36.5075V7.36871C36.5075 7.16357 36.4272 6.96638 36.2837 6.81958L33.7504 4.22489C33.6025 4.0733 33.3997 3.98775 33.1879 3.98775H26.4432C26.009 3.98775 25.657 4.33992 25.657 4.77402V14.4071H24.0058L4.27508 14.4153H4.0392C3.60494 14.4153 3.25293 14.7674 3.25293 15.2015V16.8826C3.25293 17.3168 3.60494 17.6689 4.0392 17.6689H5.06135H6.04434C6.04434 19.6883 7.6812 21.3249 9.70033 21.3249C11.7195 21.3249 13.3562 19.6883 13.3562 17.6689H13.3957C13.3957 19.6883 15.0326 21.3249 17.0517 21.3249C19.0708 21.3249 20.7076 19.6883 20.7076 17.6689H27.1246H27.4262C27.4262 19.6883 29.0629 21.3249 31.0822 21.3249C33.1013 21.3249 34.7382 19.6883 34.7382 17.6689H35.7212H36.7433C37.1774 17.6689 37.5296 17.3168 37.5296 16.8826V13.2658C37.5296 12.8315 37.1774 12.4795 36.7433 12.4795ZM9.70033 18.966C8.98507 18.966 8.40315 18.3842 8.40315 17.6688C8.40315 16.9536 8.98507 16.3718 9.70033 16.3718C10.4156 16.3718 10.9974 16.9536 10.9974 17.6688C10.9974 18.3842 10.4156 18.966 9.70033 18.966ZM17.0517 18.966C16.3364 18.966 15.7545 18.3842 15.7545 17.6688C15.7545 16.9536 16.3364 16.3718 17.0517 16.3718C17.767 16.3718 18.3488 16.9536 18.3488 17.6688C18.3489 18.3842 17.767 18.966 17.0517 18.966ZM31.0822 18.966C30.3669 18.966 29.785 18.3842 29.785 17.6688C29.785 16.9536 30.3669 16.3718 31.0822 16.3718C31.7974 16.3718 32.3794 16.9536 32.3794 17.6688C32.3794 18.3842 31.7973 18.966 31.0822 18.966ZM34.0963 10.1716C34.0963 10.3606 33.9429 10.514 33.7537 10.514H28.4105C28.2215 10.514 28.0681 10.3606 28.0681 10.1716V6.60501C28.0681 6.41583 28.2215 6.26259 28.4105 6.26259H32.3396C32.4319 6.26259 32.5202 6.29978 32.5847 6.36583L33.9987 7.81429C34.0611 7.87821 34.0961 7.96415 34.0961 8.05355V10.1716H34.0963Z" fill="white"/>
</svg>
