<svg width="28" height="27" viewBox="0 0 28 27" fill="none" xmlns="http://www.w3.org/2000/svg">
<path d="M11.6718 17.5139L8.18015 12.2742C8.02956 12.0499 7.82608 11.866 7.58767 11.7389C7.34925 11.6118 7.08322 11.5453 6.81303 11.5453C6.54285 11.5453 6.27682 11.6118 6.0384 11.7389C5.79999 11.866 5.59651 12.0499 5.44592 12.2742L1.95424 17.5139C-0.585863 21.3271 1.99151 26.5173 6.56908 26.6846C6.64967 26.6846 6.73114 26.6889 6.8126 26.6889C6.89406 26.6889 6.9764 26.6889 7.05699 26.6846C11.6346 26.5191 14.2111 21.3271 11.6718 17.5139Z" fill="white"/>
<path d="M27.1984 16.2641C27.1261 14.3503 26.5226 12.4943 25.4556 10.9039L19.3224 1.70028C19.0612 1.30881 18.7075 0.987858 18.2925 0.765881C17.8775 0.543904 17.4142 0.427765 16.9435 0.427765C16.4729 0.427765 16.0096 0.543904 15.5946 0.765881C15.1796 0.987858 14.8258 1.30881 14.5646 1.70028L8.61084 10.6353C8.9267 10.858 9.19875 11.1371 9.41334 11.4586L9.67334 11.8529L9.72707 11.7662L15.8602 2.56258C15.979 2.38473 16.1398 2.23891 16.3284 2.13807C16.517 2.03722 16.7275 1.98446 16.9414 1.98446C17.1552 1.98446 17.3658 2.03722 17.5544 2.13807C17.743 2.23891 17.9037 2.38473 18.0225 2.56258L24.1548 11.7662C25.9609 14.4762 26.1394 17.8258 24.6332 20.7264C23.1599 23.5724 20.3763 25.3196 17.1966 25.3993C17.0233 25.4036 16.8551 25.4036 16.6853 25.3993C15.4532 25.3712 14.2415 25.0789 13.1321 24.5422C12.8667 25.0008 12.5529 25.4296 12.1961 25.8213C13.5755 26.536 15.1001 26.9256 16.6532 26.9601C16.7511 26.9601 16.8491 26.9601 16.9479 26.9601C17.0467 26.9601 17.1446 26.9601 17.2425 26.9601C20.9985 26.8648 24.2822 24.803 26.025 21.4466C26.8544 19.8484 27.2585 18.0637 27.1984 16.2641Z" fill="white"/>
<path d="M3.24418 5.51007C4.40287 6.01879 4.99739 6.6133 5.5061 7.77199C5.54431 7.85999 5.6074 7.9349 5.68762 7.98752C5.76784 8.04014 5.86168 8.06817 5.95762 8.06817C6.05355 8.06817 6.1474 8.04014 6.22761 7.98752C6.30783 7.9349 6.37092 7.85999 6.40913 7.77199C6.91785 6.6133 7.51236 6.01879 8.67105 5.51007C8.75905 5.47186 8.83396 5.40877 8.88658 5.32855C8.9392 5.24834 8.96723 5.15449 8.96723 5.05856C8.96723 4.96262 8.9392 4.86878 8.88658 4.78856C8.83396 4.70834 8.75905 4.64525 8.67105 4.60704C7.51236 4.09833 6.91785 3.50381 6.40913 2.34599C6.37092 2.25799 6.30783 2.18308 6.22761 2.13046C6.1474 2.07784 6.05355 2.0498 5.95762 2.0498C5.86168 2.0498 5.76784 2.07784 5.68762 2.13046C5.6074 2.18308 5.54431 2.25799 5.5061 2.34599C4.99739 3.50381 4.40287 4.09833 3.24418 4.60704C3.15619 4.64525 3.08127 4.70834 3.02865 4.78856C2.97603 4.86878 2.948 4.96262 2.948 5.05856C2.948 5.15449 2.97603 5.24834 3.02865 5.32855C3.08127 5.40877 3.15619 5.47186 3.24418 5.51007Z" fill="white"/>
<path d="M21.8352 17.997C21.8343 18.9065 21.4726 19.7784 20.8295 20.4215C20.1864 21.0646 19.3145 21.4262 18.405 21.4272V22.9004C19.7051 22.8991 20.9515 22.382 21.8708 21.4627C22.79 20.5435 23.3071 19.2971 23.3084 17.997H21.8352Z" fill="white"/>
</svg>
