<svg width="40" height="40" viewBox="0 0 40 40" fill="none" xmlns="http://www.w3.org/2000/svg">
<g clip-path="url(#clip0_267_3074)">
<path d="M16.9192 23.2119L20.8226 25.4655L12.8961 39.1946L10.6211 34.1207L16.9192 23.2119Z" fill="#418ED6"/>
<path d="M16.9196 23.2124L13.0163 20.9588L5.08984 34.6879L10.6215 34.1212L16.9196 23.2124Z" fill="#2B63A6"/>
<path d="M22.4883 23.2119L18.585 25.4655L26.5114 39.1946L28.7863 34.1207L22.4883 23.2119Z" fill="#2B63A6"/>
<path d="M22.4883 23.2124L26.3916 20.9588L34.318 34.6879L28.7864 34.1212L22.4883 23.2124Z" fill="#418ED6"/>
<path d="M19.6973 27.1973C27.1192 27.1973 33.1358 21.1807 33.1358 13.7588C33.1358 6.33693 27.1192 0.320312 19.6973 0.320312C12.2754 0.320312 6.25879 6.33693 6.25879 13.7588C6.25879 21.1807 12.2754 27.1973 19.6973 27.1973Z" fill="#E3E3E3"/>
<path d="M19.6979 24.2484C25.4913 24.2484 30.1878 19.5519 30.1878 13.7585C30.1878 7.96505 25.4913 3.26855 19.6979 3.26855C13.9045 3.26855 9.20801 7.96505 9.20801 13.7585C9.20801 19.5519 13.9045 24.2484 19.6979 24.2484Z" fill="#595959"/>
<mask id="mask0_267_3074" style="mask-type:alpha" maskUnits="userSpaceOnUse" x="9" y="4" width="22" height="22">
<path d="M20.2575 25.3929C26.0644 25.3929 30.7718 20.6855 30.7718 14.8786C30.7718 9.07168 26.0644 4.36425 20.2575 4.36425C14.4506 4.36425 9.74316 9.07168 9.74316 14.8786C9.74316 20.6855 14.4506 25.3929 20.2575 25.3929Z" fill="#C28B37"/>
</mask>
<g mask="url(#mask0_267_3074)">
<path d="M19.6979 24.2718C25.5048 24.2718 30.2123 19.5644 30.2123 13.7575C30.2123 7.95058 25.5048 3.24316 19.6979 3.24316C13.891 3.24316 9.18359 7.95058 9.18359 13.7575C9.18359 19.5644 13.891 24.2718 19.6979 24.2718Z" fill="url(#paint0_linear_267_3074)"/>
</g>
<path d="M19.7545 6.44434L22.0225 10.9805L26.5588 11.5475L23.4439 15.0404L24.2907 20.0529L19.7545 17.7848L15.2183 20.0529L16.0726 15.0404L12.9502 11.5475L17.4864 10.9805L19.7545 6.44434Z" fill="url(#paint1_linear_267_3074)"/>
</g>
<defs>
<linearGradient id="paint0_linear_267_3074" x1="19.6979" y1="3.24317" x2="19.6979" y2="24.2718" gradientUnits="userSpaceOnUse">
<stop stop-color="#9CA1A3"/>
<stop offset="1" stop-color="#9CA1A3" stop-opacity="0"/>
</linearGradient>
<linearGradient id="paint1_linear_267_3074" x1="19.7545" y1="6.44434" x2="19.7545" y2="20.0529" gradientUnits="userSpaceOnUse">
<stop stop-color="#F1F5F5"/>
<stop offset="0.0001" stop-color="white"/>
<stop offset="1" stop-color="#F1F5F5"/>
</linearGradient>
<clipPath id="clip0_267_3074">
<rect width="38.874" height="38.874" fill="white" transform="translate(0.837891 0.320312)"/>
</clipPath>
</defs>
</svg>
